<svg xmlns="http://www.w3.org/2000/svg" xmlns:xlink="http://www.w3.org/1999/xlink" x="-266.6666666666667" y="-198.33333333333334" width="533.3333333333334px" height="396.6666666666667px" viewBox="-266.6666666666667 -198.33333333333334 533.3333333333334 396.6666666666667">
<g transform="scale(0.7)">
<path d="M-353.185 -189C-353.185 -198.491 -345.491 -206.185 -336 -206.185C-326.509 -206.185 -318.815 -198.491 -318.815 -189C-318.815 -179.509 -326.509 -171.815 -336 -171.815C-345.491 -171.815 -353.185 -179.509 -353.185 -189Z" style="fill:#FFFFFF;fill-opacity:0;stroke:#0000FF;stroke-width:2;"/>
<path d="M-320.985 -189C-320.985 -197.525 -314.075 -204.435 -305.550 -204.435C-297.025 -204.435 -290.115 -197.525 -290.115 -189C-290.115 -180.475 -297.025 -173.565 -305.550 -173.565C-314.075 -173.565 -320.985 -180.475 -320.985 -189Z" style="fill:#FFFFFF;fill-opacity:0;stroke:#0000FF;stroke-width:2;"/>
<path d="M-290.360 -189C-290.360 -197.428 -283.528 -204.260 -275.100 -204.260C-266.672 -204.260 -259.840 -197.428 -259.840 -189C-259.840 -180.572 -266.672 -173.740 -275.100 -173.740C-283.528 -173.740 -290.360 -180.572 -290.360 -189Z" style="fill:#FFFFFF;fill-opacity:0;stroke:#0000FF;stroke-width:2;"/>
<path d="M-260.085 -189C-260.085 -197.525 -253.175 -204.435 -244.650 -204.435C-236.125 -204.435 -229.215 -197.525 -229.215 -189C-229.215 -180.475 -236.125 -173.565 -244.650 -173.565C-253.175 -173.565 -260.085 -180.475 -260.085 -189Z" style="fill:#FFFFFF;fill-opacity:0;stroke:#0000FF;stroke-width:2;"/>
<path d="M-226.275 -189C-226.275 -195.669 -220.869 -201.075 -214.200 -201.075C-207.531 -201.075 -202.125 -195.669 -202.125 -189C-202.125 -182.331 -207.531 -176.925 -214.200 -176.925C-220.869 -176.925 -226.275 -182.331 -226.275 -189Z" style="fill:#FFFFFF;fill-opacity:0;stroke:#0000FF;stroke-width:2;"/>
<path d="M-194.355 -189C-194.355 -194.857 -189.607 -199.605 -183.750 -199.605C-177.893 -199.605 -173.145 -194.857 -173.145 -189C-173.145 -183.143 -177.893 -178.395 -183.750 -178.395C-189.607 -178.395 -194.355 -183.143 -194.355 -189Z" style="fill:#FFFFFF;fill-opacity:0;stroke:#0000FF;stroke-width:2;"/>
<path d="M-163.520 -189C-163.520 -194.644 -158.944 -199.220 -153.300 -199.220C-147.656 -199.220 -143.080 -194.644 -143.080 -189C-143.080 -183.356 -147.656 -178.780 -153.300 -178.780C-158.944 -178.780 -163.520 -183.356 -163.520 -189Z" style="fill:#FFFFFF;fill-opacity:0;stroke:#0000FF;stroke-width:2;"/>
<path d="M-136.675 -189C-136.675 -196.635 -130.485 -202.825 -122.850 -202.825C-115.215 -202.825 -109.025 -196.635 -109.025 -189C-109.025 -181.365 -115.215 -175.175 -122.850 -175.175C-130.485 -175.175 -136.675 -181.365 -136.675 -189Z" style="fill:#FFFFFF;fill-opacity:0;stroke:#0000FF;stroke-width:2;"/>
<path d="M-102.620 -189C-102.620 -194.644 -98.044 -199.220 -92.400 -199.220C-86.756 -199.220 -82.180 -194.644 -82.180 -189C-82.180 -183.356 -86.756 -178.780 -92.400 -178.780C-98.044 -178.780 -102.620 -183.356 -102.620 -189Z" style="fill:#FFFFFF;fill-opacity:0;stroke:#0000FF;stroke-width:2;"/>
<path d="M-71.785 -189C-71.785 -194.432 -67.382 -198.835 -61.950 -198.835C-56.518 -198.835 -52.115 -194.432 -52.115 -189C-52.115 -183.568 -56.518 -179.165 -61.950 -179.165C-67.382 -179.165 -71.785 -183.568 -71.785 -189Z" style="fill:#FFFFFF;fill-opacity:0;stroke:#0000FF;stroke-width:2;"/>
<path d="M-46.165 -189C-46.165 -197.099 -39.599 -203.665 -31.500 -203.665C-23.401 -203.665 -16.835 -197.099 -16.835 -189C-16.835 -180.901 -23.401 -174.335 -31.500 -174.335C-39.599 -174.335 -46.165 -180.901 -46.165 -189Z" style="fill:#FFFFFF;fill-opacity:0;stroke:#0000FF;stroke-width:2;"/>
<path d="M-17.570 -189C-17.570 -198.124 -10.174 -205.520 -1.050 -205.520C8.074 -205.520 15.470 -198.124 15.470 -189C15.470 -179.876 8.074 -172.480 -1.050 -172.480C-10.174 -172.480 -17.570 -179.876 -17.570 -189Z" style="fill:#FFFFFF;fill-opacity:0;stroke:#0000FF;stroke-width:2;"/>
<path d="M13.510 -189C13.510 -197.776 20.624 -204.890 29.400 -204.890C38.176 -204.890 45.290 -197.776 45.290 -189C45.290 -180.224 38.176 -173.110 29.400 -173.110C20.624 -173.110 13.510 -180.224 13.510 -189Z" style="fill:#FFFFFF;fill-opacity:0;stroke:#0000FF;stroke-width:2;"/>
<path d="M44.765 -189C44.765 -197.331 51.519 -204.085 59.850 -204.085C68.181 -204.085 74.935 -197.331 74.935 -189C74.935 -180.669 68.181 -173.915 59.850 -173.915C51.519 -173.915 44.765 -180.669 44.765 -189Z" style="fill:#FFFFFF;fill-opacity:0;stroke:#0000FF;stroke-width:2;"/>
<path d="M76.300 -189C76.300 -196.732 82.568 -203 90.300 -203C98.032 -203 104.300 -196.732 104.300 -189C104.300 -181.268 98.032 -175 90.300 -175C82.568 -175 76.300 -181.268 76.300 -189Z" style="fill:#FFFFFF;fill-opacity:0;stroke:#0000FF;stroke-width:2;"/>
<path d="M106.995 -189C106.995 -196.597 113.153 -202.755 120.750 -202.755C128.347 -202.755 134.505 -196.597 134.505 -189C134.505 -181.403 128.347 -175.245 120.750 -175.245C113.153 -175.245 106.995 -181.403 106.995 -189Z" style="fill:#FFFFFF;fill-opacity:0;stroke:#0000FF;stroke-width:2;"/>
<path d="M138.950 -189C138.950 -195.765 144.435 -201.250 151.200 -201.250C157.965 -201.250 163.450 -195.765 163.450 -189C163.450 -182.235 157.965 -176.750 151.200 -176.750C144.435 -176.750 138.950 -182.235 138.950 -189Z" style="fill:#FFFFFF;fill-opacity:0;stroke:#0000FF;stroke-width:2;"/>
<path d="M171.255 -189C171.255 -194.741 175.909 -199.395 181.650 -199.395C187.391 -199.395 192.045 -194.741 192.045 -189C192.045 -183.259 187.391 -178.605 181.650 -178.605C175.909 -178.605 171.255 -183.259 171.255 -189Z" style="fill:#FFFFFF;fill-opacity:0;stroke:#0000FF;stroke-width:2;"/>
<path d="M202.020 -189C202.020 -194.567 206.533 -199.080 212.100 -199.080C217.667 -199.080 222.180 -194.567 222.180 -189C222.180 -183.433 217.667 -178.920 212.100 -178.920C206.533 -178.920 202.020 -183.433 202.020 -189Z" style="fill:#FFFFFF;fill-opacity:0;stroke:#0000FF;stroke-width:2;"/>
<path d="M232.575 -189C232.575 -194.509 237.041 -198.975 242.550 -198.975C248.059 -198.975 252.525 -194.509 252.525 -189C252.525 -183.491 248.059 -179.025 242.550 -179.025C237.041 -179.025 232.575 -183.491 232.575 -189Z" style="fill:#FFFFFF;fill-opacity:0;stroke:#0000FF;stroke-width:2;"/>
<path d="M261.065 -189C261.065 -195.592 266.408 -200.935 273 -200.935C279.592 -200.935 284.935 -195.592 284.935 -189C284.935 -182.408 279.592 -177.065 273 -177.065C266.408 -177.065 261.065 -182.408 261.065 -189Z" style="fill:#FFFFFF;fill-opacity:0;stroke:#0000FF;stroke-width:2;"/>
<path d="M286.195 -189C286.195 -198.530 293.920 -206.255 303.450 -206.255C312.980 -206.255 320.705 -198.530 320.705 -189C320.705 -179.470 312.980 -171.745 303.450 -171.745C293.920 -171.745 286.195 -179.470 286.195 -189Z" style="fill:#FFFFFF;fill-opacity:0;stroke:#0000FF;stroke-width:2;"/>
<path d="M317.100 -189C317.100 -198.278 324.622 -205.800 333.900 -205.800C343.178 -205.800 350.700 -198.278 350.700 -189C350.700 -179.722 343.178 -172.200 333.900 -172.200C324.622 -172.200 317.100 -179.722 317.100 -189Z" style="fill:#FFFFFF;fill-opacity:0;stroke:#0000FF;stroke-width:2;"/>
<path d="M-353.955 -158.550C-353.955 -168.466 -345.916 -176.505 -336 -176.505C-326.084 -176.505 -318.045 -168.466 -318.045 -158.550C-318.045 -148.634 -326.084 -140.595 -336 -140.595C-345.916 -140.595 -353.955 -148.634 -353.955 -158.550Z" style="fill:#FFFFFF;fill-opacity:0;stroke:#0000FF;stroke-width:2;"/>
<path d="M-321.405 -158.550C-321.405 -167.306 -314.306 -174.405 -305.550 -174.405C-296.794 -174.405 -289.695 -167.306 -289.695 -158.550C-289.695 -149.794 -296.794 -142.695 -305.550 -142.695C-314.306 -142.695 -321.405 -149.794 -321.405 -158.550Z" style="fill:#FFFFFF;fill-opacity:0;stroke:#0000FF;stroke-width:2;"/>
<path d="M-291.445 -158.550C-291.445 -167.577 -284.127 -174.895 -275.100 -174.895C-266.073 -174.895 -258.755 -167.577 -258.755 -158.550C-258.755 -149.523 -266.073 -142.205 -275.100 -142.205C-284.127 -142.205 -291.445 -149.523 -291.445 -158.550Z" style="fill:#FFFFFF;fill-opacity:0;stroke:#0000FF;stroke-width:2;"/>
<path d="M-258.545 -158.550C-258.545 -166.224 -252.324 -172.445 -244.650 -172.445C-236.976 -172.445 -230.755 -166.224 -230.755 -158.550C-230.755 -150.876 -236.976 -144.655 -244.650 -144.655C-252.324 -144.655 -258.545 -150.876 -258.545 -158.550Z" style="fill:#FFFFFF;fill-opacity:0;stroke:#0000FF;stroke-width:2;"/>
<path d="M-226.310 -158.550C-226.310 -165.238 -220.888 -170.660 -214.200 -170.660C-207.512 -170.660 -202.090 -165.238 -202.090 -158.550C-202.090 -151.862 -207.512 -146.440 -214.200 -146.440C-220.888 -146.440 -226.310 -151.862 -226.310 -158.550Z" style="fill:#FFFFFF;fill-opacity:0;stroke:#0000FF;stroke-width:2;"/>
<path d="M-194.040 -158.550C-194.040 -164.233 -189.433 -168.840 -183.750 -168.840C-178.067 -168.840 -173.460 -164.233 -173.460 -158.550C-173.460 -152.867 -178.067 -148.260 -183.750 -148.260C-189.433 -148.260 -194.040 -152.867 -194.040 -158.550Z" style="fill:#FFFFFF;fill-opacity:0;stroke:#0000FF;stroke-width:2;"/>
<path d="M-162.995 -158.550C-162.995 -163.904 -158.654 -168.245 -153.300 -168.245C-147.946 -168.245 -143.605 -163.904 -143.605 -158.550C-143.605 -153.196 -147.946 -148.855 -153.300 -148.855C-158.654 -148.855 -162.995 -153.196 -162.995 -158.550Z" style="fill:#FFFFFF;fill-opacity:0;stroke:#0000FF;stroke-width:2;"/>
<path d="M-132.440 -158.550C-132.440 -163.846 -128.146 -168.140 -122.850 -168.140C-117.554 -168.140 -113.260 -163.846 -113.260 -158.550C-113.260 -153.254 -117.554 -148.960 -122.850 -148.960C-128.146 -148.960 -132.440 -153.254 -132.440 -158.550Z" style="fill:#FFFFFF;fill-opacity:0;stroke:#0000FF;stroke-width:2;"/>
<path d="M-102.095 -158.550C-102.095 -163.904 -97.754 -168.245 -92.400 -168.245C-87.046 -168.245 -82.705 -163.904 -82.705 -158.550C-82.705 -153.196 -87.046 -148.855 -92.400 -148.855C-97.754 -148.855 -102.095 -153.196 -102.095 -158.550Z" style="fill:#FFFFFF;fill-opacity:0;stroke:#0000FF;stroke-width:2;"/>
<path d="M-71.925 -158.550C-71.925 -164.059 -67.459 -168.525 -61.950 -168.525C-56.441 -168.525 -51.975 -164.059 -51.975 -158.550C-51.975 -153.041 -56.441 -148.575 -61.950 -148.575C-67.459 -148.575 -71.925 -153.041 -71.925 -158.550Z" style="fill:#FFFFFF;fill-opacity:0;stroke:#0000FF;stroke-width:2;"/>
<path d="M-45.640 -158.550C-45.640 -166.359 -39.309 -172.690 -31.500 -172.690C-23.691 -172.690 -17.360 -166.359 -17.360 -158.550C-17.360 -150.741 -23.691 -144.410 -31.500 -144.410C-39.309 -144.410 -45.640 -150.741 -45.640 -158.550Z" style="fill:#FFFFFF;fill-opacity:0;stroke:#0000FF;stroke-width:2;"/>
<path d="M-18.340 -158.550C-18.340 -168.099 -10.599 -175.840 -1.050 -175.840C8.499 -175.840 16.240 -168.099 16.240 -158.550C16.240 -149.001 8.499 -141.260 -1.050 -141.260C-10.599 -141.260 -18.340 -149.001 -18.340 -158.550Z" style="fill:#FFFFFF;fill-opacity:0;stroke:#0000FF;stroke-width:2;"/>
<path d="M13.300 -158.550C13.300 -167.442 20.508 -174.650 29.400 -174.650C38.292 -174.650 45.500 -167.442 45.500 -158.550C45.500 -149.658 38.292 -142.450 29.400 -142.450C20.508 -142.450 13.300 -149.658 13.300 -158.550Z" style="fill:#FFFFFF;fill-opacity:0;stroke:#0000FF;stroke-width:2;"/>
<path d="M44.590 -158.550C44.590 -166.978 51.422 -173.810 59.850 -173.810C68.278 -173.810 75.110 -166.978 75.110 -158.550C75.110 -150.122 68.278 -143.290 59.850 -143.290C51.422 -143.290 44.590 -150.122 44.590 -158.550Z" style="fill:#FFFFFF;fill-opacity:0;stroke:#0000FF;stroke-width:2;"/>
<path d="M76.195 -158.550C76.195 -166.340 82.510 -172.655 90.300 -172.655C98.090 -172.655 104.405 -166.340 104.405 -158.550C104.405 -150.760 98.090 -144.445 90.300 -144.445C82.510 -144.445 76.195 -150.760 76.195 -158.550Z" style="fill:#FFFFFF;fill-opacity:0;stroke:#0000FF;stroke-width:2;"/>
<path d="M106.890 -158.550C106.890 -166.205 113.095 -172.410 120.750 -172.410C128.405 -172.410 134.610 -166.205 134.610 -158.550C134.610 -150.895 128.405 -144.690 120.750 -144.690C113.095 -144.690 106.890 -150.895 106.890 -158.550Z" style="fill:#FFFFFF;fill-opacity:0;stroke:#0000FF;stroke-width:2;"/>
<path d="M138.250 -158.550C138.250 -165.702 144.048 -171.500 151.200 -171.500C158.352 -171.500 164.150 -165.702 164.150 -158.550C164.150 -151.398 158.352 -145.600 151.200 -145.600C144.048 -145.600 138.250 -151.398 138.250 -158.550Z" style="fill:#FFFFFF;fill-opacity:0;stroke:#0000FF;stroke-width:2;"/>
<path d="M170.975 -158.550C170.975 -164.446 175.754 -169.225 181.650 -169.225C187.546 -169.225 192.325 -164.446 192.325 -158.550C192.325 -152.654 187.546 -147.875 181.650 -147.875C175.754 -147.875 170.975 -152.654 170.975 -158.550Z" style="fill:#FFFFFF;fill-opacity:0;stroke:#0000FF;stroke-width:2;"/>
<path d="M202.090 -158.550C202.090 -164.078 206.572 -168.560 212.100 -168.560C217.628 -168.560 222.110 -164.078 222.110 -158.550C222.110 -153.022 217.628 -148.540 212.100 -148.540C206.572 -148.540 202.090 -153.022 202.090 -158.550Z" style="fill:#FFFFFF;fill-opacity:0;stroke:#0000FF;stroke-width:2;"/>
<path d="M232.505 -158.550C232.505 -164.098 237.002 -168.595 242.550 -168.595C248.098 -168.595 252.595 -164.098 252.595 -158.550C252.595 -153.002 248.098 -148.505 242.550 -148.505C237.002 -148.505 232.505 -153.002 232.505 -158.550Z" style="fill:#FFFFFF;fill-opacity:0;stroke:#0000FF;stroke-width:2;"/>
<path d="M258.860 -158.550C258.860 -166.359 265.191 -172.690 273 -172.690C280.809 -172.690 287.140 -166.359 287.140 -158.550C287.140 -150.741 280.809 -144.410 273 -144.410C265.191 -144.410 258.860 -150.741 258.860 -158.550Z" style="fill:#FFFFFF;fill-opacity:0;stroke:#0000FF;stroke-width:2;"/>
<path d="M287.175 -158.550C287.175 -167.538 294.462 -174.825 303.450 -174.825C312.438 -174.825 319.725 -167.538 319.725 -158.550C319.725 -149.562 312.438 -142.275 303.450 -142.275C294.462 -142.275 287.175 -149.562 287.175 -158.550Z" style="fill:#FFFFFF;fill-opacity:0;stroke:#0000FF;stroke-width:2;"/>
<path d="M316.820 -158.550C316.820 -167.983 324.467 -175.630 333.900 -175.630C343.333 -175.630 350.980 -167.983 350.980 -158.550C350.980 -149.117 343.333 -141.470 333.900 -141.470C324.467 -141.470 316.820 -149.117 316.820 -158.550Z" style="fill:#FFFFFF;fill-opacity:0;stroke:#0000FF;stroke-width:2;"/>
<path d="M-354.305 -128.100C-354.305 -138.210 -346.110 -146.405 -336 -146.405C-325.890 -146.405 -317.695 -138.210 -317.695 -128.100C-317.695 -117.990 -325.890 -109.795 -336 -109.795C-346.110 -109.795 -354.305 -117.990 -354.305 -128.100Z" style="fill:#FFFFFF;fill-opacity:0;stroke:#0000FF;stroke-width:2;"/>
<path d="M-321.440 -128.100C-321.440 -136.876 -314.326 -143.990 -305.550 -143.990C-296.774 -143.990 -289.660 -136.876 -289.660 -128.100C-289.660 -119.324 -296.774 -112.210 -305.550 -112.210C-314.326 -112.210 -321.440 -119.324 -321.440 -128.100Z" style="fill:#FFFFFF;fill-opacity:0;stroke:#0000FF;stroke-width:2;"/>
<path d="M-289.625 -128.100C-289.625 -136.122 -283.122 -142.625 -275.100 -142.625C-267.078 -142.625 -260.575 -136.122 -260.575 -128.100C-260.575 -120.078 -267.078 -113.575 -275.100 -113.575C-283.122 -113.575 -289.625 -120.078 -289.625 -128.100Z" style="fill:#FFFFFF;fill-opacity:0;stroke:#0000FF;stroke-width:2;"/>
<path d="M-257.250 -128.100C-257.250 -135.059 -251.609 -140.700 -244.650 -140.700C-237.691 -140.700 -232.050 -135.059 -232.050 -128.100C-232.050 -121.141 -237.691 -115.500 -244.650 -115.500C-251.609 -115.500 -257.250 -121.141 -257.250 -128.100Z" style="fill:#FFFFFF;fill-opacity:0;stroke:#0000FF;stroke-width:2;"/>
<path d="M-225.260 -128.100C-225.260 -134.208 -220.308 -139.160 -214.200 -139.160C-208.092 -139.160 -203.140 -134.208 -203.140 -128.100C-203.140 -121.992 -208.092 -117.040 -214.200 -117.040C-220.308 -117.040 -225.260 -121.992 -225.260 -128.100Z" style="fill:#FFFFFF;fill-opacity:0;stroke:#0000FF;stroke-width:2;"/>
<path d="M-193.200 -128.100C-193.200 -133.319 -188.969 -137.550 -183.750 -137.550C-178.531 -137.550 -174.300 -133.319 -174.300 -128.100C-174.300 -122.881 -178.531 -118.650 -183.750 -118.650C-188.969 -118.650 -193.200 -122.881 -193.200 -128.100Z" style="fill:#FFFFFF;fill-opacity:0;stroke:#0000FF;stroke-width:2;"/>
<path d="M-162.680 -128.100C-162.680 -133.280 -158.480 -137.480 -153.300 -137.480C-148.120 -137.480 -143.920 -133.280 -143.920 -128.100C-143.920 -122.920 -148.120 -118.720 -153.300 -118.720C-158.480 -118.720 -162.680 -122.920 -162.680 -128.100Z" style="fill:#FFFFFF;fill-opacity:0;stroke:#0000FF;stroke-width:2;"/>
<path d="M-132.510 -128.100C-132.510 -133.435 -128.185 -137.760 -122.850 -137.760C-117.515 -137.760 -113.190 -133.435 -113.190 -128.100C-113.190 -122.765 -117.515 -118.440 -122.850 -118.440C-128.185 -118.440 -132.510 -122.765 -132.510 -128.100Z" style="fill:#FFFFFF;fill-opacity:0;stroke:#0000FF;stroke-width:2;"/>
<path d="M-103.460 -128.100C-103.460 -134.208 -98.508 -139.160 -92.400 -139.160C-86.292 -139.160 -81.340 -134.208 -81.340 -128.100C-81.340 -121.992 -86.292 -117.040 -92.400 -117.040C-98.508 -117.040 -103.460 -121.992 -103.460 -128.100Z" style="fill:#FFFFFF;fill-opacity:0;stroke:#0000FF;stroke-width:2;"/>
<path d="M-71.330 -128.100C-71.330 -133.280 -67.130 -137.480 -61.950 -137.480C-56.770 -137.480 -52.570 -133.280 -52.570 -128.100C-52.570 -122.920 -56.770 -118.720 -61.950 -118.720C-67.130 -118.720 -71.330 -122.920 -71.330 -128.100Z" style="fill:#FFFFFF;fill-opacity:0;stroke:#0000FF;stroke-width:2;"/>
<path d="M-48.020 -128.100C-48.020 -137.224 -40.624 -144.620 -31.500 -144.620C-22.376 -144.620 -14.980 -137.224 -14.980 -128.100C-14.980 -118.976 -22.376 -111.580 -31.500 -111.580C-40.624 -111.580 -48.020 -118.976 -48.020 -128.100Z" style="fill:#FFFFFF;fill-opacity:0;stroke:#0000FF;stroke-width:2;"/>
<path d="M-19.705 -128.100C-19.705 -138.403 -11.353 -146.755 -1.050 -146.755C9.253 -146.755 17.605 -138.403 17.605 -128.100C17.605 -117.797 9.253 -109.445 -1.050 -109.445C-11.353 -109.445 -19.705 -117.797 -19.705 -128.100Z" style="fill:#FFFFFF;fill-opacity:0;stroke:#0000FF;stroke-width:2;"/>
<path d="M13.265 -128.100C13.265 -137.011 20.489 -144.235 29.400 -144.235C38.311 -144.235 45.535 -137.011 45.535 -128.100C45.535 -119.189 38.311 -111.965 29.400 -111.965C20.489 -111.965 13.265 -119.189 13.265 -128.100Z" style="fill:#FFFFFF;fill-opacity:0;stroke:#0000FF;stroke-width:2;"/>
<path d="M41.720 -128.100C41.720 -138.113 49.837 -146.230 59.850 -146.230C69.863 -146.230 77.980 -138.113 77.980 -128.100C77.980 -118.087 69.863 -109.970 59.850 -109.970C49.837 -109.970 41.720 -118.087 41.720 -128.100Z" style="fill:#FFFFFF;fill-opacity:0;stroke:#0000FF;stroke-width:2;"/>
<path d="M75.460 -128.100C75.460 -136.296 82.104 -142.940 90.300 -142.940C98.496 -142.940 105.140 -136.296 105.140 -128.100C105.140 -119.904 98.496 -113.260 90.300 -113.260C82.104 -113.260 75.460 -119.904 75.460 -128.100Z" style="fill:#FFFFFF;fill-opacity:0;stroke:#0000FF;stroke-width:2;"/>
<path d="M106.540 -128.100C106.540 -135.948 112.902 -142.310 120.750 -142.310C128.598 -142.310 134.960 -135.948 134.960 -128.100C134.960 -120.252 128.598 -113.890 120.750 -113.890C112.902 -113.890 106.540 -120.252 106.540 -128.100Z" style="fill:#FFFFFF;fill-opacity:0;stroke:#0000FF;stroke-width:2;"/>
<path d="M138.355 -128.100C138.355 -135.194 144.106 -140.945 151.200 -140.945C158.294 -140.945 164.045 -135.194 164.045 -128.100C164.045 -121.006 158.294 -115.255 151.200 -115.255C144.106 -115.255 138.355 -121.006 138.355 -128.100Z" style="fill:#FFFFFF;fill-opacity:0;stroke:#0000FF;stroke-width:2;"/>
<path d="M165.200 -128.100C165.200 -137.185 172.565 -144.550 181.650 -144.550C190.735 -144.550 198.100 -137.185 198.100 -128.100C198.100 -119.015 190.735 -111.650 181.650 -111.650C172.565 -111.650 165.200 -119.015 165.200 -128.100Z" style="fill:#FFFFFF;fill-opacity:0;stroke:#0000FF;stroke-width:2;"/>
<path d="M201.880 -128.100C201.880 -133.744 206.456 -138.320 212.100 -138.320C217.744 -138.320 222.320 -133.744 222.320 -128.100C222.320 -122.456 217.744 -117.880 212.100 -117.880C206.456 -117.880 201.880 -122.456 201.880 -128.100Z" style="fill:#FFFFFF;fill-opacity:0;stroke:#0000FF;stroke-width:2;"/>
<path d="M232.435 -128.100C232.435 -133.686 236.964 -138.215 242.550 -138.215C248.136 -138.215 252.665 -133.686 252.665 -128.100C252.665 -122.514 248.136 -117.985 242.550 -117.985C236.964 -117.985 232.435 -122.514 232.435 -128.100Z" style="fill:#FFFFFF;fill-opacity:0;stroke:#0000FF;stroke-width:2;"/>
<path d="M262.815 -128.100C262.815 -133.725 267.375 -138.285 273 -138.285C278.625 -138.285 283.185 -133.725 283.185 -128.100C283.185 -122.475 278.625 -117.915 273 -117.915C267.375 -117.915 262.815 -122.475 262.815 -128.100Z" style="fill:#FFFFFF;fill-opacity:0;stroke:#0000FF;stroke-width:2;"/>
<path d="M294.140 -128.100C294.140 -133.242 298.308 -137.410 303.450 -137.410C308.592 -137.410 312.760 -133.242 312.760 -128.100C312.760 -122.958 308.592 -118.790 303.450 -118.790C298.308 -118.790 294.140 -122.958 294.140 -128.100Z" style="fill:#FFFFFF;fill-opacity:0;stroke:#0000FF;stroke-width:2;"/>
<path d="M316.890 -128.100C316.890 -137.494 324.506 -145.110 333.900 -145.110C343.294 -145.110 350.910 -137.494 350.910 -128.100C350.910 -118.706 343.294 -111.090 333.900 -111.090C324.506 -111.090 316.890 -118.706 316.890 -128.100Z" style="fill:#FFFFFF;fill-opacity:0;stroke:#0000FF;stroke-width:2;"/>
<path d="M-351.575 -97.650C-351.575 -106.252 -344.602 -113.225 -336 -113.225C-327.398 -113.225 -320.425 -106.252 -320.425 -97.650C-320.425 -89.048 -327.398 -82.075 -336 -82.075C-344.602 -82.075 -351.575 -89.048 -351.575 -97.650Z" style="fill:#FFFFFF;fill-opacity:0;stroke:#0000FF;stroke-width:2;"/>
<path d="M-321.650 -97.650C-321.650 -106.542 -314.442 -113.750 -305.550 -113.750C-296.658 -113.750 -289.450 -106.542 -289.450 -97.650C-289.450 -88.758 -296.658 -81.550 -305.550 -81.550C-314.442 -81.550 -321.650 -88.758 -321.650 -97.650Z" style="fill:#FFFFFF;fill-opacity:0;stroke:#0000FF;stroke-width:2;"/>
<path d="M-287.770 -97.650C-287.770 -104.647 -282.097 -110.320 -275.100 -110.320C-268.103 -110.320 -262.430 -104.647 -262.430 -97.650C-262.430 -90.653 -268.103 -84.980 -275.100 -84.980C-282.097 -84.980 -287.770 -90.653 -287.770 -97.650Z" style="fill:#FFFFFF;fill-opacity:0;stroke:#0000FF;stroke-width:2;"/>
<path d="M-257.355 -97.650C-257.355 -104.667 -251.667 -110.355 -244.650 -110.355C-237.633 -110.355 -231.945 -104.667 -231.945 -97.650C-231.945 -90.633 -237.633 -84.945 -244.650 -84.945C-251.667 -84.945 -257.355 -90.633 -257.355 -97.650Z" style="fill:#FFFFFF;fill-opacity:0;stroke:#0000FF;stroke-width:2;"/>
<path d="M-224.875 -97.650C-224.875 -103.546 -220.096 -108.325 -214.200 -108.325C-208.304 -108.325 -203.525 -103.546 -203.525 -97.650C-203.525 -91.754 -208.304 -86.975 -214.200 -86.975C-220.096 -86.975 -224.875 -91.754 -224.875 -97.650Z" style="fill:#FFFFFF;fill-opacity:0;stroke:#0000FF;stroke-width:2;"/>
<path d="M-194.390 -97.650C-194.390 -103.526 -189.626 -108.290 -183.750 -108.290C-177.874 -108.290 -173.110 -103.526 -173.110 -97.650C-173.110 -91.774 -177.874 -87.010 -183.750 -87.010C-189.626 -87.010 -194.390 -91.774 -194.390 -97.650Z" style="fill:#FFFFFF;fill-opacity:0;stroke:#0000FF;stroke-width:2;"/>
<path d="M-163.310 -97.650C-163.310 -103.178 -158.828 -107.660 -153.300 -107.660C-147.772 -107.660 -143.290 -103.178 -143.290 -97.650C-143.290 -92.122 -147.772 -87.640 -153.300 -87.640C-158.828 -87.640 -163.310 -92.122 -163.310 -97.650Z" style="fill:#FFFFFF;fill-opacity:0;stroke:#0000FF;stroke-width:2;"/>
<path d="M-132.370 -97.650C-132.370 -102.908 -128.108 -107.170 -122.850 -107.170C-117.592 -107.170 -113.330 -102.908 -113.330 -97.650C-113.330 -92.392 -117.592 -88.130 -122.850 -88.130C-128.108 -88.130 -132.370 -92.392 -132.370 -97.650Z" style="fill:#FFFFFF;fill-opacity:0;stroke:#0000FF;stroke-width:2;"/>
<path d="M-101.955 -97.650C-101.955 -102.927 -97.677 -107.205 -92.400 -107.205C-87.123 -107.205 -82.845 -102.927 -82.845 -97.650C-82.845 -92.373 -87.123 -88.095 -92.400 -88.095C-97.677 -88.095 -101.955 -92.373 -101.955 -97.650Z" style="fill:#FFFFFF;fill-opacity:0;stroke:#0000FF;stroke-width:2;"/>
<path d="M-72.555 -97.650C-72.555 -103.507 -67.807 -108.255 -61.950 -108.255C-56.093 -108.255 -51.345 -103.507 -51.345 -97.650C-51.345 -91.793 -56.093 -87.045 -61.950 -87.045C-67.807 -87.045 -72.555 -91.793 -72.555 -97.650Z" style="fill:#FFFFFF;fill-opacity:0;stroke:#0000FF;stroke-width:2;"/>
<path d="M-48.090 -97.650C-48.090 -106.812 -40.662 -114.240 -31.500 -114.240C-22.338 -114.240 -14.910 -106.812 -14.910 -97.650C-14.910 -88.488 -22.338 -81.060 -31.500 -81.060C-40.662 -81.060 -48.090 -88.488 -48.090 -97.650Z" style="fill:#FFFFFF;fill-opacity:0;stroke:#0000FF;stroke-width:2;"/>
<path d="M-19.215 -97.650C-19.215 -107.682 -11.082 -115.815 -1.050 -115.815C8.982 -115.815 17.115 -107.682 17.115 -97.650C17.115 -87.618 8.982 -79.485 -1.050 -79.485C-11.082 -79.485 -19.215 -87.618 -19.215 -97.650Z" style="fill:#FFFFFF;fill-opacity:0;stroke:#0000FF;stroke-width:2;"/>
<path d="M12.740 -97.650C12.740 -106.851 20.199 -114.310 29.400 -114.310C38.601 -114.310 46.060 -106.851 46.060 -97.650C46.060 -88.449 38.601 -80.990 29.400 -80.990C20.199 -80.990 12.740 -88.449 12.740 -97.650Z" style="fill:#FFFFFF;fill-opacity:0;stroke:#0000FF;stroke-width:2;"/>
<path d="M42.455 -97.650C42.455 -107.257 50.243 -115.045 59.850 -115.045C69.457 -115.045 77.245 -107.257 77.245 -97.650C77.245 -88.043 69.457 -80.255 59.850 -80.255C50.243 -80.255 42.455 -88.043 42.455 -97.650Z" style="fill:#FFFFFF;fill-opacity:0;stroke:#0000FF;stroke-width:2;"/>
<path d="M74.970 -97.650C74.970 -106.117 81.833 -112.980 90.300 -112.980C98.767 -112.980 105.630 -106.117 105.630 -97.650C105.630 -89.183 98.767 -82.320 90.300 -82.320C81.833 -82.320 74.970 -89.183 74.970 -97.650Z" style="fill:#FFFFFF;fill-opacity:0;stroke:#0000FF;stroke-width:2;"/>
<path d="M106.855 -97.650C106.855 -105.324 113.076 -111.545 120.750 -111.545C128.424 -111.545 134.645 -105.324 134.645 -97.650C134.645 -89.976 128.424 -83.755 120.750 -83.755C113.076 -83.755 106.855 -89.976 106.855 -97.650Z" style="fill:#FFFFFF;fill-opacity:0;stroke:#0000FF;stroke-width:2;"/>
<path d="M138.250 -97.650C138.250 -104.802 144.048 -110.600 151.200 -110.600C158.352 -110.600 164.150 -104.802 164.150 -97.650C164.150 -90.498 158.352 -84.700 151.200 -84.700C144.048 -84.700 138.250 -90.498 138.250 -97.650Z" style="fill:#FFFFFF;fill-opacity:0;stroke:#0000FF;stroke-width:2;"/>
<path d="M170.030 -97.650C170.030 -104.068 175.232 -109.270 181.650 -109.270C188.068 -109.270 193.270 -104.068 193.270 -97.650C193.270 -91.232 188.068 -86.030 181.650 -86.030C175.232 -86.030 170.030 -91.232 170.030 -97.650Z" style="fill:#FFFFFF;fill-opacity:0;stroke:#0000FF;stroke-width:2;"/>
<path d="M202.650 -97.650C202.650 -102.869 206.881 -107.100 212.100 -107.100C217.319 -107.100 221.550 -102.869 221.550 -97.650C221.550 -92.431 217.319 -88.200 212.100 -88.200C206.881 -88.200 202.650 -92.431 202.650 -97.650Z" style="fill:#FFFFFF;fill-opacity:0;stroke:#0000FF;stroke-width:2;"/>
<path d="M232.855 -97.650C232.855 -103.004 237.196 -107.345 242.550 -107.345C247.904 -107.345 252.245 -103.004 252.245 -97.650C252.245 -92.296 247.904 -87.955 242.550 -87.955C237.196 -87.955 232.855 -92.296 232.855 -97.650Z" style="fill:#FFFFFF;fill-opacity:0;stroke:#0000FF;stroke-width:2;"/>
<path d="M262.850 -97.650C262.850 -103.256 267.394 -107.800 273 -107.800C278.606 -107.800 283.150 -103.256 283.150 -97.650C283.150 -92.044 278.606 -87.500 273 -87.500C267.394 -87.500 262.850 -92.044 262.850 -97.650Z" style="fill:#FFFFFF;fill-opacity:0;stroke:#0000FF;stroke-width:2;"/>
<path d="M293.685 -97.650C293.685 -103.043 298.057 -107.415 303.450 -107.415C308.843 -107.415 313.215 -103.043 313.215 -97.650C313.215 -92.257 308.843 -87.885 303.450 -87.885C298.057 -87.885 293.685 -92.257 293.685 -97.650Z" style="fill:#FFFFFF;fill-opacity:0;stroke:#0000FF;stroke-width:2;"/>
<path d="M317.625 -97.650C317.625 -106.638 324.912 -113.925 333.900 -113.925C342.888 -113.925 350.175 -106.638 350.175 -97.650C350.175 -88.662 342.888 -81.375 333.900 -81.375C324.912 -81.375 317.625 -88.662 317.625 -97.650Z" style="fill:#FFFFFF;fill-opacity:0;stroke:#0000FF;stroke-width:2;"/>
<path d="M-348.040 -67.200C-348.040 -73.850 -342.650 -79.240 -336 -79.240C-329.350 -79.240 -323.960 -73.850 -323.960 -67.200C-323.960 -60.550 -329.350 -55.160 -336 -55.160C-342.650 -55.160 -348.040 -60.550 -348.040 -67.200Z" style="fill:#FFFFFF;fill-opacity:0;stroke:#0000FF;stroke-width:2;"/>
<path d="M-320.355 -67.200C-320.355 -75.377 -313.727 -82.005 -305.550 -82.005C-297.373 -82.005 -290.745 -75.377 -290.745 -67.200C-290.745 -59.023 -297.373 -52.395 -305.550 -52.395C-313.727 -52.395 -320.355 -59.023 -320.355 -67.200Z" style="fill:#FFFFFF;fill-opacity:0;stroke:#0000FF;stroke-width:2;"/>
<path d="M-288.120 -67.200C-288.120 -74.391 -282.291 -80.220 -275.100 -80.220C-267.909 -80.220 -262.080 -74.391 -262.080 -67.200C-262.080 -60.009 -267.909 -54.180 -275.100 -54.180C-282.291 -54.180 -288.120 -60.009 -288.120 -67.200Z" style="fill:#FFFFFF;fill-opacity:0;stroke:#0000FF;stroke-width:2;"/>
<path d="M-257.915 -67.200C-257.915 -74.526 -251.976 -80.465 -244.650 -80.465C-237.324 -80.465 -231.385 -74.526 -231.385 -67.200C-231.385 -59.874 -237.324 -53.935 -244.650 -53.935C-251.976 -53.935 -257.915 -59.874 -257.915 -67.200Z" style="fill:#FFFFFF;fill-opacity:0;stroke:#0000FF;stroke-width:2;"/>
<path d="M-226.310 -67.200C-226.310 -73.888 -220.888 -79.310 -214.200 -79.310C-207.512 -79.310 -202.090 -73.888 -202.090 -67.200C-202.090 -60.512 -207.512 -55.090 -214.200 -55.090C-220.888 -55.090 -226.310 -60.512 -226.310 -67.200Z" style="fill:#FFFFFF;fill-opacity:0;stroke:#0000FF;stroke-width:2;"/>
<path d="M-194.950 -67.200C-194.950 -73.386 -189.936 -78.400 -183.750 -78.400C-177.564 -78.400 -172.550 -73.386 -172.550 -67.200C-172.550 -61.014 -177.564 -56 -183.750 -56C-189.936 -56 -194.950 -61.014 -194.950 -67.200Z" style="fill:#FFFFFF;fill-opacity:0;stroke:#0000FF;stroke-width:2;"/>
<path d="M-163.765 -67.200C-163.765 -72.980 -159.080 -77.665 -153.300 -77.665C-147.520 -77.665 -142.835 -72.980 -142.835 -67.200C-142.835 -61.420 -147.520 -56.735 -153.300 -56.735C-159.080 -56.735 -163.765 -61.420 -163.765 -67.200Z" style="fill:#FFFFFF;fill-opacity:0;stroke:#0000FF;stroke-width:2;"/>
<path d="M-133.140 -67.200C-133.140 -72.883 -128.533 -77.490 -122.850 -77.490C-117.167 -77.490 -112.560 -72.883 -112.560 -67.200C-112.560 -61.517 -117.167 -56.910 -122.850 -56.910C-128.533 -56.910 -133.140 -61.517 -133.140 -67.200Z" style="fill:#FFFFFF;fill-opacity:0;stroke:#0000FF;stroke-width:2;"/>
<path d="M-102.305 -67.200C-102.305 -72.670 -97.870 -77.105 -92.400 -77.105C-86.930 -77.105 -82.495 -72.670 -82.495 -67.200C-82.495 -61.730 -86.930 -57.295 -92.400 -57.295C-97.870 -57.295 -102.305 -61.730 -102.305 -67.200Z" style="fill:#FFFFFF;fill-opacity:0;stroke:#0000FF;stroke-width:2;"/>
<path d="M-73.045 -67.200C-73.045 -73.328 -68.078 -78.295 -61.950 -78.295C-55.822 -78.295 -50.855 -73.328 -50.855 -67.200C-50.855 -61.072 -55.822 -56.105 -61.950 -56.105C-68.078 -56.105 -73.045 -61.072 -73.045 -67.200Z" style="fill:#FFFFFF;fill-opacity:0;stroke:#0000FF;stroke-width:2;"/>
<path d="M-45.535 -67.200C-45.535 -74.951 -39.251 -81.235 -31.500 -81.235C-23.749 -81.235 -17.465 -74.951 -17.465 -67.200C-17.465 -59.449 -23.749 -53.165 -31.500 -53.165C-39.251 -53.165 -45.535 -59.449 -45.535 -67.200Z" style="fill:#FFFFFF;fill-opacity:0;stroke:#0000FF;stroke-width:2;"/>
<path d="M-19.670 -67.200C-19.670 -77.484 -11.334 -85.820 -1.050 -85.820C9.234 -85.820 17.570 -77.484 17.570 -67.200C17.570 -56.916 9.234 -48.580 -1.050 -48.580C-11.334 -48.580 -19.670 -56.916 -19.670 -67.200Z" style="fill:#FFFFFF;fill-opacity:0;stroke:#0000FF;stroke-width:2;"/>
<path d="M12.250 -67.200C12.250 -76.672 19.928 -84.350 29.400 -84.350C38.872 -84.350 46.550 -76.672 46.550 -67.200C46.550 -57.728 38.872 -50.050 29.400 -50.050C19.928 -50.050 12.250 -57.728 12.250 -67.200Z" style="fill:#FFFFFF;fill-opacity:0;stroke:#0000FF;stroke-width:2;"/>
<path d="M44.030 -67.200C44.030 -75.937 51.113 -83.020 59.850 -83.020C68.587 -83.020 75.670 -75.937 75.670 -67.200C75.670 -58.463 68.587 -51.380 59.850 -51.380C51.113 -51.380 44.030 -58.463 44.030 -67.200Z" style="fill:#FFFFFF;fill-opacity:0;stroke:#0000FF;stroke-width:2;"/>
<path d="M75.565 -67.200C75.565 -75.338 82.162 -81.935 90.300 -81.935C98.438 -81.935 105.035 -75.338 105.035 -67.200C105.035 -59.062 98.438 -52.465 90.300 -52.465C82.162 -52.465 75.565 -59.062 75.565 -67.200Z" style="fill:#FFFFFF;fill-opacity:0;stroke:#0000FF;stroke-width:2;"/>
<path d="M107.030 -67.200C107.030 -74.777 113.173 -80.920 120.750 -80.920C128.327 -80.920 134.470 -74.777 134.470 -67.200C134.470 -59.623 128.327 -53.480 120.750 -53.480C113.173 -53.480 107.030 -59.623 107.030 -67.200Z" style="fill:#FFFFFF;fill-opacity:0;stroke:#0000FF;stroke-width:2;"/>
<path d="M138.705 -67.200C138.705 -74.101 144.299 -79.695 151.200 -79.695C158.101 -79.695 163.695 -74.101 163.695 -67.200C163.695 -60.299 158.101 -54.705 151.200 -54.705C144.299 -54.705 138.705 -60.299 138.705 -67.200Z" style="fill:#FFFFFF;fill-opacity:0;stroke:#0000FF;stroke-width:2;"/>
<path d="M170.485 -67.200C170.485 -73.366 175.484 -78.365 181.650 -78.365C187.816 -78.365 192.815 -73.366 192.815 -67.200C192.815 -61.034 187.816 -56.035 181.650 -56.035C175.484 -56.035 170.485 -61.034 170.485 -67.200Z" style="fill:#FFFFFF;fill-opacity:0;stroke:#0000FF;stroke-width:2;"/>
<path d="M202.860 -67.200C202.860 -72.303 206.997 -76.440 212.100 -76.440C217.203 -76.440 221.340 -72.303 221.340 -67.200C221.340 -62.097 217.203 -57.960 212.100 -57.960C206.997 -57.960 202.860 -62.097 202.860 -67.200Z" style="fill:#FFFFFF;fill-opacity:0;stroke:#0000FF;stroke-width:2;"/>
<path d="M232.855 -67.200C232.855 -72.554 237.196 -76.895 242.550 -76.895C247.904 -76.895 252.245 -72.554 252.245 -67.200C252.245 -61.846 247.904 -57.505 242.550 -57.505C237.196 -57.505 232.855 -61.846 232.855 -67.200Z" style="fill:#FFFFFF;fill-opacity:0;stroke:#0000FF;stroke-width:2;"/>
<path d="M262.850 -67.200C262.850 -72.806 267.394 -77.350 273 -77.350C278.606 -77.350 283.150 -72.806 283.150 -67.200C283.150 -61.594 278.606 -57.050 273 -57.050C267.394 -57.050 262.850 -61.594 262.850 -67.200Z" style="fill:#FFFFFF;fill-opacity:0;stroke:#0000FF;stroke-width:2;"/>
<path d="M286.055 -67.200C286.055 -76.807 293.843 -84.595 303.450 -84.595C313.057 -84.595 320.845 -76.807 320.845 -67.200C320.845 -57.593 313.057 -49.805 303.450 -49.805C293.843 -49.805 286.055 -57.593 286.055 -67.200Z" style="fill:#FFFFFF;fill-opacity:0;stroke:#0000FF;stroke-width:2;"/>
<path d="M321.930 -67.200C321.930 -73.811 327.289 -79.170 333.900 -79.170C340.511 -79.170 345.870 -73.811 345.870 -67.200C345.870 -60.589 340.511 -55.230 333.900 -55.230C327.289 -55.230 321.930 -60.589 321.930 -67.200Z" style="fill:#FFFFFF;fill-opacity:0;stroke:#0000FF;stroke-width:2;"/>
<path d="M-348.075 -36.750C-348.075 -43.419 -342.669 -48.825 -336 -48.825C-329.331 -48.825 -323.925 -43.419 -323.925 -36.750C-323.925 -30.081 -329.331 -24.675 -336 -24.675C-342.669 -24.675 -348.075 -30.081 -348.075 -36.750Z" style="fill:#FFFFFF;fill-opacity:0;stroke:#0000FF;stroke-width:2;"/>
<path d="M-322.245 -36.750C-322.245 -45.970 -314.770 -53.445 -305.550 -53.445C-296.330 -53.445 -288.855 -45.970 -288.855 -36.750C-288.855 -27.530 -296.330 -20.055 -305.550 -20.055C-314.770 -20.055 -322.245 -27.530 -322.245 -36.750Z" style="fill:#FFFFFF;fill-opacity:0;stroke:#0000FF;stroke-width:2;"/>
<path d="M-291.165 -36.750C-291.165 -45.622 -283.972 -52.815 -275.100 -52.815C-266.228 -52.815 -259.035 -45.622 -259.035 -36.750C-259.035 -27.878 -266.228 -20.685 -275.100 -20.685C-283.972 -20.685 -291.165 -27.878 -291.165 -36.750Z" style="fill:#FFFFFF;fill-opacity:0;stroke:#0000FF;stroke-width:2;"/>
<path d="M-258.545 -36.750C-258.545 -44.424 -252.324 -50.645 -244.650 -50.645C-236.976 -50.645 -230.755 -44.424 -230.755 -36.750C-230.755 -29.076 -236.976 -22.855 -244.650 -22.855C-252.324 -22.855 -258.545 -29.076 -258.545 -36.750Z" style="fill:#FFFFFF;fill-opacity:0;stroke:#0000FF;stroke-width:2;"/>
<path d="M-227.395 -36.750C-227.395 -44.037 -221.487 -49.945 -214.200 -49.945C-206.913 -49.945 -201.005 -44.037 -201.005 -36.750C-201.005 -29.463 -206.913 -23.555 -214.200 -23.555C-221.487 -23.555 -227.395 -29.463 -227.395 -36.750Z" style="fill:#FFFFFF;fill-opacity:0;stroke:#0000FF;stroke-width:2;"/>
<path d="M-195.790 -36.750C-195.790 -43.400 -190.400 -48.790 -183.750 -48.790C-177.100 -48.790 -171.710 -43.400 -171.710 -36.750C-171.710 -30.100 -177.100 -24.710 -183.750 -24.710C-190.400 -24.710 -195.790 -30.100 -195.790 -36.750Z" style="fill:#FFFFFF;fill-opacity:0;stroke:#0000FF;stroke-width:2;"/>
<path d="M-163.730 -36.750C-163.730 -42.510 -159.060 -47.180 -153.300 -47.180C-147.540 -47.180 -142.870 -42.510 -142.870 -36.750C-142.870 -30.990 -147.540 -26.320 -153.300 -26.320C-159.060 -26.320 -163.730 -30.990 -163.730 -36.750Z" style="fill:#FFFFFF;fill-opacity:0;stroke:#0000FF;stroke-width:2;"/>
<path d="M-133.105 -36.750C-133.105 -42.414 -128.514 -47.005 -122.850 -47.005C-117.186 -47.005 -112.595 -42.414 -112.595 -36.750C-112.595 -31.086 -117.186 -26.495 -122.850 -26.495C-128.514 -26.495 -133.105 -31.086 -133.105 -36.750Z" style="fill:#FFFFFF;fill-opacity:0;stroke:#0000FF;stroke-width:2;"/>
<path d="M-102.445 -36.750C-102.445 -42.298 -97.948 -46.795 -92.400 -46.795C-86.852 -46.795 -82.355 -42.298 -82.355 -36.750C-82.355 -31.202 -86.852 -26.705 -92.400 -26.705C-97.948 -26.705 -102.445 -31.202 -102.445 -36.750Z" style="fill:#FFFFFF;fill-opacity:0;stroke:#0000FF;stroke-width:2;"/>
<path d="M-71.960 -36.750C-71.960 -42.278 -67.478 -46.760 -61.950 -46.760C-56.422 -46.760 -51.940 -42.278 -51.940 -36.750C-51.940 -31.222 -56.422 -26.740 -61.950 -26.740C-67.478 -26.740 -71.960 -31.222 -71.960 -36.750Z" style="fill:#FFFFFF;fill-opacity:0;stroke:#0000FF;stroke-width:2;"/>
<path d="M-44.205 -36.750C-44.205 -43.767 -38.517 -49.455 -31.500 -49.455C-24.483 -49.455 -18.795 -43.767 -18.795 -36.750C-18.795 -29.733 -24.483 -24.045 -31.500 -24.045C-38.517 -24.045 -44.205 -29.733 -44.205 -36.750Z" style="fill:#FFFFFF;fill-opacity:0;stroke:#0000FF;stroke-width:2;"/>
<path d="M-19.635 -36.750C-19.635 -47.014 -11.314 -55.335 -1.050 -55.335C9.214 -55.335 17.535 -47.014 17.535 -36.750C17.535 -26.486 9.214 -18.165 -1.050 -18.165C-11.314 -18.165 -19.635 -26.486 -19.635 -36.750Z" style="fill:#FFFFFF;fill-opacity:0;stroke:#0000FF;stroke-width:2;"/>
<path d="M12.460 -36.750C12.460 -46.106 20.044 -53.690 29.400 -53.690C38.756 -53.690 46.340 -46.106 46.340 -36.750C46.340 -27.394 38.756 -19.810 29.400 -19.810C20.044 -19.810 12.460 -27.394 12.460 -36.750Z" style="fill:#FFFFFF;fill-opacity:0;stroke:#0000FF;stroke-width:2;"/>
<path d="M44.240 -36.750C44.240 -45.371 51.229 -52.360 59.850 -52.360C68.471 -52.360 75.460 -45.371 75.460 -36.750C75.460 -28.129 68.471 -21.140 59.850 -21.140C51.229 -21.140 44.240 -28.129 44.240 -36.750Z" style="fill:#FFFFFF;fill-opacity:0;stroke:#0000FF;stroke-width:2;"/>
<path d="M75.320 -36.750C75.320 -45.023 82.027 -51.730 90.300 -51.730C98.573 -51.730 105.280 -45.023 105.280 -36.750C105.280 -28.477 98.573 -21.770 90.300 -21.770C82.027 -21.770 75.320 -28.477 75.320 -36.750Z" style="fill:#FFFFFF;fill-opacity:0;stroke:#0000FF;stroke-width:2;"/>
<path d="M107.135 -36.750C107.135 -44.269 113.231 -50.365 120.750 -50.365C128.269 -50.365 134.365 -44.269 134.365 -36.750C134.365 -29.231 128.269 -23.135 120.750 -23.135C113.231 -23.135 107.135 -29.231 107.135 -36.750Z" style="fill:#FFFFFF;fill-opacity:0;stroke:#0000FF;stroke-width:2;"/>
<path d="M139.475 -36.750C139.475 -43.226 144.724 -48.475 151.200 -48.475C157.676 -48.475 162.925 -43.226 162.925 -36.750C162.925 -30.274 157.676 -25.025 151.200 -25.025C144.724 -25.025 139.475 -30.274 139.475 -36.750Z" style="fill:#FFFFFF;fill-opacity:0;stroke:#0000FF;stroke-width:2;"/>
<path d="M171.360 -36.750C171.360 -42.433 175.967 -47.040 181.650 -47.040C187.333 -47.040 191.940 -42.433 191.940 -36.750C191.940 -31.067 187.333 -26.460 181.650 -26.460C175.967 -26.460 171.360 -31.067 171.360 -36.750Z" style="fill:#FFFFFF;fill-opacity:0;stroke:#0000FF;stroke-width:2;"/>
<path d="M202.685 -36.750C202.685 -41.950 206.900 -46.165 212.100 -46.165C217.300 -46.165 221.515 -41.950 221.515 -36.750C221.515 -31.550 217.300 -27.335 212.100 -27.335C206.900 -27.335 202.685 -31.550 202.685 -36.750Z" style="fill:#FFFFFF;fill-opacity:0;stroke:#0000FF;stroke-width:2;"/>
<path d="M232.960 -36.750C232.960 -42.046 237.254 -46.340 242.550 -46.340C247.846 -46.340 252.140 -42.046 252.140 -36.750C252.140 -31.454 247.846 -27.160 242.550 -27.160C237.254 -27.160 232.960 -31.454 232.960 -36.750Z" style="fill:#FFFFFF;fill-opacity:0;stroke:#0000FF;stroke-width:2;"/>
<path d="M256.550 -36.750C256.550 -45.835 263.915 -53.200 273 -53.200C282.085 -53.200 289.450 -45.835 289.450 -36.750C289.450 -27.665 282.085 -20.300 273 -20.300C263.915 -20.300 256.550 -27.665 256.550 -36.750Z" style="fill:#FFFFFF;fill-opacity:0;stroke:#0000FF;stroke-width:2;"/>
<path d="M289.275 -36.750C289.275 -44.579 295.621 -50.925 303.450 -50.925C311.279 -50.925 317.625 -44.579 317.625 -36.750C317.625 -28.921 311.279 -22.575 303.450 -22.575C295.621 -22.575 289.275 -28.921 289.275 -36.750Z" style="fill:#FFFFFF;fill-opacity:0;stroke:#0000FF;stroke-width:2;"/>
<path d="M319.900 -36.750C319.900 -44.482 326.168 -50.750 333.900 -50.750C341.632 -50.750 347.900 -44.482 347.900 -36.750C347.900 -29.018 341.632 -22.750 333.900 -22.750C326.168 -22.750 319.900 -29.018 319.900 -36.750Z" style="fill:#FFFFFF;fill-opacity:0;stroke:#0000FF;stroke-width:2;"/>
<path d="M-341.670 -6.300C-341.670 -9.431 -339.131 -11.970 -336 -11.970C-332.869 -11.970 -330.330 -9.431 -330.330 -6.300C-330.330 -3.169 -332.869 -0.630 -336 -0.630C-339.131 -0.630 -341.670 -3.169 -341.670 -6.300Z" style="fill:#FFFFFF;fill-opacity:0;stroke:#0000FF;stroke-width:2;"/>
<path d="M-321.580 -6.300C-321.580 -15.153 -314.403 -22.330 -305.550 -22.330C-296.697 -22.330 -289.520 -15.153 -289.520 -6.300C-289.520 2.553 -296.697 9.730 -305.550 9.730C-314.403 9.730 -321.580 2.553 -321.580 -6.300Z" style="fill:#FFFFFF;fill-opacity:0;stroke:#0000FF;stroke-width:2;"/>
<path d="M-291.235 -6.300C-291.235 -15.211 -284.011 -22.435 -275.100 -22.435C-266.189 -22.435 -258.965 -15.211 -258.965 -6.300C-258.965 2.611 -266.189 9.835 -275.100 9.835C-284.011 9.835 -291.235 2.611 -291.235 -6.300Z" style="fill:#FFFFFF;fill-opacity:0;stroke:#0000FF;stroke-width:2;"/>
<path d="M-259.665 -6.300C-259.665 -14.593 -252.943 -21.315 -244.650 -21.315C-236.357 -21.315 -229.635 -14.593 -229.635 -6.300C-229.635 1.993 -236.357 8.715 -244.650 8.715C-252.943 8.715 -259.665 1.993 -259.665 -6.300Z" style="fill:#FFFFFF;fill-opacity:0;stroke:#0000FF;stroke-width:2;"/>
<path d="M-227.675 -6.300C-227.675 -13.742 -221.642 -19.775 -214.200 -19.775C-206.758 -19.775 -200.725 -13.742 -200.725 -6.300C-200.725 1.142 -206.758 7.175 -214.200 7.175C-221.642 7.175 -227.675 1.142 -227.675 -6.300Z" style="fill:#FFFFFF;fill-opacity:0;stroke:#0000FF;stroke-width:2;"/>
<path d="M-196.350 -6.300C-196.350 -13.259 -190.709 -18.900 -183.750 -18.900C-176.791 -18.900 -171.150 -13.259 -171.150 -6.300C-171.150 0.659 -176.791 6.300 -183.750 6.300C-190.709 6.300 -196.350 0.659 -196.350 -6.300Z" style="fill:#FFFFFF;fill-opacity:0;stroke:#0000FF;stroke-width:2;"/>
<path d="M-163.765 -6.300C-163.765 -12.080 -159.080 -16.765 -153.300 -16.765C-147.520 -16.765 -142.835 -12.080 -142.835 -6.300C-142.835 -0.520 -147.520 4.165 -153.300 4.165C-159.080 4.165 -163.765 -0.520 -163.765 -6.300Z" style="fill:#FFFFFF;fill-opacity:0;stroke:#0000FF;stroke-width:2;"/>
<path d="M-132.965 -6.300C-132.965 -11.886 -128.436 -16.415 -122.850 -16.415C-117.264 -16.415 -112.735 -11.886 -112.735 -6.300C-112.735 -0.714 -117.264 3.815 -122.850 3.815C-128.436 3.815 -132.965 -0.714 -132.965 -6.300Z" style="fill:#FFFFFF;fill-opacity:0;stroke:#0000FF;stroke-width:2;"/>
<path d="M-102.550 -6.300C-102.550 -11.906 -98.006 -16.450 -92.400 -16.450C-86.794 -16.450 -82.250 -11.906 -82.250 -6.300C-82.250 -0.694 -86.794 3.850 -92.400 3.850C-98.006 3.850 -102.550 -0.694 -102.550 -6.300Z" style="fill:#FFFFFF;fill-opacity:0;stroke:#0000FF;stroke-width:2;"/>
<path d="M-71.925 -6.300C-71.925 -11.809 -67.459 -16.275 -61.950 -16.275C-56.441 -16.275 -51.975 -11.809 -51.975 -6.300C-51.975 -0.791 -56.441 3.675 -61.950 3.675C-67.459 3.675 -71.925 -0.791 -71.925 -6.300Z" style="fill:#FFFFFF;fill-opacity:0;stroke:#0000FF;stroke-width:2;"/>
<path d="M-42.875 -6.300C-42.875 -12.582 -37.782 -17.675 -31.500 -17.675C-25.218 -17.675 -20.125 -12.582 -20.125 -6.300C-20.125 -0.018 -25.218 5.075 -31.500 5.075C-37.782 5.075 -42.875 -0.018 -42.875 -6.300Z" style="fill:#FFFFFF;fill-opacity:0;stroke:#0000FF;stroke-width:2;"/>
<path d="M-15.050 -6.300C-15.050 -14.032 -8.782 -20.300 -1.050 -20.300C6.682 -20.300 12.950 -14.032 12.950 -6.300C12.950 1.432 6.682 7.700 -1.050 7.700C-8.782 7.700 -15.050 1.432 -15.050 -6.300Z" style="fill:#FFFFFF;fill-opacity:0;stroke:#0000FF;stroke-width:2;"/>
<path d="M12.320 -6.300C12.320 -15.733 19.967 -23.380 29.400 -23.380C38.833 -23.380 46.480 -15.733 46.480 -6.300C46.480 3.133 38.833 10.780 29.400 10.780C19.967 10.780 12.320 3.133 12.320 -6.300Z" style="fill:#FFFFFF;fill-opacity:0;stroke:#0000FF;stroke-width:2;"/>
<path d="M43.890 -6.300C43.890 -15.114 51.036 -22.260 59.850 -22.260C68.664 -22.260 75.810 -15.114 75.810 -6.300C75.810 2.514 68.664 9.660 59.850 9.660C51.036 9.660 43.890 2.514 43.890 -6.300Z" style="fill:#FFFFFF;fill-opacity:0;stroke:#0000FF;stroke-width:2;"/>
<path d="M75.565 -6.300C75.565 -14.438 82.162 -21.035 90.300 -21.035C98.438 -21.035 105.035 -14.438 105.035 -6.300C105.035 1.838 98.438 8.435 90.300 8.435C82.162 8.435 75.565 1.838 75.565 -6.300Z" style="fill:#FFFFFF;fill-opacity:0;stroke:#0000FF;stroke-width:2;"/>
<path d="M107.870 -6.300C107.870 -13.413 113.637 -19.180 120.750 -19.180C127.863 -19.180 133.630 -13.413 133.630 -6.300C133.630 0.813 127.863 6.580 120.750 6.580C113.637 6.580 107.870 0.813 107.870 -6.300Z" style="fill:#FFFFFF;fill-opacity:0;stroke:#0000FF;stroke-width:2;"/>
<path d="M139.475 -6.300C139.475 -12.776 144.724 -18.025 151.200 -18.025C157.676 -18.025 162.925 -12.776 162.925 -6.300C162.925 0.176 157.676 5.425 151.200 5.425C144.724 5.425 139.475 0.176 139.475 -6.300Z" style="fill:#FFFFFF;fill-opacity:0;stroke:#0000FF;stroke-width:2;"/>
<path d="M172.060 -6.300C172.060 -11.596 176.354 -15.890 181.650 -15.890C186.946 -15.890 191.240 -11.596 191.240 -6.300C191.240 -1.004 186.946 3.290 181.650 3.290C176.354 3.290 172.060 -1.004 172.060 -6.300Z" style="fill:#FFFFFF;fill-opacity:0;stroke:#0000FF;stroke-width:2;"/>
<path d="M201.635 -6.300C201.635 -12.080 206.320 -16.765 212.100 -16.765C217.880 -16.765 222.565 -12.080 222.565 -6.300C222.565 -0.520 217.880 4.165 212.100 4.165C206.320 4.165 201.635 -0.520 201.635 -6.300Z" style="fill:#FFFFFF;fill-opacity:0;stroke:#0000FF;stroke-width:2;"/>
<path d="M230.370 -6.300C230.370 -13.027 235.823 -18.480 242.550 -18.480C249.277 -18.480 254.730 -13.027 254.730 -6.300C254.730 0.427 249.277 5.880 242.550 5.880C235.823 5.880 230.370 0.427 230.370 -6.300Z" style="fill:#FFFFFF;fill-opacity:0;stroke:#0000FF;stroke-width:2;"/>
<path d="M256.690 -6.300C256.690 -15.308 263.992 -22.610 273 -22.610C282.008 -22.610 289.310 -15.308 289.310 -6.300C289.310 2.708 282.008 10.010 273 10.010C263.992 10.010 256.690 2.708 256.690 -6.300Z" style="fill:#FFFFFF;fill-opacity:0;stroke:#0000FF;stroke-width:2;"/>
<path d="M288.015 -6.300C288.015 -14.825 294.925 -21.735 303.450 -21.735C311.975 -21.735 318.885 -14.825 318.885 -6.300C318.885 2.225 311.975 9.135 303.450 9.135C294.925 9.135 288.015 2.225 288.015 -6.300Z" style="fill:#FFFFFF;fill-opacity:0;stroke:#0000FF;stroke-width:2;"/>
<path d="M318.990 -6.300C318.990 -14.535 325.665 -21.210 333.900 -21.210C342.135 -21.210 348.810 -14.535 348.810 -6.300C348.810 1.935 342.135 8.610 333.900 8.610C325.665 8.610 318.990 1.935 318.990 -6.300Z" style="fill:#FFFFFF;fill-opacity:0;stroke:#0000FF;stroke-width:2;"/>
<path d="M-342.755 24.150C-342.755 20.419 -339.731 17.395 -336 17.395C-332.269 17.395 -329.245 20.419 -329.245 24.150C-329.245 27.881 -332.269 30.905 -336 30.905C-339.731 30.905 -342.755 27.881 -342.755 24.150Z" style="fill:#FFFFFF;fill-opacity:0;stroke:#0000FF;stroke-width:2;"/>
<path d="M-322.420 24.150C-322.420 14.833 -314.867 7.280 -305.550 7.280C-296.233 7.280 -288.680 14.833 -288.680 24.150C-288.680 33.467 -296.233 41.020 -305.550 41.020C-314.867 41.020 -322.420 33.467 -322.420 24.150Z" style="fill:#FFFFFF;fill-opacity:0;stroke:#0000FF;stroke-width:2;"/>
<path d="M-291.795 24.150C-291.795 14.930 -284.320 7.455 -275.100 7.455C-265.880 7.455 -258.405 14.930 -258.405 24.150C-258.405 33.370 -265.880 40.845 -275.100 40.845C-284.320 40.845 -291.795 33.370 -291.795 24.150Z" style="fill:#FFFFFF;fill-opacity:0;stroke:#0000FF;stroke-width:2;"/>
<path d="M-259.070 24.150C-259.070 16.186 -252.614 9.730 -244.650 9.730C-236.686 9.730 -230.230 16.186 -230.230 24.150C-230.230 32.114 -236.686 38.570 -244.650 38.570C-252.614 38.570 -259.070 32.114 -259.070 24.150Z" style="fill:#FFFFFF;fill-opacity:0;stroke:#0000FF;stroke-width:2;"/>
<path d="M-227.850 24.150C-227.850 16.611 -221.739 10.500 -214.200 10.500C-206.661 10.500 -200.550 16.611 -200.550 24.150C-200.550 31.689 -206.661 37.800 -214.200 37.800C-221.739 37.800 -227.850 31.689 -227.850 24.150Z" style="fill:#FFFFFF;fill-opacity:0;stroke:#0000FF;stroke-width:2;"/>
<path d="M-196.560 24.150C-196.560 17.075 -190.825 11.340 -183.750 11.340C-176.675 11.340 -170.940 17.075 -170.940 24.150C-170.940 31.225 -176.675 36.960 -183.750 36.960C-190.825 36.960 -196.560 31.225 -196.560 24.150Z" style="fill:#FFFFFF;fill-opacity:0;stroke:#0000FF;stroke-width:2;"/>
<path d="M-164.640 24.150C-164.640 17.887 -159.563 12.810 -153.300 12.810C-147.037 12.810 -141.960 17.887 -141.960 24.150C-141.960 30.413 -147.037 35.490 -153.300 35.490C-159.563 35.490 -164.640 30.413 -164.640 24.150Z" style="fill:#FFFFFF;fill-opacity:0;stroke:#0000FF;stroke-width:2;"/>
<path d="M-133 24.150C-133 18.544 -128.456 14 -122.850 14C-117.244 14 -112.700 18.544 -112.700 24.150C-112.700 29.756 -117.244 34.300 -122.850 34.300C-128.456 34.300 -133 29.756 -133 24.150Z" style="fill:#FFFFFF;fill-opacity:0;stroke:#0000FF;stroke-width:2;"/>
<path d="M-105.105 24.150C-105.105 17.133 -99.417 11.445 -92.400 11.445C-85.383 11.445 -79.695 17.133 -79.695 24.150C-79.695 31.167 -85.383 36.855 -92.400 36.855C-99.417 36.855 -105.105 31.167 -105.105 24.150Z" style="fill:#FFFFFF;fill-opacity:0;stroke:#0000FF;stroke-width:2;"/>
<path d="M-72.275 24.150C-72.275 18.448 -67.652 13.825 -61.950 13.825C-56.248 13.825 -51.625 18.448 -51.625 24.150C-51.625 29.852 -56.248 34.475 -61.950 34.475C-67.652 34.475 -72.275 29.852 -72.275 24.150Z" style="fill:#FFFFFF;fill-opacity:0;stroke:#0000FF;stroke-width:2;"/>
<path d="M-42.070 24.150C-42.070 18.312 -37.338 13.580 -31.500 13.580C-25.662 13.580 -20.930 18.312 -20.930 24.150C-20.930 29.988 -25.662 34.720 -31.500 34.720C-37.338 34.720 -42.070 29.988 -42.070 24.150Z" style="fill:#FFFFFF;fill-opacity:0;stroke:#0000FF;stroke-width:2;"/>
<path d="M-11.585 24.150C-11.585 18.332 -6.868 13.615 -1.050 13.615C4.768 13.615 9.485 18.332 9.485 24.150C9.485 29.968 4.768 34.685 -1.050 34.685C-6.868 34.685 -11.585 29.968 -11.585 24.150Z" style="fill:#FFFFFF;fill-opacity:0;stroke:#0000FF;stroke-width:2;"/>
<path d="M17.290 24.150C17.290 17.462 22.712 12.040 29.400 12.040C36.088 12.040 41.510 17.462 41.510 24.150C41.510 30.838 36.088 36.260 29.400 36.260C22.712 36.260 17.290 30.838 17.290 24.150Z" style="fill:#FFFFFF;fill-opacity:0;stroke:#0000FF;stroke-width:2;"/>
<path d="M45.010 24.150C45.010 15.954 51.654 9.310 59.850 9.310C68.046 9.310 74.690 15.954 74.690 24.150C74.690 32.346 68.046 38.990 59.850 38.990C51.654 38.990 45.010 32.346 45.010 24.150Z" style="fill:#FFFFFF;fill-opacity:0;stroke:#0000FF;stroke-width:2;"/>
<path d="M75.705 24.150C75.705 16.089 82.239 9.555 90.300 9.555C98.361 9.555 104.895 16.089 104.895 24.150C104.895 32.211 98.361 38.745 90.300 38.745C82.239 38.745 75.705 32.211 75.705 24.150Z" style="fill:#FFFFFF;fill-opacity:0;stroke:#0000FF;stroke-width:2;"/>
<path d="M108.150 24.150C108.150 17.191 113.791 11.550 120.750 11.550C127.709 11.550 133.350 17.191 133.350 24.150C133.350 31.109 127.709 36.750 120.750 36.750C113.791 36.750 108.150 31.109 108.150 24.150Z" style="fill:#FFFFFF;fill-opacity:0;stroke:#0000FF;stroke-width:2;"/>
<path d="M140.770 24.150C140.770 18.390 145.440 13.720 151.200 13.720C156.960 13.720 161.630 18.390 161.630 24.150C161.630 29.910 156.960 34.580 151.200 34.580C145.440 34.580 140.770 29.910 140.770 24.150Z" style="fill:#FFFFFF;fill-opacity:0;stroke:#0000FF;stroke-width:2;"/>
<path d="M172.095 24.150C172.095 18.873 176.373 14.595 181.650 14.595C186.927 14.595 191.205 18.873 191.205 24.150C191.205 29.427 186.927 33.705 181.650 33.705C176.373 33.705 172.095 29.427 172.095 24.150Z" style="fill:#FFFFFF;fill-opacity:0;stroke:#0000FF;stroke-width:2;"/>
<path d="M200.725 24.150C200.725 17.868 205.818 12.775 212.100 12.775C218.382 12.775 223.475 17.868 223.475 24.150C223.475 30.432 218.382 35.525 212.100 35.525C205.818 35.525 200.725 30.432 200.725 24.150Z" style="fill:#FFFFFF;fill-opacity:0;stroke:#0000FF;stroke-width:2;"/>
<path d="M225.435 24.150C225.435 14.698 233.098 7.035 242.550 7.035C252.002 7.035 259.665 14.698 259.665 24.150C259.665 33.602 252.002 41.265 242.550 41.265C233.098 41.265 225.435 33.602 225.435 24.150Z" style="fill:#FFFFFF;fill-opacity:0;stroke:#0000FF;stroke-width:2;"/>
<path d="M256.270 24.150C256.270 14.910 263.760 7.420 273 7.420C282.240 7.420 289.730 14.910 289.730 24.150C289.730 33.390 282.240 40.880 273 40.880C263.760 40.880 256.270 33.390 256.270 24.150Z" style="fill:#FFFFFF;fill-opacity:0;stroke:#0000FF;stroke-width:2;"/>
<path d="M287.805 24.150C287.805 15.510 294.810 8.505 303.450 8.505C312.090 8.505 319.095 15.510 319.095 24.150C319.095 32.790 312.090 39.795 303.450 39.795C294.810 39.795 287.805 32.790 287.805 24.150Z" style="fill:#FFFFFF;fill-opacity:0;stroke:#0000FF;stroke-width:2;"/>
<path d="M318.885 24.150C318.885 15.857 325.607 9.135 333.900 9.135C342.193 9.135 348.915 15.857 348.915 24.150C348.915 32.443 342.193 39.165 333.900 39.165C325.607 39.165 318.885 32.443 318.885 24.150Z" style="fill:#FFFFFF;fill-opacity:0;stroke:#0000FF;stroke-width:2;"/>
<path d="M-341.915 54.600C-341.915 51.333 -339.267 48.685 -336 48.685C-332.733 48.685 -330.085 51.333 -330.085 54.600C-330.085 57.867 -332.733 60.515 -336 60.515C-339.267 60.515 -341.915 57.867 -341.915 54.600Z" style="fill:#FFFFFF;fill-opacity:0;stroke:#0000FF;stroke-width:2;"/>
<path d="M-322.945 54.600C-322.945 44.993 -315.157 37.205 -305.550 37.205C-295.943 37.205 -288.155 44.993 -288.155 54.600C-288.155 64.207 -295.943 71.995 -305.550 71.995C-315.157 71.995 -322.945 64.207 -322.945 54.600Z" style="fill:#FFFFFF;fill-opacity:0;stroke:#0000FF;stroke-width:2;"/>
<path d="M-290.850 54.600C-290.850 45.902 -283.798 38.850 -275.100 38.850C-266.402 38.850 -259.350 45.902 -259.350 54.600C-259.350 63.298 -266.402 70.350 -275.100 70.350C-283.798 70.350 -290.850 63.298 -290.850 54.600Z" style="fill:#FFFFFF;fill-opacity:0;stroke:#0000FF;stroke-width:2;"/>
<path d="M-259.490 54.600C-259.490 46.404 -252.846 39.760 -244.650 39.760C-236.454 39.760 -229.810 46.404 -229.810 54.600C-229.810 62.796 -236.454 69.440 -244.650 69.440C-252.846 69.440 -259.490 62.796 -259.490 54.600Z" style="fill:#FFFFFF;fill-opacity:0;stroke:#0000FF;stroke-width:2;"/>
<path d="M-228.025 54.600C-228.025 46.965 -221.835 40.775 -214.200 40.775C-206.565 40.775 -200.375 46.965 -200.375 54.600C-200.375 62.235 -206.565 68.425 -214.200 68.425C-221.835 68.425 -228.025 62.235 -228.025 54.600Z" style="fill:#FFFFFF;fill-opacity:0;stroke:#0000FF;stroke-width:2;"/>
<path d="M-196.525 54.600C-196.525 47.545 -190.805 41.825 -183.750 41.825C-176.695 41.825 -170.975 47.545 -170.975 54.600C-170.975 61.655 -176.695 67.375 -183.750 67.375C-190.805 67.375 -196.525 61.655 -196.525 54.600Z" style="fill:#FFFFFF;fill-opacity:0;stroke:#0000FF;stroke-width:2;"/>
<path d="M-164.360 54.600C-164.360 48.492 -159.408 43.540 -153.300 43.540C-147.192 43.540 -142.240 48.492 -142.240 54.600C-142.240 60.708 -147.192 65.660 -153.300 65.660C-159.408 65.660 -164.360 60.708 -164.360 54.600Z" style="fill:#FFFFFF;fill-opacity:0;stroke:#0000FF;stroke-width:2;"/>
<path d="M-133.105 54.600C-133.105 48.936 -128.514 44.345 -122.850 44.345C-117.186 44.345 -112.595 48.936 -112.595 54.600C-112.595 60.264 -117.186 64.855 -122.850 64.855C-128.514 64.855 -133.105 60.264 -133.105 54.600Z" style="fill:#FFFFFF;fill-opacity:0;stroke:#0000FF;stroke-width:2;"/>
<path d="M-102.130 54.600C-102.130 49.226 -97.774 44.870 -92.400 44.870C-87.026 44.870 -82.670 49.226 -82.670 54.600C-82.670 59.974 -87.026 64.330 -92.400 64.330C-97.774 64.330 -102.130 59.974 -102.130 54.600Z" style="fill:#FFFFFF;fill-opacity:0;stroke:#0000FF;stroke-width:2;"/>
<path d="M-75.075 54.600C-75.075 47.351 -69.199 41.475 -61.950 41.475C-54.701 41.475 -48.825 47.351 -48.825 54.600C-48.825 61.849 -54.701 67.725 -61.950 67.725C-69.199 67.725 -75.075 61.849 -75.075 54.600Z" style="fill:#FFFFFF;fill-opacity:0;stroke:#0000FF;stroke-width:2;"/>
<path d="M-41.510 54.600C-41.510 49.072 -37.028 44.590 -31.500 44.590C-25.972 44.590 -21.490 49.072 -21.490 54.600C-21.490 60.128 -25.972 64.610 -31.500 64.610C-37.028 64.610 -41.510 60.128 -41.510 54.600Z" style="fill:#FFFFFF;fill-opacity:0;stroke:#0000FF;stroke-width:2;"/>
<path d="M-11.725 54.600C-11.725 48.704 -6.946 43.925 -1.050 43.925C4.846 43.925 9.625 48.704 9.625 54.600C9.625 60.496 4.846 65.275 -1.050 65.275C-6.946 65.275 -11.725 60.496 -11.725 54.600Z" style="fill:#FFFFFF;fill-opacity:0;stroke:#0000FF;stroke-width:2;"/>
<path d="M21.280 54.600C21.280 50.115 24.915 46.480 29.400 46.480C33.885 46.480 37.520 50.115 37.520 54.600C37.520 59.085 33.885 62.720 29.400 62.720C24.915 62.720 21.280 59.085 21.280 54.600Z" style="fill:#FFFFFF;fill-opacity:0;stroke:#0000FF;stroke-width:2;"/>
<path d="M55.510 54.600C55.510 52.203 57.453 50.260 59.850 50.260C62.247 50.260 64.190 52.203 64.190 54.600C64.190 56.997 62.247 58.940 59.850 58.940C57.453 58.940 55.510 56.997 55.510 54.600Z" style="fill:#FFFFFF;fill-opacity:0;stroke:#0000FF;stroke-width:2;"/>
<path d="M84.315 54.600C84.315 51.295 86.995 48.615 90.300 48.615C93.605 48.615 96.285 51.295 96.285 54.600C96.285 57.905 93.605 60.585 90.300 60.585C86.995 60.585 84.315 57.905 84.315 54.600Z" style="fill:#FFFFFF;fill-opacity:0;stroke:#0000FF;stroke-width:2;"/>
<path d="M114.625 54.600C114.625 51.217 117.367 48.475 120.750 48.475C124.133 48.475 126.875 51.217 126.875 54.600C126.875 57.983 124.133 60.725 120.750 60.725C117.367 60.725 114.625 57.983 114.625 54.600Z" style="fill:#FFFFFF;fill-opacity:0;stroke:#0000FF;stroke-width:2;"/>
<path d="M144.900 54.600C144.900 51.121 147.721 48.300 151.200 48.300C154.679 48.300 157.500 51.121 157.500 54.600C157.500 58.079 154.679 60.900 151.200 60.900C147.721 60.900 144.900 58.079 144.900 54.600Z" style="fill:#FFFFFF;fill-opacity:0;stroke:#0000FF;stroke-width:2;"/>
<path d="M175.735 54.600C175.735 51.333 178.383 48.685 181.650 48.685C184.917 48.685 187.565 51.333 187.565 54.600C187.565 57.867 184.917 60.515 181.650 60.515C178.383 60.515 175.735 57.867 175.735 54.600Z" style="fill:#FFFFFF;fill-opacity:0;stroke:#0000FF;stroke-width:2;"/>
<path d="M198.590 54.600C198.590 47.139 204.639 41.090 212.100 41.090C219.561 41.090 225.610 47.139 225.610 54.600C225.610 62.061 219.561 68.110 212.100 68.110C204.639 68.110 198.590 62.061 198.590 54.600Z" style="fill:#FFFFFF;fill-opacity:0;stroke:#0000FF;stroke-width:2;"/>
<path d="M224.875 54.600C224.875 44.838 232.788 36.925 242.550 36.925C252.312 36.925 260.225 44.838 260.225 54.600C260.225 64.362 252.312 72.275 242.550 72.275C232.788 72.275 224.875 64.362 224.875 54.600Z" style="fill:#FFFFFF;fill-opacity:0;stroke:#0000FF;stroke-width:2;"/>
<path d="M256.025 54.600C256.025 45.225 263.625 37.625 273 37.625C282.375 37.625 289.975 45.225 289.975 54.600C289.975 63.975 282.375 71.575 273 71.575C263.625 71.575 256.025 63.975 256.025 54.600Z" style="fill:#FFFFFF;fill-opacity:0;stroke:#0000FF;stroke-width:2;"/>
<path d="M287.385 54.600C287.385 45.728 294.578 38.535 303.450 38.535C312.322 38.535 319.515 45.728 319.515 54.600C319.515 63.472 312.322 70.665 303.450 70.665C294.578 70.665 287.385 63.472 287.385 54.600Z" style="fill:#FFFFFF;fill-opacity:0;stroke:#0000FF;stroke-width:2;"/>
<path d="M316.750 54.600C316.750 45.128 324.428 37.450 333.900 37.450C343.372 37.450 351.050 45.128 351.050 54.600C351.050 64.072 343.372 71.750 333.900 71.750C324.428 71.750 316.750 64.072 316.750 54.600Z" style="fill:#FFFFFF;fill-opacity:0;stroke:#0000FF;stroke-width:2;"/>
<path d="M-346.640 85.050C-346.640 79.174 -341.876 74.410 -336 74.410C-330.124 74.410 -325.360 79.174 -325.360 85.050C-325.360 90.926 -330.124 95.690 -336 95.690C-341.876 95.690 -346.640 90.926 -346.640 85.050Z" style="fill:#FFFFFF;fill-opacity:0;stroke:#0000FF;stroke-width:2;"/>
<path d="M-319.480 85.050C-319.480 77.357 -313.243 71.120 -305.550 71.120C-297.857 71.120 -291.620 77.357 -291.620 85.050C-291.620 92.743 -297.857 98.980 -305.550 98.980C-313.243 98.980 -319.480 92.743 -319.480 85.050Z" style="fill:#FFFFFF;fill-opacity:0;stroke:#0000FF;stroke-width:2;"/>
<path d="M-289.800 85.050C-289.800 76.931 -283.219 70.350 -275.100 70.350C-266.981 70.350 -260.400 76.931 -260.400 85.050C-260.400 93.169 -266.981 99.750 -275.100 99.750C-283.219 99.750 -289.800 93.169 -289.800 85.050Z" style="fill:#FFFFFF;fill-opacity:0;stroke:#0000FF;stroke-width:2;"/>
<path d="M-259.560 85.050C-259.560 76.815 -252.885 70.140 -244.650 70.140C-236.415 70.140 -229.740 76.815 -229.740 85.050C-229.740 93.285 -236.415 99.960 -244.650 99.960C-252.885 99.960 -259.560 93.285 -259.560 85.050Z" style="fill:#FFFFFF;fill-opacity:0;stroke:#0000FF;stroke-width:2;"/>
<path d="M-228.060 85.050C-228.060 77.395 -221.855 71.190 -214.200 71.190C-206.545 71.190 -200.340 77.395 -200.340 85.050C-200.340 92.705 -206.545 98.910 -214.200 98.910C-221.855 98.910 -228.060 92.705 -228.060 85.050Z" style="fill:#FFFFFF;fill-opacity:0;stroke:#0000FF;stroke-width:2;"/>
<path d="M-196.105 85.050C-196.105 78.227 -190.573 72.695 -183.750 72.695C-176.927 72.695 -171.395 78.227 -171.395 85.050C-171.395 91.873 -176.927 97.405 -183.750 97.405C-190.573 97.405 -196.105 91.873 -196.105 85.050Z" style="fill:#FFFFFF;fill-opacity:0;stroke:#0000FF;stroke-width:2;"/>
<path d="M-164.990 85.050C-164.990 78.594 -159.756 73.360 -153.300 73.360C-146.844 73.360 -141.610 78.594 -141.610 85.050C-141.610 91.506 -146.844 96.740 -153.300 96.740C-159.756 96.740 -164.990 91.506 -164.990 85.050Z" style="fill:#FFFFFF;fill-opacity:0;stroke:#0000FF;stroke-width:2;"/>
<path d="M-132.790 85.050C-132.790 79.560 -128.340 75.110 -122.850 75.110C-117.360 75.110 -112.910 79.560 -112.910 85.050C-112.910 90.540 -117.360 94.990 -122.850 94.990C-128.340 94.990 -132.790 90.540 -132.790 85.050Z" style="fill:#FFFFFF;fill-opacity:0;stroke:#0000FF;stroke-width:2;"/>
<path d="M-101.745 85.050C-101.745 79.889 -97.561 75.705 -92.400 75.705C-87.239 75.705 -83.055 79.889 -83.055 85.050C-83.055 90.211 -87.239 94.395 -92.400 94.395C-97.561 94.395 -101.745 90.211 -101.745 85.050Z" style="fill:#FFFFFF;fill-opacity:0;stroke:#0000FF;stroke-width:2;"/>
<path d="M-72.555 85.050C-72.555 79.193 -67.807 74.445 -61.950 74.445C-56.093 74.445 -51.345 79.193 -51.345 85.050C-51.345 90.907 -56.093 95.655 -61.950 95.655C-67.807 95.655 -72.555 90.907 -72.555 85.050Z" style="fill:#FFFFFF;fill-opacity:0;stroke:#0000FF;stroke-width:2;"/>
<path d="M-42.350 85.050C-42.350 79.058 -37.492 74.200 -31.500 74.200C-25.508 74.200 -20.650 79.058 -20.650 85.050C-20.650 91.042 -25.508 95.900 -31.500 95.900C-37.492 95.900 -42.350 91.042 -42.350 85.050Z" style="fill:#FFFFFF;fill-opacity:0;stroke:#0000FF;stroke-width:2;"/>
<path d="M-12.845 85.050C-12.845 78.536 -7.564 73.255 -1.050 73.255C5.464 73.255 10.745 78.536 10.745 85.050C10.745 91.564 5.464 96.845 -1.050 96.845C-7.564 96.845 -12.845 91.564 -12.845 85.050Z" style="fill:#FFFFFF;fill-opacity:0;stroke:#0000FF;stroke-width:2;"/>
<path d="M20.475 85.050C20.475 80.121 24.471 76.125 29.400 76.125C34.329 76.125 38.325 80.121 38.325 85.050C38.325 89.979 34.329 93.975 29.400 93.975C24.471 93.975 20.475 89.979 20.475 85.050Z" style="fill:#FFFFFF;fill-opacity:0;stroke:#0000FF;stroke-width:2;"/>
<path d="M45.360 85.050C45.360 77.047 51.847 70.560 59.850 70.560C67.853 70.560 74.340 77.047 74.340 85.050C74.340 93.053 67.853 99.540 59.850 99.540C51.847 99.540 45.360 93.053 45.360 85.050Z" style="fill:#FFFFFF;fill-opacity:0;stroke:#0000FF;stroke-width:2;"/>
<path d="M82.740 85.050C82.740 80.875 86.125 77.490 90.300 77.490C94.475 77.490 97.860 80.875 97.860 85.050C97.860 89.225 94.475 92.610 90.300 92.610C86.125 92.610 82.740 89.225 82.740 85.050Z" style="fill:#FFFFFF;fill-opacity:0;stroke:#0000FF;stroke-width:2;"/>
<path d="M113.680 85.050C113.680 81.145 116.845 77.980 120.750 77.980C124.655 77.980 127.820 81.145 127.820 85.050C127.820 88.955 124.655 92.120 120.750 92.120C116.845 92.120 113.680 88.955 113.680 85.050Z" style="fill:#FFFFFF;fill-opacity:0;stroke:#0000FF;stroke-width:2;"/>
<path d="M140.805 85.050C140.805 79.309 145.459 74.655 151.200 74.655C156.941 74.655 161.595 79.309 161.595 85.050C161.595 90.791 156.941 95.445 151.200 95.445C145.459 95.445 140.805 90.791 140.805 85.050Z" style="fill:#FFFFFF;fill-opacity:0;stroke:#0000FF;stroke-width:2;"/>
<path d="M165.550 85.050C165.550 76.158 172.758 68.950 181.650 68.950C190.542 68.950 197.750 76.158 197.750 85.050C197.750 93.942 190.542 101.150 181.650 101.150C172.758 101.150 165.550 93.942 165.550 85.050Z" style="fill:#FFFFFF;fill-opacity:0;stroke:#0000FF;stroke-width:2;"/>
<path d="M194.915 85.050C194.915 75.559 202.609 67.865 212.100 67.865C221.591 67.865 229.285 75.559 229.285 85.050C229.285 94.541 221.591 102.235 212.100 102.235C202.609 102.235 194.915 94.541 194.915 85.050Z" style="fill:#FFFFFF;fill-opacity:0;stroke:#0000FF;stroke-width:2;"/>
<path d="M224.455 85.050C224.455 75.056 232.556 66.955 242.550 66.955C252.544 66.955 260.645 75.056 260.645 85.050C260.645 95.044 252.544 103.145 242.550 103.145C232.556 103.145 224.455 95.044 224.455 85.050Z" style="fill:#FFFFFF;fill-opacity:0;stroke:#0000FF;stroke-width:2;"/>
<path d="M256.130 85.050C256.130 75.733 263.683 68.180 273 68.180C282.317 68.180 289.870 75.733 289.870 85.050C289.870 94.367 282.317 101.920 273 101.920C263.683 101.920 256.130 94.367 256.130 85.050Z" style="fill:#FFFFFF;fill-opacity:0;stroke:#0000FF;stroke-width:2;"/>
<path d="M286.195 85.050C286.195 75.520 293.920 67.795 303.450 67.795C312.980 67.795 320.705 75.520 320.705 85.050C320.705 94.580 312.980 102.305 303.450 102.305C293.920 102.305 286.195 94.580 286.195 85.050Z" style="fill:#FFFFFF;fill-opacity:0;stroke:#0000FF;stroke-width:2;"/>
<path d="M316.995 85.050C316.995 75.714 324.564 68.145 333.900 68.145C343.236 68.145 350.805 75.714 350.805 85.050C350.805 94.386 343.236 101.955 333.900 101.955C324.564 101.955 316.995 94.386 316.995 85.050Z" style="fill:#FFFFFF;fill-opacity:0;stroke:#0000FF;stroke-width:2;"/>
<path d="M-348.775 115.500C-348.775 108.445 -343.055 102.725 -336 102.725C-328.945 102.725 -323.225 108.445 -323.225 115.500C-323.225 122.555 -328.945 128.275 -336 128.275C-343.055 128.275 -348.775 122.555 -348.775 115.500Z" style="fill:#FFFFFF;fill-opacity:0;stroke:#0000FF;stroke-width:2;"/>
<path d="M-319.305 115.500C-319.305 107.903 -313.147 101.745 -305.550 101.745C-297.953 101.745 -291.795 107.903 -291.795 115.500C-291.795 123.097 -297.953 129.255 -305.550 129.255C-313.147 129.255 -319.305 123.097 -319.305 115.500Z" style="fill:#FFFFFF;fill-opacity:0;stroke:#0000FF;stroke-width:2;"/>
<path d="M-290.045 115.500C-290.045 107.246 -283.354 100.555 -275.100 100.555C-266.846 100.555 -260.155 107.246 -260.155 115.500C-260.155 123.754 -266.846 130.445 -275.100 130.445C-283.354 130.445 -290.045 123.754 -290.045 115.500Z" style="fill:#FFFFFF;fill-opacity:0;stroke:#0000FF;stroke-width:2;"/>
<path d="M-259.980 115.500C-259.980 107.033 -253.117 100.170 -244.650 100.170C-236.183 100.170 -229.320 107.033 -229.320 115.500C-229.320 123.967 -236.183 130.830 -244.650 130.830C-253.117 130.830 -259.980 123.967 -259.980 115.500Z" style="fill:#FFFFFF;fill-opacity:0;stroke:#0000FF;stroke-width:2;"/>
<path d="M-228.025 115.500C-228.025 107.865 -221.835 101.675 -214.200 101.675C-206.565 101.675 -200.375 107.865 -200.375 115.500C-200.375 123.135 -206.565 129.325 -214.200 129.325C-221.835 129.325 -228.025 123.135 -228.025 115.500Z" style="fill:#FFFFFF;fill-opacity:0;stroke:#0000FF;stroke-width:2;"/>
<path d="M-196.595 115.500C-196.595 108.406 -190.844 102.655 -183.750 102.655C-176.656 102.655 -170.905 108.406 -170.905 115.500C-170.905 122.594 -176.656 128.345 -183.750 128.345C-190.844 128.345 -196.595 122.594 -196.595 115.500Z" style="fill:#FFFFFF;fill-opacity:0;stroke:#0000FF;stroke-width:2;"/>
<path d="M-164.570 115.500C-164.570 109.276 -159.524 104.230 -153.300 104.230C-147.076 104.230 -142.030 109.276 -142.030 115.500C-142.030 121.724 -147.076 126.770 -153.300 126.770C-159.524 126.770 -164.570 121.724 -164.570 115.500Z" style="fill:#FFFFFF;fill-opacity:0;stroke:#0000FF;stroke-width:2;"/>
<path d="M-133.280 115.500C-133.280 109.740 -128.610 105.070 -122.850 105.070C-117.090 105.070 -112.420 109.740 -112.420 115.500C-112.420 121.260 -117.090 125.930 -122.850 125.930C-128.610 125.930 -133.280 121.260 -133.280 115.500Z" style="fill:#FFFFFF;fill-opacity:0;stroke:#0000FF;stroke-width:2;"/>
<path d="M-104.825 115.500C-104.825 108.638 -99.262 103.075 -92.400 103.075C-85.538 103.075 -79.975 108.638 -79.975 115.500C-79.975 122.362 -85.538 127.925 -92.400 127.925C-99.262 127.925 -104.825 122.362 -104.825 115.500Z" style="fill:#FFFFFF;fill-opacity:0;stroke:#0000FF;stroke-width:2;"/>
<path d="M-74.515 115.500C-74.515 108.561 -68.889 102.935 -61.950 102.935C-55.011 102.935 -49.385 108.561 -49.385 115.500C-49.385 122.439 -55.011 128.065 -61.950 128.065C-68.889 128.065 -74.515 122.439 -74.515 115.500Z" style="fill:#FFFFFF;fill-opacity:0;stroke:#0000FF;stroke-width:2;"/>
<path d="M-42.980 115.500C-42.980 109.160 -37.840 104.020 -31.500 104.020C-25.160 104.020 -20.020 109.160 -20.020 115.500C-20.020 121.840 -25.160 126.980 -31.500 126.980C-37.840 126.980 -42.980 121.840 -42.980 115.500Z" style="fill:#FFFFFF;fill-opacity:0;stroke:#0000FF;stroke-width:2;"/>
<path d="M-11.795 115.500C-11.795 109.566 -6.984 104.755 -1.050 104.755C4.884 104.755 9.695 109.566 9.695 115.500C9.695 121.434 4.884 126.245 -1.050 126.245C-6.984 126.245 -11.795 121.434 -11.795 115.500Z" style="fill:#FFFFFF;fill-opacity:0;stroke:#0000FF;stroke-width:2;"/>
<path d="M16.275 115.500C16.275 108.251 22.151 102.375 29.400 102.375C36.649 102.375 42.525 108.251 42.525 115.500C42.525 122.749 36.649 128.625 29.400 128.625C22.151 128.625 16.275 122.749 16.275 115.500Z" style="fill:#FFFFFF;fill-opacity:0;stroke:#0000FF;stroke-width:2;"/>
<path d="M45.080 115.500C45.080 107.343 51.693 100.730 59.850 100.730C68.007 100.730 74.620 107.343 74.620 115.500C74.620 123.657 68.007 130.270 59.850 130.270C51.693 130.270 45.080 123.657 45.080 115.500Z" style="fill:#FFFFFF;fill-opacity:0;stroke:#0000FF;stroke-width:2;"/>
<path d="M74.340 115.500C74.340 106.686 81.486 99.540 90.300 99.540C99.114 99.540 106.260 106.686 106.260 115.500C106.260 124.314 99.114 131.460 90.300 131.460C81.486 131.460 74.340 124.314 74.340 115.500Z" style="fill:#FFFFFF;fill-opacity:0;stroke:#0000FF;stroke-width:2;"/>
<path d="M105.105 115.500C105.105 106.860 112.110 99.855 120.750 99.855C129.390 99.855 136.395 106.860 136.395 115.500C136.395 124.140 129.390 131.145 120.750 131.145C112.110 131.145 105.105 124.140 105.105 115.500Z" style="fill:#FFFFFF;fill-opacity:0;stroke:#0000FF;stroke-width:2;"/>
<path d="M135.310 115.500C135.310 106.724 142.424 99.610 151.200 99.610C159.976 99.610 167.090 106.724 167.090 115.500C167.090 124.276 159.976 131.390 151.200 131.390C142.424 131.390 135.310 124.276 135.310 115.500Z" style="fill:#FFFFFF;fill-opacity:0;stroke:#0000FF;stroke-width:2;"/>
<path d="M165.900 115.500C165.900 106.802 172.952 99.750 181.650 99.750C190.348 99.750 197.400 106.802 197.400 115.500C197.400 124.198 190.348 131.250 181.650 131.250C172.952 131.250 165.900 124.198 165.900 115.500Z" style="fill:#FFFFFF;fill-opacity:0;stroke:#0000FF;stroke-width:2;"/>
<path d="M194.460 115.500C194.460 105.758 202.358 97.860 212.100 97.860C221.842 97.860 229.740 105.758 229.740 115.500C229.740 125.242 221.842 133.140 212.100 133.140C202.358 133.140 194.460 125.242 194.460 115.500Z" style="fill:#FFFFFF;fill-opacity:0;stroke:#0000FF;stroke-width:2;"/>
<path d="M223.755 115.500C223.755 105.120 232.170 96.705 242.550 96.705C252.930 96.705 261.345 105.120 261.345 115.500C261.345 125.880 252.930 134.295 242.550 134.295C232.170 134.295 223.755 125.880 223.755 115.500Z" style="fill:#FFFFFF;fill-opacity:0;stroke:#0000FF;stroke-width:2;"/>
<path d="M255.185 115.500C255.185 105.661 263.161 97.685 273 97.685C282.839 97.685 290.815 105.661 290.815 115.500C290.815 125.339 282.839 133.315 273 133.315C263.161 133.315 255.185 125.339 255.185 115.500Z" style="fill:#FFFFFF;fill-opacity:0;stroke:#0000FF;stroke-width:2;"/>
<path d="M286.440 115.500C286.440 106.106 294.056 98.490 303.450 98.490C312.844 98.490 320.460 106.106 320.460 115.500C320.460 124.894 312.844 132.510 303.450 132.510C294.056 132.510 286.440 124.894 286.440 115.500Z" style="fill:#FFFFFF;fill-opacity:0;stroke:#0000FF;stroke-width:2;"/>
<path d="M318.080 115.500C318.080 106.763 325.163 99.680 333.900 99.680C342.637 99.680 349.720 106.763 349.720 115.500C349.720 124.237 342.637 131.320 333.900 131.320C325.163 131.320 318.080 124.237 318.080 115.500Z" style="fill:#FFFFFF;fill-opacity:0;stroke:#0000FF;stroke-width:2;"/>
<path d="M-349.055 145.950C-349.055 138.740 -343.210 132.895 -336 132.895C-328.790 132.895 -322.945 138.740 -322.945 145.950C-322.945 153.160 -328.790 159.005 -336 159.005C-343.210 159.005 -349.055 153.160 -349.055 145.950Z" style="fill:#FFFFFF;fill-opacity:0;stroke:#0000FF;stroke-width:2;"/>
<path d="M-320.250 145.950C-320.250 137.831 -313.669 131.250 -305.550 131.250C-297.431 131.250 -290.850 137.831 -290.850 145.950C-290.850 154.069 -297.431 160.650 -305.550 160.650C-313.669 160.650 -320.250 154.069 -320.250 145.950Z" style="fill:#FFFFFF;fill-opacity:0;stroke:#0000FF;stroke-width:2;"/>
<path d="M-289.240 145.950C-289.240 138.141 -282.909 131.810 -275.100 131.810C-267.291 131.810 -260.960 138.141 -260.960 145.950C-260.960 153.759 -267.291 160.090 -275.100 160.090C-282.909 160.090 -289.240 153.759 -289.240 145.950Z" style="fill:#FFFFFF;fill-opacity:0;stroke:#0000FF;stroke-width:2;"/>
<path d="M-259.700 145.950C-259.700 137.638 -252.962 130.900 -244.650 130.900C-236.338 130.900 -229.600 137.638 -229.600 145.950C-229.600 154.262 -236.338 161 -244.650 161C-252.962 161 -259.700 154.262 -259.700 145.950Z" style="fill:#FFFFFF;fill-opacity:0;stroke:#0000FF;stroke-width:2;"/>
<path d="M-228.235 145.950C-228.235 138.199 -221.951 131.915 -214.200 131.915C-206.449 131.915 -200.165 138.199 -200.165 145.950C-200.165 153.701 -206.449 159.985 -214.200 159.985C-221.951 159.985 -228.235 153.701 -228.235 145.950Z" style="fill:#FFFFFF;fill-opacity:0;stroke:#0000FF;stroke-width:2;"/>
<path d="M-196.105 145.950C-196.105 139.127 -190.573 133.595 -183.750 133.595C-176.927 133.595 -171.395 139.127 -171.395 145.950C-171.395 152.773 -176.927 158.305 -183.750 158.305C-190.573 158.305 -196.105 152.773 -196.105 145.950Z" style="fill:#FFFFFF;fill-opacity:0;stroke:#0000FF;stroke-width:2;"/>
<path d="M-164.360 145.950C-164.360 139.842 -159.408 134.890 -153.300 134.890C-147.192 134.890 -142.240 139.842 -142.240 145.950C-142.240 152.058 -147.192 157.010 -153.300 157.010C-159.408 157.010 -164.360 152.058 -164.360 145.950Z" style="fill:#FFFFFF;fill-opacity:0;stroke:#0000FF;stroke-width:2;"/>
<path d="M-133.910 145.950C-133.910 139.842 -128.958 134.890 -122.850 134.890C-116.742 134.890 -111.790 139.842 -111.790 145.950C-111.790 152.058 -116.742 157.010 -122.850 157.010C-128.958 157.010 -133.910 152.058 -133.910 145.950Z" style="fill:#FFFFFF;fill-opacity:0;stroke:#0000FF;stroke-width:2;"/>
<path d="M-103.740 145.950C-103.740 139.687 -98.663 134.610 -92.400 134.610C-86.137 134.610 -81.060 139.687 -81.060 145.950C-81.060 152.213 -86.137 157.290 -92.400 157.290C-98.663 157.290 -103.740 152.213 -103.740 145.950Z" style="fill:#FFFFFF;fill-opacity:0;stroke:#0000FF;stroke-width:2;"/>
<path d="M-74.130 145.950C-74.130 139.223 -68.677 133.770 -61.950 133.770C-55.223 133.770 -49.770 139.223 -49.770 145.950C-49.770 152.677 -55.223 158.130 -61.950 158.130C-68.677 158.130 -74.130 152.677 -74.130 145.950Z" style="fill:#FFFFFF;fill-opacity:0;stroke:#0000FF;stroke-width:2;"/>
<path d="M-42.700 145.950C-42.700 139.764 -37.686 134.750 -31.500 134.750C-25.314 134.750 -20.300 139.764 -20.300 145.950C-20.300 152.136 -25.314 157.150 -31.500 157.150C-37.686 157.150 -42.700 152.136 -42.700 145.950Z" style="fill:#FFFFFF;fill-opacity:0;stroke:#0000FF;stroke-width:2;"/>
<path d="M-12.320 145.950C-12.320 139.726 -7.274 134.680 -1.050 134.680C5.174 134.680 10.220 139.726 10.220 145.950C10.220 152.174 5.174 157.220 -1.050 157.220C-7.274 157.220 -12.320 152.174 -12.320 145.950Z" style="fill:#FFFFFF;fill-opacity:0;stroke:#0000FF;stroke-width:2;"/>
<path d="M14.945 145.950C14.945 137.967 21.417 131.495 29.400 131.495C37.383 131.495 43.855 137.967 43.855 145.950C43.855 153.933 37.383 160.405 29.400 160.405C21.417 160.405 14.945 153.933 14.945 145.950Z" style="fill:#FFFFFF;fill-opacity:0;stroke:#0000FF;stroke-width:2;"/>
<path d="M43.610 145.950C43.610 136.981 50.881 129.710 59.850 129.710C68.819 129.710 76.090 136.981 76.090 145.950C76.090 154.919 68.819 162.190 59.850 162.190C50.881 162.190 43.610 154.919 43.610 145.950Z" style="fill:#FFFFFF;fill-opacity:0;stroke:#0000FF;stroke-width:2;"/>
<path d="M75.740 145.950C75.740 137.909 82.259 131.390 90.300 131.390C98.341 131.390 104.860 137.909 104.860 145.950C104.860 153.991 98.341 160.510 90.300 160.510C82.259 160.510 75.740 153.991 75.740 145.950Z" style="fill:#FFFFFF;fill-opacity:0;stroke:#0000FF;stroke-width:2;"/>
<path d="M104.895 145.950C104.895 137.194 111.994 130.095 120.750 130.095C129.506 130.095 136.605 137.194 136.605 145.950C136.605 154.706 129.506 161.805 120.750 161.805C111.994 161.805 104.895 154.706 104.895 145.950Z" style="fill:#FFFFFF;fill-opacity:0;stroke:#0000FF;stroke-width:2;"/>
<path d="M134.645 145.950C134.645 136.807 142.057 129.395 151.200 129.395C160.343 129.395 167.755 136.807 167.755 145.950C167.755 155.093 160.343 162.505 151.200 162.505C142.057 162.505 134.645 155.093 134.645 145.950Z" style="fill:#FFFFFF;fill-opacity:0;stroke:#0000FF;stroke-width:2;"/>
<path d="M164.710 145.950C164.710 136.594 172.294 129.010 181.650 129.010C191.006 129.010 198.590 136.594 198.590 145.950C198.590 155.306 191.006 162.890 181.650 162.890C172.294 162.890 164.710 155.306 164.710 145.950Z" style="fill:#FFFFFF;fill-opacity:0;stroke:#0000FF;stroke-width:2;"/>
<path d="M195.825 145.950C195.825 136.962 203.112 129.675 212.100 129.675C221.088 129.675 228.375 136.962 228.375 145.950C228.375 154.938 221.088 162.225 212.100 162.225C203.112 162.225 195.825 154.938 195.825 145.950Z" style="fill:#FFFFFF;fill-opacity:0;stroke:#0000FF;stroke-width:2;"/>
<path d="M223.405 145.950C223.405 135.377 231.977 126.805 242.550 126.805C253.123 126.805 261.695 135.377 261.695 145.950C261.695 156.523 253.123 165.095 242.550 165.095C231.977 165.095 223.405 156.523 223.405 145.950Z" style="fill:#FFFFFF;fill-opacity:0;stroke:#0000FF;stroke-width:2;"/>
<path d="M255.045 145.950C255.045 136.034 263.084 127.995 273 127.995C282.916 127.995 290.955 136.034 290.955 145.950C290.955 155.866 282.916 163.905 273 163.905C263.084 163.905 255.045 155.866 255.045 145.950Z" style="fill:#FFFFFF;fill-opacity:0;stroke:#0000FF;stroke-width:2;"/>
<path d="M286.720 145.950C286.720 136.710 294.210 129.220 303.450 129.220C312.690 129.220 320.180 136.710 320.180 145.950C320.180 155.190 312.690 162.680 303.450 162.680C294.210 162.680 286.720 155.190 286.720 145.950Z" style="fill:#FFFFFF;fill-opacity:0;stroke:#0000FF;stroke-width:2;"/>
<path d="M317.975 145.950C317.975 137.155 325.105 130.025 333.900 130.025C342.695 130.025 349.825 137.155 349.825 145.950C349.825 154.745 342.695 161.875 333.900 161.875C325.105 161.875 317.975 154.745 317.975 145.950Z" style="fill:#FFFFFF;fill-opacity:0;stroke:#0000FF;stroke-width:2;"/>
<path d="M-348.565 176.400C-348.565 169.461 -342.939 163.835 -336 163.835C-329.061 163.835 -323.435 169.461 -323.435 176.400C-323.435 183.339 -329.061 188.965 -336 188.965C-342.939 188.965 -348.565 183.339 -348.565 176.400Z" style="fill:#FFFFFF;fill-opacity:0;stroke:#0000FF;stroke-width:2;"/>
<path d="M-321.685 176.400C-321.685 167.489 -314.461 160.265 -305.550 160.265C-296.639 160.265 -289.415 167.489 -289.415 176.400C-289.415 185.311 -296.639 192.535 -305.550 192.535C-314.461 192.535 -321.685 185.311 -321.685 176.400Z" style="fill:#FFFFFF;fill-opacity:0;stroke:#0000FF;stroke-width:2;"/>
<path d="M-291.060 176.400C-291.060 167.586 -283.914 160.440 -275.100 160.440C-266.286 160.440 -259.140 167.586 -259.140 176.400C-259.140 185.214 -266.286 192.360 -275.100 192.360C-283.914 192.360 -291.060 185.214 -291.060 176.400Z" style="fill:#FFFFFF;fill-opacity:0;stroke:#0000FF;stroke-width:2;"/>
<path d="M-259.210 176.400C-259.210 168.359 -252.691 161.840 -244.650 161.840C-236.609 161.840 -230.090 168.359 -230.090 176.400C-230.090 184.441 -236.609 190.960 -244.650 190.960C-252.691 190.960 -259.210 184.441 -259.210 176.400Z" style="fill:#FFFFFF;fill-opacity:0;stroke:#0000FF;stroke-width:2;"/>
<path d="M-227.850 176.400C-227.850 168.861 -221.739 162.750 -214.200 162.750C-206.661 162.750 -200.550 168.861 -200.550 176.400C-200.550 183.939 -206.661 190.050 -214.200 190.050C-221.739 190.050 -227.850 183.939 -227.850 176.400Z" style="fill:#FFFFFF;fill-opacity:0;stroke:#0000FF;stroke-width:2;"/>
<path d="M-195.335 176.400C-195.335 170.002 -190.148 164.815 -183.750 164.815C-177.352 164.815 -172.165 170.002 -172.165 176.400C-172.165 182.798 -177.352 187.985 -183.750 187.985C-190.148 187.985 -195.335 182.798 -195.335 176.400Z" style="fill:#FFFFFF;fill-opacity:0;stroke:#0000FF;stroke-width:2;"/>
<path d="M-163.170 176.400C-163.170 170.949 -158.751 166.530 -153.300 166.530C-147.849 166.530 -143.430 170.949 -143.430 176.400C-143.430 181.851 -147.849 186.270 -153.300 186.270C-158.751 186.270 -163.170 181.851 -163.170 176.400Z" style="fill:#FFFFFF;fill-opacity:0;stroke:#0000FF;stroke-width:2;"/>
<path d="M-133.175 176.400C-133.175 170.698 -128.552 166.075 -122.850 166.075C-117.148 166.075 -112.525 170.698 -112.525 176.400C-112.525 182.102 -117.148 186.725 -122.850 186.725C-128.552 186.725 -133.175 182.102 -133.175 176.400Z" style="fill:#FFFFFF;fill-opacity:0;stroke:#0000FF;stroke-width:2;"/>
<path d="M-103.320 176.400C-103.320 170.369 -98.431 165.480 -92.400 165.480C-86.369 165.480 -81.480 170.369 -81.480 176.400C-81.480 182.431 -86.369 187.320 -92.400 187.320C-98.431 187.320 -103.320 182.431 -103.320 176.400Z" style="fill:#FFFFFF;fill-opacity:0;stroke:#0000FF;stroke-width:2;"/>
<path d="M-73.465 176.400C-73.465 170.040 -68.310 164.885 -61.950 164.885C-55.590 164.885 -50.435 170.040 -50.435 176.400C-50.435 182.760 -55.590 187.915 -61.950 187.915C-68.310 187.915 -73.465 182.760 -73.465 176.400Z" style="fill:#FFFFFF;fill-opacity:0;stroke:#0000FF;stroke-width:2;"/>
<path d="M-41.895 176.400C-41.895 170.659 -37.241 166.005 -31.500 166.005C-25.759 166.005 -21.105 170.659 -21.105 176.400C-21.105 182.141 -25.759 186.795 -31.500 186.795C-37.241 186.795 -41.895 182.141 -41.895 176.400Z" style="fill:#FFFFFF;fill-opacity:0;stroke:#0000FF;stroke-width:2;"/>
<path d="M-12.635 176.400C-12.635 170.002 -7.448 164.815 -1.050 164.815C5.348 164.815 10.535 170.002 10.535 176.400C10.535 182.798 5.348 187.985 -1.050 187.985C-7.448 187.985 -12.635 182.798 -12.635 176.400Z" style="fill:#FFFFFF;fill-opacity:0;stroke:#0000FF;stroke-width:2;"/>
<path d="M13.755 176.400C13.755 167.760 20.760 160.755 29.400 160.755C38.040 160.755 45.045 167.760 45.045 176.400C45.045 185.040 38.040 192.045 29.400 192.045C20.760 192.045 13.755 185.040 13.755 176.400Z" style="fill:#FFFFFF;fill-opacity:0;stroke:#0000FF;stroke-width:2;"/>
<path d="M43.820 176.400C43.820 167.547 50.997 160.370 59.850 160.370C68.703 160.370 75.880 167.547 75.880 176.400C75.880 185.253 68.703 192.430 59.850 192.430C50.997 192.430 43.820 185.253 43.820 176.400Z" style="fill:#FFFFFF;fill-opacity:0;stroke:#0000FF;stroke-width:2;"/>
<path d="M74.515 176.400C74.515 167.682 81.582 160.615 90.300 160.615C99.018 160.615 106.085 167.682 106.085 176.400C106.085 185.118 99.018 192.185 90.300 192.185C81.582 192.185 74.515 185.118 74.515 176.400Z" style="fill:#FFFFFF;fill-opacity:0;stroke:#0000FF;stroke-width:2;"/>
<path d="M105.490 176.400C105.490 167.972 112.322 161.140 120.750 161.140C129.178 161.140 136.010 167.972 136.010 176.400C136.010 184.828 129.178 191.660 120.750 191.660C112.322 191.660 105.490 184.828 105.490 176.400Z" style="fill:#FFFFFF;fill-opacity:0;stroke:#0000FF;stroke-width:2;"/>
<path d="M134.960 176.400C134.960 167.431 142.231 160.160 151.200 160.160C160.169 160.160 167.440 167.431 167.440 176.400C167.440 185.369 160.169 192.640 151.200 192.640C142.231 192.640 134.960 185.369 134.960 176.400Z" style="fill:#FFFFFF;fill-opacity:0;stroke:#0000FF;stroke-width:2;"/>
<path d="M165.410 176.400C165.410 167.431 172.681 160.160 181.650 160.160C190.619 160.160 197.890 167.431 197.890 176.400C197.890 185.369 190.619 192.640 181.650 192.640C172.681 192.640 165.410 185.369 165.410 176.400Z" style="fill:#FFFFFF;fill-opacity:0;stroke:#0000FF;stroke-width:2;"/>
<path d="M199.430 176.400C199.430 169.403 205.103 163.730 212.100 163.730C219.097 163.730 224.770 169.403 224.770 176.400C224.770 183.397 219.097 189.070 212.100 189.070C205.103 189.070 199.430 183.397 199.430 176.400Z" style="fill:#FFFFFF;fill-opacity:0;stroke:#0000FF;stroke-width:2;"/>
<path d="M223.685 176.400C223.685 165.981 232.131 157.535 242.550 157.535C252.969 157.535 261.415 165.981 261.415 176.400C261.415 186.819 252.969 195.265 242.550 195.265C232.131 195.265 223.685 186.819 223.685 176.400Z" style="fill:#FFFFFF;fill-opacity:0;stroke:#0000FF;stroke-width:2;"/>
<path d="M254.800 176.400C254.800 166.348 262.948 158.200 273 158.200C283.052 158.200 291.200 166.348 291.200 176.400C291.200 186.452 283.052 194.600 273 194.600C262.948 194.600 254.800 186.452 254.800 176.400Z" style="fill:#FFFFFF;fill-opacity:0;stroke:#0000FF;stroke-width:2;"/>
<path d="M286.650 176.400C286.650 167.122 294.172 159.600 303.450 159.600C312.728 159.600 320.250 167.122 320.250 176.400C320.250 185.678 312.728 193.200 303.450 193.200C294.172 193.200 286.650 185.678 286.650 176.400Z" style="fill:#FFFFFF;fill-opacity:0;stroke:#0000FF;stroke-width:2;"/>
<path d="M318.290 176.400C318.290 167.779 325.279 160.790 333.900 160.790C342.521 160.790 349.510 167.779 349.510 176.400C349.510 185.021 342.521 192.010 333.900 192.010C325.279 192.010 318.290 185.021 318.290 176.400Z" style="fill:#FFFFFF;fill-opacity:0;stroke:#0000FF;stroke-width:2;"/>
</g>
</svg>
