<svg xmlns="http://www.w3.org/2000/svg" xmlns:xlink="http://www.w3.org/1999/xlink" x="-266.6666666666667" y="-198.33333333333334" width="533.3333333333334px" height="396.6666666666667px" viewBox="-266.6666666666667 -198.33333333333334 533.3333333333334 396.6666666666667">
<g transform="scale(0.7)">
<path d="M-336.385 -173.775C-336.385 -182.396 -329.396 -189.385 -320.775 -189.385C-312.154 -189.385 -305.165 -182.396 -305.165 -173.775C-305.165 -165.154 -312.154 -158.165 -320.775 -158.165C-329.396 -158.165 -336.385 -165.154 -336.385 -173.775Z" style="fill:#FFFFFF;fill-opacity:0;stroke:#000000;stroke-width:2;"/>
<path d="M-307.125 -173.775C-307.125 -183.053 -299.603 -190.575 -290.325 -190.575C-281.047 -190.575 -273.525 -183.053 -273.525 -173.775C-273.525 -164.497 -281.047 -156.975 -290.325 -156.975C-299.603 -156.975 -307.125 -164.497 -307.125 -173.775Z" style="fill:#FFFFFF;fill-opacity:0;stroke:#000000;stroke-width:2;"/>
<path d="M-278.075 -173.775C-278.075 -183.827 -269.927 -191.975 -259.875 -191.975C-249.823 -191.975 -241.675 -183.827 -241.675 -173.775C-241.675 -163.723 -249.823 -155.575 -259.875 -155.575C-269.927 -155.575 -278.075 -163.723 -278.075 -173.775Z" style="fill:#FFFFFF;fill-opacity:0;stroke:#000000;stroke-width:2;"/>
<path d="M-248.290 -173.775C-248.290 -184.194 -239.844 -192.640 -229.425 -192.640C-219.006 -192.640 -210.560 -184.194 -210.560 -173.775C-210.560 -163.356 -219.006 -154.910 -229.425 -154.910C-239.844 -154.910 -248.290 -163.356 -248.290 -173.775Z" style="fill:#FFFFFF;fill-opacity:0;stroke:#000000;stroke-width:2;"/>
<path d="M-211.645 -173.775C-211.645 -180.772 -205.972 -186.445 -198.975 -186.445C-191.978 -186.445 -186.305 -180.772 -186.305 -173.775C-186.305 -166.778 -191.978 -161.105 -198.975 -161.105C-205.972 -161.105 -211.645 -166.778 -211.645 -173.775Z" style="fill:#FFFFFF;fill-opacity:0;stroke:#000000;stroke-width:2;"/>
<path d="M-184.765 -173.775C-184.765 -182.744 -177.494 -190.015 -168.525 -190.015C-159.556 -190.015 -152.285 -182.744 -152.285 -173.775C-152.285 -164.806 -159.556 -157.535 -168.525 -157.535C-177.494 -157.535 -184.765 -164.806 -184.765 -173.775Z" style="fill:#FFFFFF;fill-opacity:0;stroke:#000000;stroke-width:2;"/>
<path d="M-154.315 -173.775C-154.315 -182.744 -147.044 -190.015 -138.075 -190.015C-129.106 -190.015 -121.835 -182.744 -121.835 -173.775C-121.835 -164.806 -129.106 -157.535 -138.075 -157.535C-147.044 -157.535 -154.315 -164.806 -154.315 -173.775Z" style="fill:#FFFFFF;fill-opacity:0;stroke:#000000;stroke-width:2;"/>
<path d="M-122.885 -173.775C-122.885 -182.203 -116.053 -189.035 -107.625 -189.035C-99.197 -189.035 -92.365 -182.203 -92.365 -173.775C-92.365 -165.347 -99.197 -158.515 -107.625 -158.515C-116.053 -158.515 -122.885 -165.347 -122.885 -173.775Z" style="fill:#FFFFFF;fill-opacity:0;stroke:#000000;stroke-width:2;"/>
<path d="M-92.960 -173.775C-92.960 -182.493 -85.893 -189.560 -77.175 -189.560C-68.457 -189.560 -61.390 -182.493 -61.390 -173.775C-61.390 -165.057 -68.457 -157.990 -77.175 -157.990C-85.893 -157.990 -92.960 -165.057 -92.960 -173.775Z" style="fill:#FFFFFF;fill-opacity:0;stroke:#000000;stroke-width:2;"/>
<path d="M-62.755 -173.775C-62.755 -182.628 -55.578 -189.805 -46.725 -189.805C-37.872 -189.805 -30.695 -182.628 -30.695 -173.775C-30.695 -164.922 -37.872 -157.745 -46.725 -157.745C-55.578 -157.745 -62.755 -164.922 -62.755 -173.775Z" style="fill:#FFFFFF;fill-opacity:0;stroke:#000000;stroke-width:2;"/>
<path d="M-31.920 -173.775C-31.920 -182.415 -24.915 -189.420 -16.275 -189.420C-7.635 -189.420 -0.630 -182.415 -0.630 -173.775C-0.630 -165.135 -7.635 -158.130 -16.275 -158.130C-24.915 -158.130 -31.920 -165.135 -31.920 -173.775Z" style="fill:#FFFFFF;fill-opacity:0;stroke:#000000;stroke-width:2;"/>
<path d="M2.590 -173.775C2.590 -180.173 7.777 -185.360 14.175 -185.360C20.573 -185.360 25.760 -180.173 25.760 -173.775C25.760 -167.377 20.573 -162.190 14.175 -162.190C7.777 -162.190 2.590 -167.377 2.590 -173.775Z" style="fill:#FFFFFF;fill-opacity:0;stroke:#000000;stroke-width:2;"/>
<path d="M34.230 -173.775C34.230 -179.516 38.884 -184.170 44.625 -184.170C50.366 -184.170 55.020 -179.516 55.020 -173.775C55.020 -168.034 50.366 -163.380 44.625 -163.380C38.884 -163.380 34.230 -168.034 34.230 -173.775Z" style="fill:#FFFFFF;fill-opacity:0;stroke:#000000;stroke-width:2;"/>
<path d="M63.560 -173.775C63.560 -180.135 68.715 -185.290 75.075 -185.290C81.435 -185.290 86.590 -180.135 86.590 -173.775C86.590 -167.415 81.435 -162.260 75.075 -162.260C68.715 -162.260 63.560 -167.415 63.560 -173.775Z" style="fill:#FFFFFF;fill-opacity:0;stroke:#000000;stroke-width:2;"/>
<path d="M94.605 -173.775C94.605 -179.806 99.494 -184.695 105.525 -184.695C111.556 -184.695 116.445 -179.806 116.445 -173.775C116.445 -167.744 111.556 -162.855 105.525 -162.855C99.494 -162.855 94.605 -167.744 94.605 -173.775Z" style="fill:#FFFFFF;fill-opacity:0;stroke:#000000;stroke-width:2;"/>
<path d="M125.650 -173.775C125.650 -179.477 130.273 -184.100 135.975 -184.100C141.677 -184.100 146.300 -179.477 146.300 -173.775C146.300 -168.073 141.677 -163.450 135.975 -163.450C130.273 -163.450 125.650 -168.073 125.650 -173.775Z" style="fill:#FFFFFF;fill-opacity:0;stroke:#000000;stroke-width:2;"/>
<path d="M156.555 -173.775C156.555 -179.226 160.974 -183.645 166.425 -183.645C171.876 -183.645 176.295 -179.226 176.295 -173.775C176.295 -168.324 171.876 -163.905 166.425 -163.905C160.974 -163.905 156.555 -168.324 156.555 -173.775Z" style="fill:#FFFFFF;fill-opacity:0;stroke:#000000;stroke-width:2;"/>
<path d="M185.290 -173.775C185.290 -180.173 190.477 -185.360 196.875 -185.360C203.273 -185.360 208.460 -180.173 208.460 -173.775C208.460 -167.377 203.273 -162.190 196.875 -162.190C190.477 -162.190 185.290 -167.377 185.290 -173.775Z" style="fill:#FFFFFF;fill-opacity:0;stroke:#000000;stroke-width:2;"/>
<path d="M213.675 -173.775C213.675 -181.314 219.786 -187.425 227.325 -187.425C234.864 -187.425 240.975 -181.314 240.975 -173.775C240.975 -166.236 234.864 -160.125 227.325 -160.125C219.786 -160.125 213.675 -166.236 213.675 -173.775Z" style="fill:#FFFFFF;fill-opacity:0;stroke:#000000;stroke-width:2;"/>
<path d="M243.215 -173.775C243.215 -181.816 249.734 -188.335 257.775 -188.335C265.816 -188.335 272.335 -181.816 272.335 -173.775C272.335 -165.734 265.816 -159.215 257.775 -159.215C249.734 -159.215 243.215 -165.734 243.215 -173.775Z" style="fill:#FFFFFF;fill-opacity:0;stroke:#000000;stroke-width:2;"/>
<path d="M272.265 -173.775C272.265 -182.589 279.411 -189.735 288.225 -189.735C297.039 -189.735 304.185 -182.589 304.185 -173.775C304.185 -164.961 297.039 -157.815 288.225 -157.815C279.411 -157.815 272.265 -164.961 272.265 -173.775Z" style="fill:#FFFFFF;fill-opacity:0;stroke:#000000;stroke-width:2;"/>
<path d="M302.540 -173.775C302.540 -182.686 309.764 -189.910 318.675 -189.910C327.586 -189.910 334.810 -182.686 334.810 -173.775C334.810 -164.864 327.586 -157.640 318.675 -157.640C309.764 -157.640 302.540 -164.864 302.540 -173.775Z" style="fill:#FFFFFF;fill-opacity:0;stroke:#000000;stroke-width:2;"/>
<path d="M336.560 -173.775C336.560 -180.714 342.186 -186.340 349.125 -186.340C356.064 -186.340 361.690 -180.714 361.690 -173.775C361.690 -166.836 356.064 -161.210 349.125 -161.210C342.186 -161.210 336.560 -166.836 336.560 -173.775Z" style="fill:#FFFFFF;fill-opacity:0;stroke:#000000;stroke-width:2;"/>
<path d="M-336.700 -143.325C-336.700 -152.120 -329.570 -159.250 -320.775 -159.250C-311.980 -159.250 -304.850 -152.120 -304.850 -143.325C-304.850 -134.530 -311.980 -127.400 -320.775 -127.400C-329.570 -127.400 -336.700 -134.530 -336.700 -143.325Z" style="fill:#FFFFFF;fill-opacity:0;stroke:#000000;stroke-width:2;"/>
<path d="M-307.055 -143.325C-307.055 -152.565 -299.565 -160.055 -290.325 -160.055C-281.085 -160.055 -273.595 -152.565 -273.595 -143.325C-273.595 -134.085 -281.085 -126.595 -290.325 -126.595C-299.565 -126.595 -307.055 -134.085 -307.055 -143.325Z" style="fill:#FFFFFF;fill-opacity:0;stroke:#000000;stroke-width:2;"/>
<path d="M-277.830 -143.325C-277.830 -153.241 -269.791 -161.280 -259.875 -161.280C-249.959 -161.280 -241.920 -153.241 -241.920 -143.325C-241.920 -133.409 -249.959 -125.370 -259.875 -125.370C-269.791 -125.370 -277.830 -133.409 -277.830 -143.325Z" style="fill:#FFFFFF;fill-opacity:0;stroke:#000000;stroke-width:2;"/>
<path d="M-248.570 -143.325C-248.570 -153.898 -239.998 -162.470 -229.425 -162.470C-218.852 -162.470 -210.280 -153.898 -210.280 -143.325C-210.280 -132.752 -218.852 -124.180 -229.425 -124.180C-239.998 -124.180 -248.570 -132.752 -248.570 -143.325Z" style="fill:#FFFFFF;fill-opacity:0;stroke:#000000;stroke-width:2;"/>
<path d="M-215.250 -143.325C-215.250 -152.313 -207.963 -159.600 -198.975 -159.600C-189.987 -159.600 -182.700 -152.313 -182.700 -143.325C-182.700 -134.337 -189.987 -127.050 -198.975 -127.050C-207.963 -127.050 -215.250 -134.337 -215.250 -143.325Z" style="fill:#FFFFFF;fill-opacity:0;stroke:#000000;stroke-width:2;"/>
<path d="M-185.465 -143.325C-185.465 -152.681 -177.881 -160.265 -168.525 -160.265C-159.169 -160.265 -151.585 -152.681 -151.585 -143.325C-151.585 -133.969 -159.169 -126.385 -168.525 -126.385C-177.881 -126.385 -185.465 -133.969 -185.465 -143.325Z" style="fill:#FFFFFF;fill-opacity:0;stroke:#000000;stroke-width:2;"/>
<path d="M-154.630 -143.325C-154.630 -152.468 -147.218 -159.880 -138.075 -159.880C-128.932 -159.880 -121.520 -152.468 -121.520 -143.325C-121.520 -134.182 -128.932 -126.770 -138.075 -126.770C-147.218 -126.770 -154.630 -134.182 -154.630 -143.325Z" style="fill:#FFFFFF;fill-opacity:0;stroke:#000000;stroke-width:2;"/>
<path d="M-123.480 -143.325C-123.480 -152.081 -116.381 -159.180 -107.625 -159.180C-98.869 -159.180 -91.770 -152.081 -91.770 -143.325C-91.770 -134.569 -98.869 -127.470 -107.625 -127.470C-116.381 -127.470 -123.480 -134.569 -123.480 -143.325Z" style="fill:#FFFFFF;fill-opacity:0;stroke:#000000;stroke-width:2;"/>
<path d="M-91.735 -143.325C-91.735 -151.366 -85.216 -157.885 -77.175 -157.885C-69.134 -157.885 -62.615 -151.366 -62.615 -143.325C-62.615 -135.284 -69.134 -128.765 -77.175 -128.765C-85.216 -128.765 -91.735 -135.284 -91.735 -143.325Z" style="fill:#FFFFFF;fill-opacity:0;stroke:#000000;stroke-width:2;"/>
<path d="M-62.965 -143.325C-62.965 -152.294 -55.694 -159.565 -46.725 -159.565C-37.756 -159.565 -30.485 -152.294 -30.485 -143.325C-30.485 -134.356 -37.756 -127.085 -46.725 -127.085C-55.694 -127.085 -62.965 -134.356 -62.965 -143.325Z" style="fill:#FFFFFF;fill-opacity:0;stroke:#000000;stroke-width:2;"/>
<path d="M-30.730 -143.325C-30.730 -151.308 -24.258 -157.780 -16.275 -157.780C-8.292 -157.780 -1.820 -151.308 -1.820 -143.325C-1.820 -135.342 -8.292 -128.870 -16.275 -128.870C-24.258 -128.870 -30.730 -135.342 -30.730 -143.325Z" style="fill:#FFFFFF;fill-opacity:0;stroke:#000000;stroke-width:2;"/>
<path d="M2.905 -143.325C2.905 -149.549 7.951 -154.595 14.175 -154.595C20.399 -154.595 25.445 -149.549 25.445 -143.325C25.445 -137.101 20.399 -132.055 14.175 -132.055C7.951 -132.055 2.905 -137.101 2.905 -143.325Z" style="fill:#FFFFFF;fill-opacity:0;stroke:#000000;stroke-width:2;"/>
<path d="M33.425 -143.325C33.425 -149.511 38.439 -154.525 44.625 -154.525C50.811 -154.525 55.825 -149.511 55.825 -143.325C55.825 -137.139 50.811 -132.125 44.625 -132.125C38.439 -132.125 33.425 -137.139 33.425 -143.325Z" style="fill:#FFFFFF;fill-opacity:0;stroke:#000000;stroke-width:2;"/>
<path d="M62.895 -143.325C62.895 -150.052 68.348 -155.505 75.075 -155.505C81.802 -155.505 87.255 -150.052 87.255 -143.325C87.255 -136.598 81.802 -131.145 75.075 -131.145C68.348 -131.145 62.895 -136.598 62.895 -143.325Z" style="fill:#FFFFFF;fill-opacity:0;stroke:#000000;stroke-width:2;"/>
<path d="M94.185 -143.325C94.185 -149.588 99.262 -154.665 105.525 -154.665C111.788 -154.665 116.865 -149.588 116.865 -143.325C116.865 -137.062 111.788 -131.985 105.525 -131.985C99.262 -131.985 94.185 -137.062 94.185 -143.325Z" style="fill:#FFFFFF;fill-opacity:0;stroke:#000000;stroke-width:2;"/>
<path d="M124.915 -143.325C124.915 -149.433 129.867 -154.385 135.975 -154.385C142.083 -154.385 147.035 -149.433 147.035 -143.325C147.035 -137.217 142.083 -132.265 135.975 -132.265C129.867 -132.265 124.915 -137.217 124.915 -143.325Z" style="fill:#FFFFFF;fill-opacity:0;stroke:#000000;stroke-width:2;"/>
<path d="M155.365 -143.325C155.365 -149.433 160.317 -154.385 166.425 -154.385C172.533 -154.385 177.485 -149.433 177.485 -143.325C177.485 -137.217 172.533 -132.265 166.425 -132.265C160.317 -132.265 155.365 -137.217 155.365 -143.325Z" style="fill:#FFFFFF;fill-opacity:0;stroke:#000000;stroke-width:2;"/>
<path d="M184.520 -143.325C184.520 -150.148 190.052 -155.680 196.875 -155.680C203.698 -155.680 209.230 -150.148 209.230 -143.325C209.230 -136.502 203.698 -130.970 196.875 -130.970C190.052 -130.970 184.520 -136.502 184.520 -143.325Z" style="fill:#FFFFFF;fill-opacity:0;stroke:#000000;stroke-width:2;"/>
<path d="M213.290 -143.325C213.290 -151.076 219.574 -157.360 227.325 -157.360C235.076 -157.360 241.360 -151.076 241.360 -143.325C241.360 -135.574 235.076 -129.290 227.325 -129.290C219.574 -129.290 213.290 -135.574 213.290 -143.325Z" style="fill:#FFFFFF;fill-opacity:0;stroke:#000000;stroke-width:2;"/>
<path d="M242.725 -143.325C242.725 -151.637 249.463 -158.375 257.775 -158.375C266.087 -158.375 272.825 -151.637 272.825 -143.325C272.825 -135.013 266.087 -128.275 257.775 -128.275C249.463 -128.275 242.725 -135.013 242.725 -143.325Z" style="fill:#FFFFFF;fill-opacity:0;stroke:#000000;stroke-width:2;"/>
<path d="M274.085 -143.325C274.085 -151.134 280.416 -157.465 288.225 -157.465C296.034 -157.465 302.365 -151.134 302.365 -143.325C302.365 -135.516 296.034 -129.185 288.225 -129.185C280.416 -129.185 274.085 -135.516 274.085 -143.325Z" style="fill:#FFFFFF;fill-opacity:0;stroke:#000000;stroke-width:2;"/>
<path d="M303.975 -143.325C303.975 -151.444 310.556 -158.025 318.675 -158.025C326.794 -158.025 333.375 -151.444 333.375 -143.325C333.375 -135.206 326.794 -128.625 318.675 -128.625C310.556 -128.625 303.975 -135.206 303.975 -143.325Z" style="fill:#FFFFFF;fill-opacity:0;stroke:#000000;stroke-width:2;"/>
<path d="M336.070 -143.325C336.070 -150.535 341.915 -156.380 349.125 -156.380C356.335 -156.380 362.180 -150.535 362.180 -143.325C362.180 -136.115 356.335 -130.270 349.125 -130.270C341.915 -130.270 336.070 -136.115 336.070 -143.325Z" style="fill:#FFFFFF;fill-opacity:0;stroke:#000000;stroke-width:2;"/>
<path d="M-336.595 -112.875C-336.595 -121.612 -329.512 -128.695 -320.775 -128.695C-312.038 -128.695 -304.955 -121.612 -304.955 -112.875C-304.955 -104.138 -312.038 -97.055 -320.775 -97.055C-329.512 -97.055 -336.595 -104.138 -336.595 -112.875Z" style="fill:#FFFFFF;fill-opacity:0;stroke:#000000;stroke-width:2;"/>
<path d="M-307.335 -112.875C-307.335 -122.269 -299.719 -129.885 -290.325 -129.885C-280.931 -129.885 -273.315 -122.269 -273.315 -112.875C-273.315 -103.481 -280.931 -95.865 -290.325 -95.865C-299.719 -95.865 -307.335 -103.481 -307.335 -112.875Z" style="fill:#FFFFFF;fill-opacity:0;stroke:#000000;stroke-width:2;"/>
<path d="M-277.690 -112.875C-277.690 -122.714 -269.714 -130.690 -259.875 -130.690C-250.036 -130.690 -242.060 -122.714 -242.060 -112.875C-242.060 -103.036 -250.036 -95.060 -259.875 -95.060C-269.714 -95.060 -277.690 -103.036 -277.690 -112.875Z" style="fill:#FFFFFF;fill-opacity:0;stroke:#000000;stroke-width:2;"/>
<path d="M-248.220 -112.875C-248.220 -123.255 -239.805 -131.670 -229.425 -131.670C-219.045 -131.670 -210.630 -123.255 -210.630 -112.875C-210.630 -102.495 -219.045 -94.080 -229.425 -94.080C-239.805 -94.080 -248.220 -102.495 -248.220 -112.875Z" style="fill:#FFFFFF;fill-opacity:0;stroke:#000000;stroke-width:2;"/>
<path d="M-216.615 -112.875C-216.615 -122.617 -208.717 -130.515 -198.975 -130.515C-189.233 -130.515 -181.335 -122.617 -181.335 -112.875C-181.335 -103.133 -189.233 -95.235 -198.975 -95.235C-208.717 -95.235 -216.615 -103.133 -216.615 -112.875Z" style="fill:#FFFFFF;fill-opacity:0;stroke:#000000;stroke-width:2;"/>
<path d="M-184.275 -112.875C-184.275 -121.573 -177.223 -128.625 -168.525 -128.625C-159.827 -128.625 -152.775 -121.573 -152.775 -112.875C-152.775 -104.177 -159.827 -97.125 -168.525 -97.125C-177.223 -97.125 -184.275 -104.177 -184.275 -112.875Z" style="fill:#FFFFFF;fill-opacity:0;stroke:#000000;stroke-width:2;"/>
<path d="M-153.965 -112.875C-153.965 -121.651 -146.851 -128.765 -138.075 -128.765C-129.299 -128.765 -122.185 -121.651 -122.185 -112.875C-122.185 -104.099 -129.299 -96.985 -138.075 -96.985C-146.851 -96.985 -153.965 -104.099 -153.965 -112.875Z" style="fill:#FFFFFF;fill-opacity:0;stroke:#000000;stroke-width:2;"/>
<path d="M-123.270 -112.875C-123.270 -121.515 -116.265 -128.520 -107.625 -128.520C-98.985 -128.520 -91.980 -121.515 -91.980 -112.875C-91.980 -104.235 -98.985 -97.230 -107.625 -97.230C-116.265 -97.230 -123.270 -104.235 -123.270 -112.875Z" style="fill:#FFFFFF;fill-opacity:0;stroke:#000000;stroke-width:2;"/>
<path d="M-93.135 -112.875C-93.135 -121.689 -85.989 -128.835 -77.175 -128.835C-68.361 -128.835 -61.215 -121.689 -61.215 -112.875C-61.215 -104.061 -68.361 -96.915 -77.175 -96.915C-85.989 -96.915 -93.135 -104.061 -93.135 -112.875Z" style="fill:#FFFFFF;fill-opacity:0;stroke:#000000;stroke-width:2;"/>
<path d="M-61.495 -112.875C-61.495 -121.032 -54.882 -127.645 -46.725 -127.645C-38.568 -127.645 -31.955 -121.032 -31.955 -112.875C-31.955 -104.718 -38.568 -98.105 -46.725 -98.105C-54.882 -98.105 -61.495 -104.718 -61.495 -112.875Z" style="fill:#FFFFFF;fill-opacity:0;stroke:#000000;stroke-width:2;"/>
<path d="M-29.400 -112.875C-29.400 -120.124 -23.524 -126.000 -16.275 -126.000C-9.026 -126.000 -3.150 -120.124 -3.150 -112.875C-3.150 -105.626 -9.026 -99.750 -16.275 -99.750C-23.524 -99.750 -29.400 -105.626 -29.400 -112.875Z" style="fill:#FFFFFF;fill-opacity:0;stroke:#000000;stroke-width:2;"/>
<path d="M3.430 -112.875C3.430 -118.809 8.241 -123.620 14.175 -123.620C20.109 -123.620 24.920 -118.809 24.920 -112.875C24.920 -106.941 20.109 -102.130 14.175 -102.130C8.241 -102.130 3.430 -106.941 3.430 -112.875Z" style="fill:#FFFFFF;fill-opacity:0;stroke:#000000;stroke-width:2;"/>
<path d="M33.145 -112.875C33.145 -119.215 38.285 -124.355 44.625 -124.355C50.965 -124.355 56.105 -119.215 56.105 -112.875C56.105 -106.535 50.965 -101.395 44.625 -101.395C38.285 -101.395 33.145 -106.535 33.145 -112.875Z" style="fill:#FFFFFF;fill-opacity:0;stroke:#000000;stroke-width:2;"/>
<path d="M62.510 -112.875C62.510 -119.814 68.136 -125.440 75.075 -125.440C82.014 -125.440 87.640 -119.814 87.640 -112.875C87.640 -105.936 82.014 -100.310 75.075 -100.310C68.136 -100.310 62.510 -105.936 62.510 -112.875Z" style="fill:#FFFFFF;fill-opacity:0;stroke:#000000;stroke-width:2;"/>
<path d="M93.100 -112.875C93.100 -119.737 98.663 -125.300 105.525 -125.300C112.387 -125.300 117.950 -119.737 117.950 -112.875C117.950 -106.013 112.387 -100.450 105.525 -100.450C98.663 -100.450 93.100 -106.013 93.100 -112.875Z" style="fill:#FFFFFF;fill-opacity:0;stroke:#000000;stroke-width:2;"/>
<path d="M125.545 -112.875C125.545 -118.635 130.215 -123.305 135.975 -123.305C141.735 -123.305 146.405 -118.635 146.405 -112.875C146.405 -107.115 141.735 -102.445 135.975 -102.445C130.215 -102.445 125.545 -107.115 125.545 -112.875Z" style="fill:#FFFFFF;fill-opacity:0;stroke:#000000;stroke-width:2;"/>
<path d="M155.155 -112.875C155.155 -119.099 160.201 -124.145 166.425 -124.145C172.649 -124.145 177.695 -119.099 177.695 -112.875C177.695 -106.651 172.649 -101.605 166.425 -101.605C160.201 -101.605 155.155 -106.651 155.155 -112.875Z" style="fill:#FFFFFF;fill-opacity:0;stroke:#000000;stroke-width:2;"/>
<path d="M184.030 -112.875C184.030 -119.969 189.781 -125.720 196.875 -125.720C203.969 -125.720 209.720 -119.969 209.720 -112.875C209.720 -105.781 203.969 -100.030 196.875 -100.030C189.781 -100.030 184.030 -105.781 184.030 -112.875Z" style="fill:#FFFFFF;fill-opacity:0;stroke:#000000;stroke-width:2;"/>
<path d="M213.500 -112.875C213.500 -120.510 219.690 -126.700 227.325 -126.700C234.960 -126.700 241.150 -120.510 241.150 -112.875C241.150 -105.240 234.960 -99.050 227.325 -99.050C219.690 -99.050 213.500 -105.240 213.500 -112.875Z" style="fill:#FFFFFF;fill-opacity:0;stroke:#000000;stroke-width:2;"/>
<path d="M242.445 -112.875C242.445 -121.342 249.308 -128.205 257.775 -128.205C266.242 -128.205 273.105 -121.342 273.105 -112.875C273.105 -104.408 266.242 -97.545 257.775 -97.545C249.308 -97.545 242.445 -104.408 242.445 -112.875Z" style="fill:#FFFFFF;fill-opacity:0;stroke:#000000;stroke-width:2;"/>
<path d="M273.280 -112.875C273.280 -121.129 279.971 -127.820 288.225 -127.820C296.479 -127.820 303.170 -121.129 303.170 -112.875C303.170 -104.621 296.479 -97.930 288.225 -97.930C279.971 -97.930 273.280 -104.621 273.280 -112.875Z" style="fill:#FFFFFF;fill-opacity:0;stroke:#000000;stroke-width:2;"/>
<path d="M304.920 -112.875C304.920 -120.472 311.078 -126.630 318.675 -126.630C326.272 -126.630 332.430 -120.472 332.430 -112.875C332.430 -105.278 326.272 -99.120 318.675 -99.120C311.078 -99.120 304.920 -105.278 304.920 -112.875Z" style="fill:#FFFFFF;fill-opacity:0;stroke:#000000;stroke-width:2;"/>
<path d="M336.350 -112.875C336.350 -119.930 342.070 -125.650 349.125 -125.650C356.180 -125.650 361.900 -119.930 361.900 -112.875C361.900 -105.820 356.180 -100.100 349.125 -100.100C342.070 -100.100 336.350 -105.820 336.350 -112.875Z" style="fill:#FFFFFF;fill-opacity:0;stroke:#000000;stroke-width:2;"/>
<path d="M-337.680 -82.425C-337.680 -91.761 -330.111 -99.330 -320.775 -99.330C-311.439 -99.330 -303.870 -91.761 -303.870 -82.425C-303.870 -73.089 -311.439 -65.520 -320.775 -65.520C-330.111 -65.520 -337.680 -73.089 -337.680 -82.425Z" style="fill:#FFFFFF;fill-opacity:0;stroke:#000000;stroke-width:2;"/>
<path d="M-307.580 -82.425C-307.580 -91.955 -299.855 -99.680 -290.325 -99.680C-280.795 -99.680 -273.070 -91.955 -273.070 -82.425C-273.070 -72.895 -280.795 -65.170 -290.325 -65.170C-299.855 -65.170 -307.580 -72.895 -307.580 -82.425Z" style="fill:#FFFFFF;fill-opacity:0;stroke:#000000;stroke-width:2;"/>
<path d="M-276.745 -82.425C-276.745 -91.742 -269.192 -99.295 -259.875 -99.295C-250.558 -99.295 -243.005 -91.742 -243.005 -82.425C-243.005 -73.108 -250.558 -65.555 -259.875 -65.555C-269.192 -65.555 -276.745 -73.108 -276.745 -82.425Z" style="fill:#FFFFFF;fill-opacity:0;stroke:#000000;stroke-width:2;"/>
<path d="M-247.520 -82.425C-247.520 -92.419 -239.419 -100.520 -229.425 -100.520C-219.431 -100.520 -211.330 -92.419 -211.330 -82.425C-211.330 -72.431 -219.431 -64.330 -229.425 -64.330C-239.419 -64.330 -247.520 -72.431 -247.520 -82.425Z" style="fill:#FFFFFF;fill-opacity:0;stroke:#000000;stroke-width:2;"/>
<path d="M-216.160 -82.425C-216.160 -91.916 -208.466 -99.610 -198.975 -99.610C-189.484 -99.610 -181.790 -91.916 -181.790 -82.425C-181.790 -72.934 -189.484 -65.240 -198.975 -65.240C-208.466 -65.240 -216.160 -72.934 -216.160 -82.425Z" style="fill:#FFFFFF;fill-opacity:0;stroke:#000000;stroke-width:2;"/>
<path d="M-184.625 -82.425C-184.625 -91.317 -177.417 -98.525 -168.525 -98.525C-159.633 -98.525 -152.425 -91.317 -152.425 -82.425C-152.425 -73.533 -159.633 -66.325 -168.525 -66.325C-177.417 -66.325 -184.625 -73.533 -184.625 -82.425Z" style="fill:#FFFFFF;fill-opacity:0;stroke:#000000;stroke-width:2;"/>
<path d="M-148.470 -82.425C-148.470 -88.166 -143.816 -92.820 -138.075 -92.820C-132.334 -92.820 -127.680 -88.166 -127.680 -82.425C-127.680 -76.684 -132.334 -72.030 -138.075 -72.030C-143.816 -72.030 -148.470 -76.684 -148.470 -82.425Z" style="fill:#FFFFFF;fill-opacity:0;stroke:#000000;stroke-width:2;"/>
<path d="M-114.695 -82.425C-114.695 -86.330 -111.530 -89.495 -107.625 -89.495C-103.720 -89.495 -100.555 -86.330 -100.555 -82.425C-100.555 -78.520 -103.720 -75.355 -107.625 -75.355C-111.530 -75.355 -114.695 -78.520 -114.695 -82.425Z" style="fill:#FFFFFF;fill-opacity:0;stroke:#000000;stroke-width:2;"/>
<path d="M-84.735 -82.425C-84.735 -86.600 -81.350 -89.985 -77.175 -89.985C-73.000 -89.985 -69.615 -86.600 -69.615 -82.425C-69.615 -78.250 -73.000 -74.865 -77.175 -74.865C-81.350 -74.865 -84.735 -78.250 -84.735 -82.425Z" style="fill:#FFFFFF;fill-opacity:0;stroke:#000000;stroke-width:2;"/>
<path d="M-61.215 -82.425C-61.215 -90.428 -54.728 -96.915 -46.725 -96.915C-38.722 -96.915 -32.235 -90.428 -32.235 -82.425C-32.235 -74.422 -38.722 -67.935 -46.725 -67.935C-54.728 -67.935 -61.215 -74.422 -61.215 -82.425Z" style="fill:#FFFFFF;fill-opacity:0;stroke:#000000;stroke-width:2;"/>
<path d="M-25.200 -82.425C-25.200 -87.354 -21.204 -91.350 -16.275 -91.350C-11.346 -91.350 -7.350 -87.354 -7.350 -82.425C-7.350 -77.496 -11.346 -73.500 -16.275 -73.500C-21.204 -73.500 -25.200 -77.496 -25.200 -82.425Z" style="fill:#FFFFFF;fill-opacity:0;stroke:#000000;stroke-width:2;"/>
<path d="M2.380 -82.425C2.380 -88.939 7.661 -94.220 14.175 -94.220C20.689 -94.220 25.970 -88.939 25.970 -82.425C25.970 -75.911 20.689 -70.630 14.175 -70.630C7.661 -70.630 2.380 -75.911 2.380 -82.425Z" style="fill:#FFFFFF;fill-opacity:0;stroke:#000000;stroke-width:2;"/>
<path d="M33.775 -82.425C33.775 -88.417 38.633 -93.275 44.625 -93.275C50.617 -93.275 55.475 -88.417 55.475 -82.425C55.475 -76.433 50.617 -71.575 44.625 -71.575C38.633 -71.575 33.775 -76.433 33.775 -82.425Z" style="fill:#FFFFFF;fill-opacity:0;stroke:#000000;stroke-width:2;"/>
<path d="M64.470 -82.425C64.470 -88.282 69.218 -93.030 75.075 -93.030C80.932 -93.030 85.680 -88.282 85.680 -82.425C85.680 -76.568 80.932 -71.820 75.075 -71.820C69.218 -71.820 64.470 -76.568 64.470 -82.425Z" style="fill:#FFFFFF;fill-opacity:0;stroke:#000000;stroke-width:2;"/>
<path d="M96.180 -82.425C96.180 -87.586 100.364 -91.770 105.525 -91.770C110.686 -91.770 114.870 -87.586 114.870 -82.425C114.870 -77.264 110.686 -73.080 105.525 -73.080C100.364 -73.080 96.180 -77.264 96.180 -82.425Z" style="fill:#FFFFFF;fill-opacity:0;stroke:#000000;stroke-width:2;"/>
<path d="M126.035 -82.425C126.035 -87.915 130.485 -92.365 135.975 -92.365C141.465 -92.365 145.915 -87.915 145.915 -82.425C145.915 -76.935 141.465 -72.485 135.975 -72.485C130.485 -72.485 126.035 -76.935 126.035 -82.425Z" style="fill:#FFFFFF;fill-opacity:0;stroke:#000000;stroke-width:2;"/>
<path d="M154.735 -82.425C154.735 -88.881 159.969 -94.115 166.425 -94.115C172.881 -94.115 178.115 -88.881 178.115 -82.425C178.115 -75.969 172.881 -70.735 166.425 -70.735C159.969 -70.735 154.735 -75.969 154.735 -82.425Z" style="fill:#FFFFFF;fill-opacity:0;stroke:#000000;stroke-width:2;"/>
<path d="M184.520 -82.425C184.520 -89.248 190.052 -94.780 196.875 -94.780C203.698 -94.780 209.230 -89.248 209.230 -82.425C209.230 -75.602 203.698 -70.070 196.875 -70.070C190.052 -70.070 184.520 -75.602 184.520 -82.425Z" style="fill:#FFFFFF;fill-opacity:0;stroke:#000000;stroke-width:2;"/>
<path d="M213.465 -82.425C213.465 -90.080 219.670 -96.285 227.325 -96.285C234.980 -96.285 241.185 -90.080 241.185 -82.425C241.185 -74.770 234.980 -68.565 227.325 -68.565C219.670 -68.565 213.465 -74.770 213.465 -82.425Z" style="fill:#FFFFFF;fill-opacity:0;stroke:#000000;stroke-width:2;"/>
<path d="M242.865 -82.425C242.865 -90.660 249.540 -97.335 257.775 -97.335C266.010 -97.335 272.685 -90.660 272.685 -82.425C272.685 -74.190 266.010 -67.515 257.775 -67.515C249.540 -67.515 242.865 -74.190 242.865 -82.425Z" style="fill:#FFFFFF;fill-opacity:0;stroke:#000000;stroke-width:2;"/>
<path d="M273.525 -82.425C273.525 -90.544 280.106 -97.125 288.225 -97.125C296.344 -97.125 302.925 -90.544 302.925 -82.425C302.925 -74.306 296.344 -67.725 288.225 -67.725C280.106 -67.725 273.525 -74.306 273.525 -82.425Z" style="fill:#FFFFFF;fill-opacity:0;stroke:#000000;stroke-width:2;"/>
<path d="M304.745 -82.425C304.745 -90.118 310.982 -96.355 318.675 -96.355C326.368 -96.355 332.605 -90.118 332.605 -82.425C332.605 -74.732 326.368 -68.495 318.675 -68.495C310.982 -68.495 304.745 -74.732 304.745 -82.425Z" style="fill:#FFFFFF;fill-opacity:0;stroke:#000000;stroke-width:2;"/>
<path d="M338.485 -82.425C338.485 -88.301 343.249 -93.065 349.125 -93.065C355.001 -93.065 359.765 -88.301 359.765 -82.425C359.765 -76.549 355.001 -71.785 349.125 -71.785C343.249 -71.785 338.485 -76.549 338.485 -82.425Z" style="fill:#FFFFFF;fill-opacity:0;stroke:#000000;stroke-width:2;"/>
<path d="M-337.925 -51.975C-337.925 -61.447 -330.247 -69.125 -320.775 -69.125C-311.303 -69.125 -303.625 -61.447 -303.625 -51.975C-303.625 -42.503 -311.303 -34.825 -320.775 -34.825C-330.247 -34.825 -337.925 -42.503 -337.925 -51.975Z" style="fill:#FFFFFF;fill-opacity:0;stroke:#000000;stroke-width:2;"/>
<path d="M-306.390 -51.975C-306.390 -60.847 -299.197 -68.040 -290.325 -68.040C-281.453 -68.040 -274.260 -60.847 -274.260 -51.975C-274.260 -43.103 -281.453 -35.910 -290.325 -35.910C-299.197 -35.910 -306.390 -43.103 -306.390 -51.975Z" style="fill:#FFFFFF;fill-opacity:0;stroke:#000000;stroke-width:2;"/>
<path d="M-276.850 -51.975C-276.850 -61.350 -269.250 -68.950 -259.875 -68.950C-250.500 -68.950 -242.900 -61.350 -242.900 -51.975C-242.900 -42.600 -250.500 -35 -259.875 -35C-269.250 -35 -276.850 -42.600 -276.850 -51.975Z" style="fill:#FFFFFF;fill-opacity:0;stroke:#000000;stroke-width:2;"/>
<path d="M-247.100 -51.975C-247.100 -61.737 -239.187 -69.650 -229.425 -69.650C-219.663 -69.650 -211.750 -61.737 -211.750 -51.975C-211.750 -42.213 -219.663 -34.300 -229.425 -34.300C-239.187 -34.300 -247.100 -42.213 -247.100 -51.975Z" style="fill:#FFFFFF;fill-opacity:0;stroke:#000000;stroke-width:2;"/>
<path d="M-212.485 -51.975C-212.485 -59.436 -206.436 -65.485 -198.975 -65.485C-191.514 -65.485 -185.465 -59.436 -185.465 -51.975C-185.465 -44.514 -191.514 -38.465 -198.975 -38.465C-206.436 -38.465 -212.485 -44.514 -212.485 -51.975Z" style="fill:#FFFFFF;fill-opacity:0;stroke:#000000;stroke-width:2;"/>
<path d="M-174.440 -51.975C-174.440 -55.242 -171.792 -57.890 -168.525 -57.890C-165.258 -57.890 -162.610 -55.242 -162.610 -51.975C-162.610 -48.708 -165.258 -46.060 -168.525 -46.060C-171.792 -46.060 -174.440 -48.708 -174.440 -51.975Z" style="fill:#FFFFFF;fill-opacity:0;stroke:#000000;stroke-width:2;"/>
<path d="M-144.375 -51.975C-144.375 -55.454 -141.554 -58.275 -138.075 -58.275C-134.596 -58.275 -131.775 -55.454 -131.775 -51.975C-131.775 -48.496 -134.596 -45.675 -138.075 -45.675C-141.554 -45.675 -144.375 -48.496 -144.375 -51.975Z" style="fill:#FFFFFF;fill-opacity:0;stroke:#000000;stroke-width:2;"/>
<path d="M-113.750 -51.975C-113.750 -55.358 -111.008 -58.100 -107.625 -58.100C-104.242 -58.100 -101.500 -55.358 -101.500 -51.975C-101.500 -48.592 -104.242 -45.850 -107.625 -45.850C-111.008 -45.850 -113.750 -48.592 -113.750 -51.975Z" style="fill:#FFFFFF;fill-opacity:0;stroke:#000000;stroke-width:2;"/>
<path d="M-83.160 -51.975C-83.160 -55.280 -80.480 -57.960 -77.175 -57.960C-73.870 -57.960 -71.190 -55.280 -71.190 -51.975C-71.190 -48.670 -73.870 -45.990 -77.175 -45.990C-80.480 -45.990 -83.160 -48.670 -83.160 -51.975Z" style="fill:#FFFFFF;fill-opacity:0;stroke:#000000;stroke-width:2;"/>
<path d="M-51.065 -51.975C-51.065 -54.372 -49.122 -56.315 -46.725 -56.315C-44.328 -56.315 -42.385 -54.372 -42.385 -51.975C-42.385 -49.578 -44.328 -47.635 -46.725 -47.635C-49.122 -47.635 -51.065 -49.578 -51.065 -51.975Z" style="fill:#FFFFFF;fill-opacity:0;stroke:#000000;stroke-width:2;"/>
<path d="M-24.395 -51.975C-24.395 -56.460 -20.760 -60.095 -16.275 -60.095C-11.790 -60.095 -8.155 -56.460 -8.155 -51.975C-8.155 -47.490 -11.790 -43.855 -16.275 -43.855C-20.760 -43.855 -24.395 -47.490 -24.395 -51.975Z" style="fill:#FFFFFF;fill-opacity:0;stroke:#000000;stroke-width:2;"/>
<path d="M3.500 -51.975C3.500 -57.871 8.279 -62.650 14.175 -62.650C20.071 -62.650 24.850 -57.871 24.850 -51.975C24.850 -46.079 20.071 -41.300 14.175 -41.300C8.279 -41.300 3.500 -46.079 3.500 -51.975Z" style="fill:#FFFFFF;fill-opacity:0;stroke:#000000;stroke-width:2;"/>
<path d="M34.615 -51.975C34.615 -57.503 39.097 -61.985 44.625 -61.985C50.153 -61.985 54.635 -57.503 54.635 -51.975C54.635 -46.447 50.153 -41.965 44.625 -41.965C39.097 -41.965 34.615 -46.447 34.615 -51.975Z" style="fill:#FFFFFF;fill-opacity:0;stroke:#000000;stroke-width:2;"/>
<path d="M61.950 -51.975C61.950 -59.224 67.826 -65.100 75.075 -65.100C82.324 -65.100 88.200 -59.224 88.200 -51.975C88.200 -44.726 82.324 -38.850 75.075 -38.850C67.826 -38.850 61.950 -44.726 61.950 -51.975Z" style="fill:#FFFFFF;fill-opacity:0;stroke:#000000;stroke-width:2;"/>
<path d="M95.795 -51.975C95.795 -57.349 100.151 -61.705 105.525 -61.705C110.899 -61.705 115.255 -57.349 115.255 -51.975C115.255 -46.601 110.899 -42.245 105.525 -42.245C100.151 -42.245 95.795 -46.601 95.795 -51.975Z" style="fill:#FFFFFF;fill-opacity:0;stroke:#000000;stroke-width:2;"/>
<path d="M125.720 -51.975C125.720 -57.639 130.311 -62.230 135.975 -62.230C141.639 -62.230 146.230 -57.639 146.230 -51.975C146.230 -46.311 141.639 -41.720 135.975 -41.720C130.311 -41.720 125.720 -46.311 125.720 -51.975Z" style="fill:#FFFFFF;fill-opacity:0;stroke:#000000;stroke-width:2;"/>
<path d="M155.365 -51.975C155.365 -58.083 160.317 -63.035 166.425 -63.035C172.533 -63.035 177.485 -58.083 177.485 -51.975C177.485 -45.867 172.533 -40.915 166.425 -40.915C160.317 -40.915 155.365 -45.867 155.365 -51.975Z" style="fill:#FFFFFF;fill-opacity:0;stroke:#000000;stroke-width:2;"/>
<path d="M184.100 -51.975C184.100 -59.030 189.820 -64.750 196.875 -64.750C203.930 -64.750 209.650 -59.030 209.650 -51.975C209.650 -44.920 203.930 -39.200 196.875 -39.200C189.820 -39.200 184.100 -44.920 184.100 -51.975Z" style="fill:#FFFFFF;fill-opacity:0;stroke:#000000;stroke-width:2;"/>
<path d="M213.500 -51.975C213.500 -59.610 219.690 -65.800 227.325 -65.800C234.960 -65.800 241.150 -59.610 241.150 -51.975C241.150 -44.340 234.960 -38.150 227.325 -38.150C219.690 -38.150 213.500 -44.340 213.500 -51.975Z" style="fill:#FFFFFF;fill-opacity:0;stroke:#000000;stroke-width:2;"/>
<path d="M242.935 -51.975C242.935 -60.171 249.579 -66.815 257.775 -66.815C265.971 -66.815 272.615 -60.171 272.615 -51.975C272.615 -43.779 265.971 -37.135 257.775 -37.135C249.579 -37.135 242.935 -43.779 242.935 -51.975Z" style="fill:#FFFFFF;fill-opacity:0;stroke:#000000;stroke-width:2;"/>
<path d="M272.475 -51.975C272.475 -60.673 279.527 -67.725 288.225 -67.725C296.923 -67.725 303.975 -60.673 303.975 -51.975C303.975 -43.277 296.923 -36.225 288.225 -36.225C279.527 -36.225 272.475 -43.277 272.475 -51.975Z" style="fill:#FFFFFF;fill-opacity:0;stroke:#000000;stroke-width:2;"/>
<path d="M301.280 -51.975C301.280 -61.582 309.068 -69.370 318.675 -69.370C328.282 -69.370 336.070 -61.582 336.070 -51.975C336.070 -42.368 328.282 -34.580 318.675 -34.580C309.068 -34.580 301.280 -42.368 301.280 -51.975Z" style="fill:#FFFFFF;fill-opacity:0;stroke:#000000;stroke-width:2;"/>
<path d="M343.210 -51.975C343.210 -55.242 345.858 -57.890 349.125 -57.890C352.392 -57.890 355.040 -55.242 355.040 -51.975C355.040 -48.708 352.392 -46.060 349.125 -46.060C345.858 -46.060 343.210 -48.708 343.210 -51.975Z" style="fill:#FFFFFF;fill-opacity:0;stroke:#000000;stroke-width:2;"/>
<path d="M-335.790 -21.525C-335.790 -29.818 -329.068 -36.540 -320.775 -36.540C-312.482 -36.540 -305.760 -29.818 -305.760 -21.525C-305.760 -13.232 -312.482 -6.510 -320.775 -6.510C-329.068 -6.510 -335.790 -13.232 -335.790 -21.525Z" style="fill:#FFFFFF;fill-opacity:0;stroke:#000000;stroke-width:2;"/>
<path d="M-305.970 -21.525C-305.970 -30.165 -298.965 -37.170 -290.325 -37.170C-281.685 -37.170 -274.680 -30.165 -274.680 -21.525C-274.680 -12.885 -281.685 -5.880 -290.325 -5.880C-298.965 -5.880 -305.970 -12.885 -305.970 -21.525Z" style="fill:#FFFFFF;fill-opacity:0;stroke:#000000;stroke-width:2;"/>
<path d="M-276.605 -21.525C-276.605 -30.765 -269.115 -38.255 -259.875 -38.255C-250.635 -38.255 -243.145 -30.765 -243.145 -21.525C-243.145 -12.285 -250.635 -4.795 -259.875 -4.795C-269.115 -4.795 -276.605 -12.285 -276.605 -21.525Z" style="fill:#FFFFFF;fill-opacity:0;stroke:#000000;stroke-width:2;"/>
<path d="M-246.540 -21.525C-246.540 -30.977 -238.877 -38.640 -229.425 -38.640C-219.973 -38.640 -212.310 -30.977 -212.310 -21.525C-212.310 -12.073 -219.973 -4.410 -229.425 -4.410C-238.877 -4.410 -246.540 -12.073 -246.540 -21.525Z" style="fill:#FFFFFF;fill-opacity:0;stroke:#000000;stroke-width:2;"/>
<path d="M-210.350 -21.525C-210.350 -27.807 -205.257 -32.900 -198.975 -32.900C-192.693 -32.900 -187.600 -27.807 -187.600 -21.525C-187.600 -15.243 -192.693 -10.150 -198.975 -10.150C-205.257 -10.150 -210.350 -15.243 -210.350 -21.525Z" style="fill:#FFFFFF;fill-opacity:0;stroke:#000000;stroke-width:2;"/>
<path d="M-178.080 -21.525C-178.080 -26.802 -173.802 -31.080 -168.525 -31.080C-163.248 -31.080 -158.970 -26.802 -158.970 -21.525C-158.970 -16.248 -163.248 -11.970 -168.525 -11.970C-173.802 -11.970 -178.080 -16.248 -178.080 -21.525Z" style="fill:#FFFFFF;fill-opacity:0;stroke:#000000;stroke-width:2;"/>
<path d="M-148.505 -21.525C-148.505 -27.285 -143.835 -31.955 -138.075 -31.955C-132.315 -31.955 -127.645 -27.285 -127.645 -21.525C-127.645 -15.765 -132.315 -11.095 -138.075 -11.095C-143.835 -11.095 -148.505 -15.765 -148.505 -21.525Z" style="fill:#FFFFFF;fill-opacity:0;stroke:#000000;stroke-width:2;"/>
<path d="M-120.225 -21.525C-120.225 -28.484 -114.584 -34.125 -107.625 -34.125C-100.666 -34.125 -95.025 -28.484 -95.025 -21.525C-95.025 -14.566 -100.666 -8.925 -107.625 -8.925C-114.584 -8.925 -120.225 -14.566 -120.225 -21.525Z" style="fill:#FFFFFF;fill-opacity:0;stroke:#000000;stroke-width:2;"/>
<path d="M-91.770 -21.525C-91.770 -29.586 -85.236 -36.120 -77.175 -36.120C-69.114 -36.120 -62.580 -29.586 -62.580 -21.525C-62.580 -13.464 -69.114 -6.930 -77.175 -6.930C-85.236 -6.930 -91.770 -13.464 -91.770 -21.525Z" style="fill:#FFFFFF;fill-opacity:0;stroke:#000000;stroke-width:2;"/>
<path d="M-61.565 -21.525C-61.565 -29.721 -54.921 -36.365 -46.725 -36.365C-38.529 -36.365 -31.885 -29.721 -31.885 -21.525C-31.885 -13.329 -38.529 -6.685 -46.725 -6.685C-54.921 -6.685 -61.565 -13.329 -61.565 -21.525Z" style="fill:#FFFFFF;fill-opacity:0;stroke:#000000;stroke-width:2;"/>
<path d="M-28.385 -21.525C-28.385 -28.213 -22.963 -33.635 -16.275 -33.635C-9.587 -33.635 -4.165 -28.213 -4.165 -21.525C-4.165 -14.837 -9.587 -9.415 -16.275 -9.415C-22.963 -9.415 -28.385 -14.837 -28.385 -21.525Z" style="fill:#FFFFFF;fill-opacity:0;stroke:#000000;stroke-width:2;"/>
<path d="M3.640 -21.525C3.640 -27.343 8.357 -32.060 14.175 -32.060C19.993 -32.060 24.710 -27.343 24.710 -21.525C24.710 -15.707 19.993 -10.990 14.175 -10.990C8.357 -10.990 3.640 -15.707 3.640 -21.525Z" style="fill:#FFFFFF;fill-opacity:0;stroke:#000000;stroke-width:2;"/>
<path d="M34.055 -21.525C34.055 -27.363 38.787 -32.095 44.625 -32.095C50.463 -32.095 55.195 -27.363 55.195 -21.525C55.195 -15.687 50.463 -10.955 44.625 -10.955C38.787 -10.955 34.055 -15.687 34.055 -21.525Z" style="fill:#FFFFFF;fill-opacity:0;stroke:#000000;stroke-width:2;"/>
<path d="M64.750 -21.525C64.750 -27.227 69.373 -31.850 75.075 -31.850C80.777 -31.850 85.400 -27.227 85.400 -21.525C85.400 -15.823 80.777 -11.200 75.075 -11.200C69.373 -11.200 64.750 -15.823 64.750 -21.525Z" style="fill:#FFFFFF;fill-opacity:0;stroke:#000000;stroke-width:2;"/>
<path d="M92.820 -21.525C92.820 -28.542 98.508 -34.230 105.525 -34.230C112.542 -34.230 118.230 -28.542 118.230 -21.525C118.230 -14.508 112.542 -8.820 105.525 -8.820C98.508 -8.820 92.820 -14.508 92.820 -21.525Z" style="fill:#FFFFFF;fill-opacity:0;stroke:#000000;stroke-width:2;"/>
<path d="M125.825 -21.525C125.825 -27.131 130.369 -31.675 135.975 -31.675C141.581 -31.675 146.125 -27.131 146.125 -21.525C146.125 -15.919 141.581 -11.375 135.975 -11.375C130.369 -11.375 125.825 -15.919 125.825 -21.525Z" style="fill:#FFFFFF;fill-opacity:0;stroke:#000000;stroke-width:2;"/>
<path d="M155.085 -21.525C155.085 -27.788 160.162 -32.865 166.425 -32.865C172.688 -32.865 177.765 -27.788 177.765 -21.525C177.765 -15.262 172.688 -10.185 166.425 -10.185C160.162 -10.185 155.085 -15.262 155.085 -21.525Z" style="fill:#FFFFFF;fill-opacity:0;stroke:#000000;stroke-width:2;"/>
<path d="M184.065 -21.525C184.065 -28.600 189.800 -34.335 196.875 -34.335C203.950 -34.335 209.685 -28.600 209.685 -21.525C209.685 -14.450 203.950 -8.715 196.875 -8.715C189.800 -8.715 184.065 -14.450 184.065 -21.525Z" style="fill:#FFFFFF;fill-opacity:0;stroke:#000000;stroke-width:2;"/>
<path d="M213.675 -21.525C213.675 -29.064 219.786 -35.175 227.325 -35.175C234.864 -35.175 240.975 -29.064 240.975 -21.525C240.975 -13.986 234.864 -7.875 227.325 -7.875C219.786 -7.875 213.675 -13.986 213.675 -21.525Z" style="fill:#FFFFFF;fill-opacity:0;stroke:#000000;stroke-width:2;"/>
<path d="M243.355 -21.525C243.355 -29.489 249.811 -35.945 257.775 -35.945C265.739 -35.945 272.195 -29.489 272.195 -21.525C272.195 -13.561 265.739 -7.105 257.775 -7.105C249.811 -7.105 243.355 -13.561 243.355 -21.525Z" style="fill:#FFFFFF;fill-opacity:0;stroke:#000000;stroke-width:2;"/>
<path d="M271.530 -21.525C271.530 -30.745 279.005 -38.220 288.225 -38.220C297.445 -38.220 304.920 -30.745 304.920 -21.525C304.920 -12.305 297.445 -4.830 288.225 -4.830C279.005 -4.830 271.530 -12.305 271.530 -21.525Z" style="fill:#FFFFFF;fill-opacity:0;stroke:#000000;stroke-width:2;"/>
<path d="M301.805 -21.525C301.805 -30.842 309.358 -38.395 318.675 -38.395C327.992 -38.395 335.545 -30.842 335.545 -21.525C335.545 -12.208 327.992 -4.655 318.675 -4.655C309.358 -4.655 301.805 -12.208 301.805 -21.525Z" style="fill:#FFFFFF;fill-opacity:0;stroke:#000000;stroke-width:2;"/>
<path d="M342.370 -21.525C342.370 -25.256 345.394 -28.280 349.125 -28.280C352.856 -28.280 355.880 -25.256 355.880 -21.525C355.880 -17.794 352.856 -14.770 349.125 -14.770C345.394 -14.770 342.370 -17.794 342.370 -21.525Z" style="fill:#FFFFFF;fill-opacity:0;stroke:#000000;stroke-width:2;"/>
<path d="M-335.685 8.925C-335.685 0.690 -329.010 -5.985 -320.775 -5.985C-312.540 -5.985 -305.865 0.690 -305.865 8.925C-305.865 17.160 -312.540 23.835 -320.775 23.835C-329.010 23.835 -335.685 17.160 -335.685 8.925Z" style="fill:#FFFFFF;fill-opacity:0;stroke:#000000;stroke-width:2;"/>
<path d="M-305.760 8.925C-305.760 0.400 -298.850 -6.510 -290.325 -6.510C-281.800 -6.510 -274.890 0.400 -274.890 8.925C-274.890 17.450 -281.800 24.360 -290.325 24.360C-298.850 24.360 -305.760 17.450 -305.760 8.925Z" style="fill:#FFFFFF;fill-opacity:0;stroke:#000000;stroke-width:2;"/>
<path d="M-276.185 8.925C-276.185 -0.083 -268.883 -7.385 -259.875 -7.385C-250.867 -7.385 -243.565 -0.083 -243.565 8.925C-243.565 17.933 -250.867 25.235 -259.875 25.235C-268.883 25.235 -276.185 17.933 -276.185 8.925Z" style="fill:#FFFFFF;fill-opacity:0;stroke:#000000;stroke-width:2;"/>
<path d="M-241.605 8.925C-241.605 2.198 -236.152 -3.255 -229.425 -3.255C-222.698 -3.255 -217.245 2.198 -217.245 8.925C-217.245 15.652 -222.698 21.105 -229.425 21.105C-236.152 21.105 -241.605 15.652 -241.605 8.925Z" style="fill:#FFFFFF;fill-opacity:0;stroke:#000000;stroke-width:2;"/>
<path d="M-209.440 8.925C-209.440 3.145 -204.755 -1.540 -198.975 -1.540C-193.195 -1.540 -188.510 3.145 -188.510 8.925C-188.510 14.705 -193.195 19.390 -198.975 19.390C-204.755 19.390 -209.440 14.705 -209.440 8.925Z" style="fill:#FFFFFF;fill-opacity:0;stroke:#000000;stroke-width:2;"/>
<path d="M-178.115 8.925C-178.115 3.629 -173.821 -0.665 -168.525 -0.665C-163.229 -0.665 -158.935 3.629 -158.935 8.925C-158.935 14.221 -163.229 18.515 -168.525 18.515C-173.821 18.515 -178.115 14.221 -178.115 8.925Z" style="fill:#FFFFFF;fill-opacity:0;stroke:#000000;stroke-width:2;"/>
<path d="M-149.800 8.925C-149.800 2.449 -144.551 -2.800 -138.075 -2.800C-131.599 -2.800 -126.350 2.449 -126.350 8.925C-126.350 15.401 -131.599 20.650 -138.075 20.650C-144.551 20.650 -149.800 15.401 -149.800 8.925Z" style="fill:#FFFFFF;fill-opacity:0;stroke:#000000;stroke-width:2;"/>
<path d="M-120.505 8.925C-120.505 1.812 -114.738 -3.955 -107.625 -3.955C-100.512 -3.955 -94.745 1.812 -94.745 8.925C-94.745 16.038 -100.512 21.805 -107.625 21.805C-114.738 21.805 -120.505 16.038 -120.505 8.925Z" style="fill:#FFFFFF;fill-opacity:0;stroke:#000000;stroke-width:2;"/>
<path d="M-91.910 8.925C-91.910 0.787 -85.313 -5.810 -77.175 -5.810C-69.037 -5.810 -62.440 0.787 -62.440 8.925C-62.440 17.063 -69.037 23.660 -77.175 23.660C-85.313 23.660 -91.910 17.063 -91.910 8.925Z" style="fill:#FFFFFF;fill-opacity:0;stroke:#000000;stroke-width:2;"/>
<path d="M-62.685 8.925C-62.685 0.111 -55.539 -7.035 -46.725 -7.035C-37.911 -7.035 -30.765 0.111 -30.765 8.925C-30.765 17.739 -37.911 24.885 -46.725 24.885C-55.539 24.885 -62.685 17.739 -62.685 8.925Z" style="fill:#FFFFFF;fill-opacity:0;stroke:#000000;stroke-width:2;"/>
<path d="M-33.355 8.925C-33.355 -0.508 -25.708 -8.155 -16.275 -8.155C-6.842 -8.155 0.805 -0.508 0.805 8.925C0.805 18.358 -6.842 26.005 -16.275 26.005C-25.708 26.005 -33.355 18.358 -33.355 8.925Z" style="fill:#FFFFFF;fill-opacity:0;stroke:#000000;stroke-width:2;"/>
<path d="M0.175 8.925C0.175 1.193 6.443 -5.075 14.175 -5.075C21.907 -5.075 28.175 1.193 28.175 8.925C28.175 16.657 21.907 22.925 14.175 22.925C6.443 22.925 0.175 16.657 0.175 8.925Z" style="fill:#FFFFFF;fill-opacity:0;stroke:#000000;stroke-width:2;"/>
<path d="M33.250 8.925C33.250 2.643 38.343 -2.450 44.625 -2.450C50.907 -2.450 56 2.643 56 8.925C56 15.207 50.907 20.300 44.625 20.300C38.343 20.300 33.250 15.207 33.250 8.925Z" style="fill:#FFFFFF;fill-opacity:0;stroke:#000000;stroke-width:2;"/>
<path d="M65.100 8.925C65.100 3.416 69.566 -1.050 75.075 -1.050C80.584 -1.050 85.050 3.416 85.050 8.925C85.050 14.434 80.584 18.900 75.075 18.900C69.566 18.900 65.100 14.434 65.100 8.925Z" style="fill:#FFFFFF;fill-opacity:0;stroke:#000000;stroke-width:2;"/>
<path d="M95.375 8.925C95.375 3.319 99.919 -1.225 105.525 -1.225C111.131 -1.225 115.675 3.319 115.675 8.925C115.675 14.531 111.131 19.075 105.525 19.075C99.919 19.075 95.375 14.531 95.375 8.925Z" style="fill:#FFFFFF;fill-opacity:0;stroke:#000000;stroke-width:2;"/>
<path d="M125.860 8.925C125.860 3.339 130.389 -1.190 135.975 -1.190C141.561 -1.190 146.090 3.339 146.090 8.925C146.090 14.511 141.561 19.040 135.975 19.040C130.389 19.040 125.860 14.511 125.860 8.925Z" style="fill:#FFFFFF;fill-opacity:0;stroke:#000000;stroke-width:2;"/>
<path d="M155.960 8.925C155.960 3.145 160.645 -1.540 166.425 -1.540C172.205 -1.540 176.890 3.145 176.890 8.925C176.890 14.705 172.205 19.390 166.425 19.390C160.645 19.390 155.960 14.705 155.960 8.925Z" style="fill:#FFFFFF;fill-opacity:0;stroke:#000000;stroke-width:2;"/>
<path d="M184.275 8.925C184.275 1.966 189.916 -3.675 196.875 -3.675C203.834 -3.675 209.475 1.966 209.475 8.925C209.475 15.884 203.834 21.525 196.875 21.525C189.916 21.525 184.275 15.884 184.275 8.925Z" style="fill:#FFFFFF;fill-opacity:0;stroke:#000000;stroke-width:2;"/>
<path d="M213.850 8.925C213.850 1.483 219.883 -4.550 227.325 -4.550C234.767 -4.550 240.800 1.483 240.800 8.925C240.800 16.367 234.767 22.400 227.325 22.400C219.883 22.400 213.850 16.367 213.850 8.925Z" style="fill:#FFFFFF;fill-opacity:0;stroke:#000000;stroke-width:2;"/>
<path d="M242.760 8.925C242.760 0.632 249.482 -6.090 257.775 -6.090C266.068 -6.090 272.790 0.632 272.790 8.925C272.790 17.218 266.068 23.940 257.775 23.940C249.482 23.940 242.760 17.218 242.760 8.925Z" style="fill:#FFFFFF;fill-opacity:0;stroke:#000000;stroke-width:2;"/>
<path d="M272.090 8.925C272.090 0.014 279.314 -7.210 288.225 -7.210C297.136 -7.210 304.360 0.014 304.360 8.925C304.360 17.836 297.136 25.060 288.225 25.060C279.314 25.060 272.090 17.836 272.090 8.925Z" style="fill:#FFFFFF;fill-opacity:0;stroke:#000000;stroke-width:2;"/>
<path d="M302.645 8.925C302.645 0.072 309.822 -7.105 318.675 -7.105C327.528 -7.105 334.705 0.072 334.705 8.925C334.705 17.778 327.528 24.955 318.675 24.955C309.822 24.955 302.645 17.778 302.645 8.925Z" style="fill:#FFFFFF;fill-opacity:0;stroke:#000000;stroke-width:2;"/>
<path d="M343.455 8.925C343.455 5.794 345.994 3.255 349.125 3.255C352.256 3.255 354.795 5.794 354.795 8.925C354.795 12.056 352.256 14.595 349.125 14.595C345.994 14.595 343.455 12.056 343.455 8.925Z" style="fill:#FFFFFF;fill-opacity:0;stroke:#000000;stroke-width:2;"/>
<path d="M-334.775 39.375C-334.775 31.643 -328.507 25.375 -320.775 25.375C-313.043 25.375 -306.775 31.643 -306.775 39.375C-306.775 47.107 -313.043 53.375 -320.775 53.375C-328.507 53.375 -334.775 47.107 -334.775 39.375Z" style="fill:#FFFFFF;fill-opacity:0;stroke:#000000;stroke-width:2;"/>
<path d="M-304.500 39.375C-304.500 31.546 -298.154 25.200 -290.325 25.200C-282.496 25.200 -276.150 31.546 -276.150 39.375C-276.150 47.204 -282.496 53.550 -290.325 53.550C-298.154 53.550 -304.500 47.204 -304.500 39.375Z" style="fill:#FFFFFF;fill-opacity:0;stroke:#000000;stroke-width:2;"/>
<path d="M-276.325 39.375C-276.325 30.290 -268.960 22.925 -259.875 22.925C-250.790 22.925 -243.425 30.290 -243.425 39.375C-243.425 48.460 -250.790 55.825 -259.875 55.825C-268.960 55.825 -276.325 48.460 -276.325 39.375Z" style="fill:#FFFFFF;fill-opacity:0;stroke:#000000;stroke-width:2;"/>
<path d="M-239.015 39.375C-239.015 34.079 -234.721 29.785 -229.425 29.785C-224.129 29.785 -219.835 34.079 -219.835 39.375C-219.835 44.671 -224.129 48.965 -229.425 48.965C-234.721 48.965 -239.015 44.671 -239.015 39.375Z" style="fill:#FFFFFF;fill-opacity:0;stroke:#000000;stroke-width:2;"/>
<path d="M-208.390 39.375C-208.390 34.175 -204.175 29.960 -198.975 29.960C-193.775 29.960 -189.560 34.175 -189.560 39.375C-189.560 44.575 -193.775 48.790 -198.975 48.790C-204.175 48.790 -208.390 44.575 -208.390 39.375Z" style="fill:#FFFFFF;fill-opacity:0;stroke:#000000;stroke-width:2;"/>
<path d="M-178.815 39.375C-178.815 33.692 -174.208 29.085 -168.525 29.085C-162.842 29.085 -158.235 33.692 -158.235 39.375C-158.235 45.058 -162.842 49.665 -168.525 49.665C-174.208 49.665 -178.815 45.058 -178.815 39.375Z" style="fill:#FFFFFF;fill-opacity:0;stroke:#000000;stroke-width:2;"/>
<path d="M-149.800 39.375C-149.800 32.899 -144.551 27.650 -138.075 27.650C-131.599 27.650 -126.350 32.899 -126.350 39.375C-126.350 45.851 -131.599 51.100 -138.075 51.100C-144.551 51.100 -149.800 45.851 -149.800 39.375Z" style="fill:#FFFFFF;fill-opacity:0;stroke:#000000;stroke-width:2;"/>
<path d="M-121.240 39.375C-121.240 31.856 -115.144 25.760 -107.625 25.760C-100.106 25.760 -94.010 31.856 -94.010 39.375C-94.010 46.894 -100.106 52.990 -107.625 52.990C-115.144 52.990 -121.240 46.894 -121.240 39.375Z" style="fill:#FFFFFF;fill-opacity:0;stroke:#000000;stroke-width:2;"/>
<path d="M-92.155 39.375C-92.155 31.102 -85.448 24.395 -77.175 24.395C-68.902 24.395 -62.195 31.102 -62.195 39.375C-62.195 47.648 -68.902 54.355 -77.175 54.355C-85.448 54.355 -92.155 47.648 -92.155 39.375Z" style="fill:#FFFFFF;fill-opacity:0;stroke:#000000;stroke-width:2;"/>
<path d="M-62.335 39.375C-62.335 30.754 -55.346 23.765 -46.725 23.765C-38.104 23.765 -31.115 30.754 -31.115 39.375C-31.115 47.996 -38.104 54.985 -46.725 54.985C-55.346 54.985 -62.335 47.996 -62.335 39.375Z" style="fill:#FFFFFF;fill-opacity:0;stroke:#000000;stroke-width:2;"/>
<path d="M-33.215 39.375C-33.215 30.019 -25.631 22.435 -16.275 22.435C-6.919 22.435 0.665 30.019 0.665 39.375C0.665 48.731 -6.919 56.315 -16.275 56.315C-25.631 56.315 -33.215 48.731 -33.215 39.375Z" style="fill:#FFFFFF;fill-opacity:0;stroke:#000000;stroke-width:2;"/>
<path d="M-4.410 39.375C-4.410 29.111 3.911 20.790 14.175 20.790C24.439 20.790 32.760 29.111 32.760 39.375C32.760 49.639 24.439 57.960 14.175 57.960C3.911 57.960 -4.410 49.639 -4.410 39.375Z" style="fill:#FFFFFF;fill-opacity:0;stroke:#000000;stroke-width:2;"/>
<path d="M31.920 39.375C31.920 32.358 37.608 26.670 44.625 26.670C51.642 26.670 57.330 32.358 57.330 39.375C57.330 46.392 51.642 52.080 44.625 52.080C37.608 52.080 31.920 46.392 31.920 39.375Z" style="fill:#FFFFFF;fill-opacity:0;stroke:#000000;stroke-width:2;"/>
<path d="M65.065 39.375C65.065 33.847 69.547 29.365 75.075 29.365C80.603 29.365 85.085 33.847 85.085 39.375C85.085 44.903 80.603 49.385 75.075 49.385C69.547 49.385 65.065 44.903 65.065 39.375Z" style="fill:#FFFFFF;fill-opacity:0;stroke:#000000;stroke-width:2;"/>
<path d="M95.480 39.375C95.480 33.827 99.977 29.330 105.525 29.330C111.073 29.330 115.570 33.827 115.570 39.375C115.570 44.923 111.073 49.420 105.525 49.420C99.977 49.420 95.480 44.923 95.480 39.375Z" style="fill:#FFFFFF;fill-opacity:0;stroke:#000000;stroke-width:2;"/>
<path d="M125.720 39.375C125.720 33.711 130.311 29.120 135.975 29.120C141.639 29.120 146.230 33.711 146.230 39.375C146.230 45.039 141.639 49.630 135.975 49.630C130.311 49.630 125.720 45.039 125.720 39.375Z" style="fill:#FFFFFF;fill-opacity:0;stroke:#000000;stroke-width:2;"/>
<path d="M155.995 39.375C155.995 33.615 160.665 28.945 166.425 28.945C172.185 28.945 176.855 33.615 176.855 39.375C176.855 45.135 172.185 49.805 166.425 49.805C160.665 49.805 155.995 45.135 155.995 39.375Z" style="fill:#FFFFFF;fill-opacity:0;stroke:#000000;stroke-width:2;"/>
<path d="M184.835 39.375C184.835 32.725 190.225 27.335 196.875 27.335C203.525 27.335 208.915 32.725 208.915 39.375C208.915 46.025 203.525 51.415 196.875 51.415C190.225 51.415 184.835 46.025 184.835 39.375Z" style="fill:#FFFFFF;fill-opacity:0;stroke:#000000;stroke-width:2;"/>
<path d="M214.130 39.375C214.130 32.088 220.038 26.180 227.325 26.180C234.612 26.180 240.520 32.088 240.520 39.375C240.520 46.662 234.612 52.570 227.325 52.570C220.038 52.570 214.130 46.662 214.130 39.375Z" style="fill:#FFFFFF;fill-opacity:0;stroke:#000000;stroke-width:2;"/>
<path d="M243.880 39.375C243.880 31.701 250.101 25.480 257.775 25.480C265.449 25.480 271.670 31.701 271.670 39.375C271.670 47.049 265.449 53.270 257.775 53.270C250.101 53.270 243.880 47.049 243.880 39.375Z" style="fill:#FFFFFF;fill-opacity:0;stroke:#000000;stroke-width:2;"/>
<path d="M272.160 39.375C272.160 30.503 279.353 23.310 288.225 23.310C297.097 23.310 304.290 30.503 304.290 39.375C304.290 48.247 297.097 55.440 288.225 55.440C279.353 55.440 272.160 48.247 272.160 39.375Z" style="fill:#FFFFFF;fill-opacity:0;stroke:#000000;stroke-width:2;"/>
<path d="M301.980 39.375C301.980 30.155 309.455 22.680 318.675 22.680C327.895 22.680 335.370 30.155 335.370 39.375C335.370 48.595 327.895 56.070 318.675 56.070C309.455 56.070 301.980 48.595 301.980 39.375Z" style="fill:#FFFFFF;fill-opacity:0;stroke:#000000;stroke-width:2;"/>
<path d="M337.050 39.375C337.050 32.706 342.456 27.300 349.125 27.300C355.794 27.300 361.200 32.706 361.200 39.375C361.200 46.044 355.794 51.450 349.125 51.450C342.456 51.450 337.050 46.044 337.050 39.375Z" style="fill:#FFFFFF;fill-opacity:0;stroke:#000000;stroke-width:2;"/>
<path d="M-332.745 69.825C-332.745 63.214 -327.386 57.855 -320.775 57.855C-314.164 57.855 -308.805 63.214 -308.805 69.825C-308.805 76.436 -314.164 81.795 -320.775 81.795C-327.386 81.795 -332.745 76.436 -332.745 69.825Z" style="fill:#FFFFFF;fill-opacity:0;stroke:#000000;stroke-width:2;"/>
<path d="M-307.720 69.825C-307.720 60.218 -299.932 52.430 -290.325 52.430C-280.718 52.430 -272.930 60.218 -272.930 69.825C-272.930 79.432 -280.718 87.220 -290.325 87.220C-299.932 87.220 -307.720 79.432 -307.720 69.825Z" style="fill:#FFFFFF;fill-opacity:0;stroke:#000000;stroke-width:2;"/>
<path d="M-270.025 69.825C-270.025 64.219 -265.481 59.675 -259.875 59.675C-254.269 59.675 -249.725 64.219 -249.725 69.825C-249.725 75.431 -254.269 79.975 -259.875 79.975C-265.481 79.975 -270.025 75.431 -270.025 69.825Z" style="fill:#FFFFFF;fill-opacity:0;stroke:#000000;stroke-width:2;"/>
<path d="M-239.120 69.825C-239.120 64.471 -234.779 60.130 -229.425 60.130C-224.071 60.130 -219.730 64.471 -219.730 69.825C-219.730 75.179 -224.071 79.520 -229.425 79.520C-234.779 79.520 -239.120 75.179 -239.120 69.825Z" style="fill:#FFFFFF;fill-opacity:0;stroke:#000000;stroke-width:2;"/>
<path d="M-208.215 69.825C-208.215 64.722 -204.078 60.585 -198.975 60.585C-193.872 60.585 -189.735 64.722 -189.735 69.825C-189.735 74.928 -193.872 79.065 -198.975 79.065C-204.078 79.065 -208.215 74.928 -208.215 69.825Z" style="fill:#FFFFFF;fill-opacity:0;stroke:#000000;stroke-width:2;"/>
<path d="M-179.690 69.825C-179.690 63.659 -174.691 58.660 -168.525 58.660C-162.359 58.660 -157.360 63.659 -157.360 69.825C-157.360 75.991 -162.359 80.990 -168.525 80.990C-174.691 80.990 -179.690 75.991 -179.690 69.825Z" style="fill:#FFFFFF;fill-opacity:0;stroke:#000000;stroke-width:2;"/>
<path d="M-150.570 69.825C-150.570 62.924 -144.976 57.330 -138.075 57.330C-131.174 57.330 -125.580 62.924 -125.580 69.825C-125.580 76.726 -131.174 82.320 -138.075 82.320C-144.976 82.320 -150.570 76.726 -150.570 69.825Z" style="fill:#FFFFFF;fill-opacity:0;stroke:#000000;stroke-width:2;"/>
<path d="M-121.345 69.825C-121.345 62.248 -115.202 56.105 -107.625 56.105C-100.048 56.105 -93.905 62.248 -93.905 69.825C-93.905 77.402 -100.048 83.545 -107.625 83.545C-115.202 83.545 -121.345 77.402 -121.345 69.825Z" style="fill:#FFFFFF;fill-opacity:0;stroke:#000000;stroke-width:2;"/>
<path d="M-91.910 69.825C-91.910 61.687 -85.313 55.090 -77.175 55.090C-69.037 55.090 -62.440 61.687 -62.440 69.825C-62.440 77.963 -69.037 84.560 -77.175 84.560C-85.313 84.560 -91.910 77.963 -91.910 69.825Z" style="fill:#FFFFFF;fill-opacity:0;stroke:#000000;stroke-width:2;"/>
<path d="M-62.545 69.825C-62.545 61.088 -55.462 54.005 -46.725 54.005C-37.988 54.005 -30.905 61.088 -30.905 69.825C-30.905 78.562 -37.988 85.645 -46.725 85.645C-55.462 85.645 -62.545 78.562 -62.545 69.825Z" style="fill:#FFFFFF;fill-opacity:0;stroke:#000000;stroke-width:2;"/>
<path d="M-33.425 69.825C-33.425 60.353 -25.747 52.675 -16.275 52.675C-6.803 52.675 0.875 60.353 0.875 69.825C0.875 79.297 -6.803 86.975 -16.275 86.975C-25.747 86.975 -33.425 79.297 -33.425 69.825Z" style="fill:#FFFFFF;fill-opacity:0;stroke:#000000;stroke-width:2;"/>
<path d="M-4.445 69.825C-4.445 59.541 3.891 51.205 14.175 51.205C24.459 51.205 32.795 59.541 32.795 69.825C32.795 80.109 24.459 88.445 14.175 88.445C3.891 88.445 -4.445 80.109 -4.445 69.825Z" style="fill:#FFFFFF;fill-opacity:0;stroke:#000000;stroke-width:2;"/>
<path d="M30.590 69.825C30.590 62.074 36.874 55.790 44.625 55.790C52.376 55.790 58.660 62.074 58.660 69.825C58.660 77.576 52.376 83.860 44.625 83.860C36.874 83.860 30.590 77.576 30.590 69.825Z" style="fill:#FFFFFF;fill-opacity:0;stroke:#000000;stroke-width:2;"/>
<path d="M63.980 69.825C63.980 63.697 68.947 58.730 75.075 58.730C81.203 58.730 86.170 63.697 86.170 69.825C86.170 75.953 81.203 80.920 75.075 80.920C68.947 80.920 63.980 75.953 63.980 69.825Z" style="fill:#FFFFFF;fill-opacity:0;stroke:#000000;stroke-width:2;"/>
<path d="M95.620 69.825C95.620 64.355 100.055 59.920 105.525 59.920C110.995 59.920 115.430 64.355 115.430 69.825C115.430 75.295 110.995 79.730 105.525 79.730C100.055 79.730 95.620 75.295 95.620 69.825Z" style="fill:#FFFFFF;fill-opacity:0;stroke:#000000;stroke-width:2;"/>
<path d="M125.685 69.825C125.685 64.142 130.292 59.535 135.975 59.535C141.658 59.535 146.265 64.142 146.265 69.825C146.265 75.508 141.658 80.115 135.975 80.115C130.292 80.115 125.685 75.508 125.685 69.825Z" style="fill:#FFFFFF;fill-opacity:0;stroke:#000000;stroke-width:2;"/>
<path d="M155.960 69.825C155.960 64.045 160.645 59.360 166.425 59.360C172.205 59.360 176.890 64.045 176.890 69.825C176.890 75.605 172.205 80.290 166.425 80.290C160.645 80.290 155.960 75.605 155.960 69.825Z" style="fill:#FFFFFF;fill-opacity:0;stroke:#000000;stroke-width:2;"/>
<path d="M185.675 69.825C185.675 63.639 190.689 58.625 196.875 58.625C203.061 58.625 208.075 63.639 208.075 69.825C208.075 76.011 203.061 81.025 196.875 81.025C190.689 81.025 185.675 76.011 185.675 69.825Z" style="fill:#FFFFFF;fill-opacity:0;stroke:#000000;stroke-width:2;"/>
<path d="M215.215 69.825C215.215 63.137 220.637 57.715 227.325 57.715C234.013 57.715 239.435 63.137 239.435 69.825C239.435 76.513 234.013 81.935 227.325 81.935C220.637 81.935 215.215 76.513 215.215 69.825Z" style="fill:#FFFFFF;fill-opacity:0;stroke:#000000;stroke-width:2;"/>
<path d="M244.510 69.825C244.510 62.499 250.449 56.560 257.775 56.560C265.101 56.560 271.040 62.499 271.040 69.825C271.040 77.151 265.101 83.090 257.775 83.090C250.449 83.090 244.510 77.151 244.510 69.825Z" style="fill:#FFFFFF;fill-opacity:0;stroke:#000000;stroke-width:2;"/>
<path d="M275.205 69.825C275.205 62.634 281.034 56.805 288.225 56.805C295.416 56.805 301.245 62.634 301.245 69.825C301.245 77.016 295.416 82.845 288.225 82.845C281.034 82.845 275.205 77.016 275.205 69.825Z" style="fill:#FFFFFF;fill-opacity:0;stroke:#000000;stroke-width:2;"/>
<path d="M303.870 69.825C303.870 61.648 310.498 55.020 318.675 55.020C326.852 55.020 333.480 61.648 333.480 69.825C333.480 78.002 326.852 84.630 318.675 84.630C310.498 84.630 303.870 78.002 303.870 69.825Z" style="fill:#FFFFFF;fill-opacity:0;stroke:#000000;stroke-width:2;"/>
<path d="M337.085 69.825C337.085 63.175 342.475 57.785 349.125 57.785C355.775 57.785 361.165 63.175 361.165 69.825C361.165 76.475 355.775 81.865 349.125 81.865C342.475 81.865 337.085 76.475 337.085 69.825Z" style="fill:#FFFFFF;fill-opacity:0;stroke:#000000;stroke-width:2;"/>
<path d="M-337.050 100.275C-337.050 91.287 -329.763 84 -320.775 84C-311.787 84 -304.500 91.287 -304.500 100.275C-304.500 109.263 -311.787 116.550 -320.775 116.550C-329.763 116.550 -337.050 109.263 -337.050 100.275Z" style="fill:#FFFFFF;fill-opacity:0;stroke:#000000;stroke-width:2;"/>
<path d="M-300.090 100.275C-300.090 94.882 -295.718 90.510 -290.325 90.510C-284.932 90.510 -280.560 94.882 -280.560 100.275C-280.560 105.668 -284.932 110.040 -290.325 110.040C-295.718 110.040 -300.090 105.668 -300.090 100.275Z" style="fill:#FFFFFF;fill-opacity:0;stroke:#000000;stroke-width:2;"/>
<path d="M-270.025 100.275C-270.025 94.669 -265.481 90.125 -259.875 90.125C-254.269 90.125 -249.725 94.669 -249.725 100.275C-249.725 105.881 -254.269 110.425 -259.875 110.425C-265.481 110.425 -270.025 105.881 -270.025 100.275Z" style="fill:#FFFFFF;fill-opacity:0;stroke:#000000;stroke-width:2;"/>
<path d="M-239.120 100.275C-239.120 94.921 -234.779 90.580 -229.425 90.580C-224.071 90.580 -219.730 94.921 -219.730 100.275C-219.730 105.629 -224.071 109.970 -229.425 109.970C-234.779 109.970 -239.120 105.629 -239.120 100.275Z" style="fill:#FFFFFF;fill-opacity:0;stroke:#000000;stroke-width:2;"/>
<path d="M-208.425 100.275C-208.425 95.056 -204.194 90.825 -198.975 90.825C-193.756 90.825 -189.525 95.056 -189.525 100.275C-189.525 105.494 -193.756 109.725 -198.975 109.725C-204.194 109.725 -208.425 105.494 -208.425 100.275Z" style="fill:#FFFFFF;fill-opacity:0;stroke:#000000;stroke-width:2;"/>
<path d="M-180.145 100.275C-180.145 93.857 -174.943 88.655 -168.525 88.655C-162.107 88.655 -156.905 93.857 -156.905 100.275C-156.905 106.693 -162.107 111.895 -168.525 111.895C-174.943 111.895 -180.145 106.693 -180.145 100.275Z" style="fill:#FFFFFF;fill-opacity:0;stroke:#000000;stroke-width:2;"/>
<path d="M-151.025 100.275C-151.025 93.123 -145.227 87.325 -138.075 87.325C-130.923 87.325 -125.125 93.123 -125.125 100.275C-125.125 107.427 -130.923 113.225 -138.075 113.225C-145.227 113.225 -151.025 107.427 -151.025 100.275Z" style="fill:#FFFFFF;fill-opacity:0;stroke:#000000;stroke-width:2;"/>
<path d="M-121.520 100.275C-121.520 92.601 -115.299 86.380 -107.625 86.380C-99.951 86.380 -93.730 92.601 -93.730 100.275C-93.730 107.949 -99.951 114.170 -107.625 114.170C-115.299 114.170 -121.520 107.949 -121.520 100.275Z" style="fill:#FFFFFF;fill-opacity:0;stroke:#000000;stroke-width:2;"/>
<path d="M-92.505 100.275C-92.505 91.808 -85.642 84.945 -77.175 84.945C-68.708 84.945 -61.845 91.808 -61.845 100.275C-61.845 108.742 -68.708 115.605 -77.175 115.605C-85.642 115.605 -92.505 108.742 -92.505 100.275Z" style="fill:#FFFFFF;fill-opacity:0;stroke:#000000;stroke-width:2;"/>
<path d="M-64.120 100.275C-64.120 90.668 -56.332 82.880 -46.725 82.880C-37.118 82.880 -29.330 90.668 -29.330 100.275C-29.330 109.882 -37.118 117.670 -46.725 117.670C-56.332 117.670 -64.120 109.882 -64.120 100.275Z" style="fill:#FFFFFF;fill-opacity:0;stroke:#000000;stroke-width:2;"/>
<path d="M-32.935 100.275C-32.935 91.074 -25.476 83.615 -16.275 83.615C-7.074 83.615 0.385 91.074 0.385 100.275C0.385 109.476 -7.074 116.935 -16.275 116.935C-25.476 116.935 -32.935 109.476 -32.935 100.275Z" style="fill:#FFFFFF;fill-opacity:0;stroke:#000000;stroke-width:2;"/>
<path d="M-3.990 100.275C-3.990 90.243 4.143 82.110 14.175 82.110C24.207 82.110 32.340 90.243 32.340 100.275C32.340 110.307 24.207 118.440 14.175 118.440C4.143 118.440 -3.990 110.307 -3.990 100.275Z" style="fill:#FFFFFF;fill-opacity:0;stroke:#000000;stroke-width:2;"/>
<path d="M28.035 100.275C28.035 91.113 35.463 83.685 44.625 83.685C53.787 83.685 61.215 91.113 61.215 100.275C61.215 109.437 53.787 116.865 44.625 116.865C35.463 116.865 28.035 109.437 28.035 100.275Z" style="fill:#FFFFFF;fill-opacity:0;stroke:#000000;stroke-width:2;"/>
<path d="M64.470 100.275C64.470 94.418 69.218 89.670 75.075 89.670C80.932 89.670 85.680 94.418 85.680 100.275C85.680 106.132 80.932 110.880 75.075 110.880C69.218 110.880 64.470 106.132 64.470 100.275Z" style="fill:#FFFFFF;fill-opacity:0;stroke:#000000;stroke-width:2;"/>
<path d="M95.970 100.275C95.970 94.998 100.248 90.720 105.525 90.720C110.802 90.720 115.080 94.998 115.080 100.275C115.080 105.552 110.802 109.830 105.525 109.830C100.248 109.830 95.970 105.552 95.970 100.275Z" style="fill:#FFFFFF;fill-opacity:0;stroke:#000000;stroke-width:2;"/>
<path d="M126.455 100.275C126.455 95.017 130.717 90.755 135.975 90.755C141.233 90.755 145.495 95.017 145.495 100.275C145.495 105.533 141.233 109.795 135.975 109.795C130.717 109.795 126.455 105.533 126.455 100.275Z" style="fill:#FFFFFF;fill-opacity:0;stroke:#000000;stroke-width:2;"/>
<path d="M156.415 100.275C156.415 94.747 160.897 90.265 166.425 90.265C171.953 90.265 176.435 94.747 176.435 100.275C176.435 105.803 171.953 110.285 166.425 110.285C160.897 110.285 156.415 105.803 156.415 100.275Z" style="fill:#FFFFFF;fill-opacity:0;stroke:#000000;stroke-width:2;"/>
<path d="M186.235 100.275C186.235 94.399 190.999 89.635 196.875 89.635C202.751 89.635 207.515 94.399 207.515 100.275C207.515 106.151 202.751 110.915 196.875 110.915C190.999 110.915 186.235 106.151 186.235 100.275Z" style="fill:#FFFFFF;fill-opacity:0;stroke:#000000;stroke-width:2;"/>
<path d="M216.650 100.275C216.650 94.379 221.429 89.600 227.325 89.600C233.221 89.600 238.000 94.379 238.000 100.275C238.000 106.171 233.221 110.950 227.325 110.950C221.429 110.950 216.650 106.171 216.650 100.275Z" style="fill:#FFFFFF;fill-opacity:0;stroke:#000000;stroke-width:2;"/>
<path d="M245.070 100.275C245.070 93.258 250.758 87.570 257.775 87.570C264.792 87.570 270.480 93.258 270.480 100.275C270.480 107.292 264.792 112.980 257.775 112.980C250.758 112.980 245.070 107.292 245.070 100.275Z" style="fill:#FFFFFF;fill-opacity:0;stroke:#000000;stroke-width:2;"/>
<path d="M275.555 100.275C275.555 93.278 281.228 87.605 288.225 87.605C295.222 87.605 300.895 93.278 300.895 100.275C300.895 107.272 295.222 112.945 288.225 112.945C281.228 112.945 275.555 107.272 275.555 100.275Z" style="fill:#FFFFFF;fill-opacity:0;stroke:#000000;stroke-width:2;"/>
<path d="M302.575 100.275C302.575 91.383 309.783 84.175 318.675 84.175C327.567 84.175 334.775 91.383 334.775 100.275C334.775 109.167 327.567 116.375 318.675 116.375C309.783 116.375 302.575 109.167 302.575 100.275Z" style="fill:#FFFFFF;fill-opacity:0;stroke:#000000;stroke-width:2;"/>
<path d="M333.550 100.275C333.550 91.673 340.523 84.700 349.125 84.700C357.727 84.700 364.700 91.673 364.700 100.275C364.700 108.877 357.727 115.850 349.125 115.850C340.523 115.850 333.550 108.877 333.550 100.275Z" style="fill:#FFFFFF;fill-opacity:0;stroke:#000000;stroke-width:2;"/>
<path d="M-337.785 130.725C-337.785 121.331 -330.169 113.715 -320.775 113.715C-311.381 113.715 -303.765 121.331 -303.765 130.725C-303.765 140.119 -311.381 147.735 -320.775 147.735C-330.169 147.735 -337.785 140.119 -337.785 130.725Z" style="fill:#FFFFFF;fill-opacity:0;stroke:#000000;stroke-width:2;"/>
<path d="M-299.635 130.725C-299.635 125.583 -295.467 121.415 -290.325 121.415C-285.183 121.415 -281.015 125.583 -281.015 130.725C-281.015 135.867 -285.183 140.035 -290.325 140.035C-295.467 140.035 -299.635 135.867 -299.635 130.725Z" style="fill:#FFFFFF;fill-opacity:0;stroke:#000000;stroke-width:2;"/>
<path d="M-270.060 130.725C-270.060 125.100 -265.500 120.540 -259.875 120.540C-254.250 120.540 -249.690 125.100 -249.690 130.725C-249.690 136.350 -254.250 140.910 -259.875 140.910C-265.500 140.910 -270.060 136.350 -270.060 130.725Z" style="fill:#FFFFFF;fill-opacity:0;stroke:#000000;stroke-width:2;"/>
<path d="M-239.540 130.725C-239.540 125.139 -235.011 120.610 -229.425 120.610C-223.839 120.610 -219.310 125.139 -219.310 130.725C-219.310 136.311 -223.839 140.840 -229.425 140.840C-235.011 140.840 -239.540 136.311 -239.540 130.725Z" style="fill:#FFFFFF;fill-opacity:0;stroke:#000000;stroke-width:2;"/>
<path d="M-209.195 130.725C-209.195 125.081 -204.619 120.505 -198.975 120.505C-193.331 120.505 -188.755 125.081 -188.755 130.725C-188.755 136.369 -193.331 140.945 -198.975 140.945C-204.619 140.945 -209.195 136.369 -209.195 130.725Z" style="fill:#FFFFFF;fill-opacity:0;stroke:#000000;stroke-width:2;"/>
<path d="M-184.975 130.725C-184.975 121.640 -177.610 114.275 -168.525 114.275C-159.440 114.275 -152.075 121.640 -152.075 130.725C-152.075 139.810 -159.440 147.175 -168.525 147.175C-177.610 147.175 -184.975 139.810 -184.975 130.725Z" style="fill:#FFFFFF;fill-opacity:0;stroke:#000000;stroke-width:2;"/>
<path d="M-150.920 130.725C-150.920 123.631 -145.169 117.880 -138.075 117.880C-130.981 117.880 -125.230 123.631 -125.230 130.725C-125.230 137.819 -130.981 143.570 -138.075 143.570C-145.169 143.570 -150.920 137.819 -150.920 130.725Z" style="fill:#FFFFFF;fill-opacity:0;stroke:#000000;stroke-width:2;"/>
<path d="M-121.835 130.725C-121.835 122.877 -115.473 116.515 -107.625 116.515C-99.777 116.515 -93.415 122.877 -93.415 130.725C-93.415 138.573 -99.777 144.935 -107.625 144.935C-115.473 144.935 -121.835 138.573 -121.835 130.725Z" style="fill:#FFFFFF;fill-opacity:0;stroke:#000000;stroke-width:2;"/>
<path d="M-92.015 130.725C-92.015 122.529 -85.371 115.885 -77.175 115.885C-68.979 115.885 -62.335 122.529 -62.335 130.725C-62.335 138.921 -68.979 145.565 -77.175 145.565C-85.371 145.565 -92.015 138.921 -92.015 130.725Z" style="fill:#FFFFFF;fill-opacity:0;stroke:#000000;stroke-width:2;"/>
<path d="M-64.855 130.725C-64.855 120.712 -56.738 112.595 -46.725 112.595C-36.712 112.595 -28.595 120.712 -28.595 130.725C-28.595 140.738 -36.712 148.855 -46.725 148.855C-56.738 148.855 -64.855 140.738 -64.855 130.725Z" style="fill:#FFFFFF;fill-opacity:0;stroke:#000000;stroke-width:2;"/>
<path d="M-32.410 130.725C-32.410 121.814 -25.186 114.590 -16.275 114.590C-7.364 114.590 -0.140 121.814 -0.140 130.725C-0.140 139.636 -7.364 146.860 -16.275 146.860C-25.186 146.860 -32.410 139.636 -32.410 130.725Z" style="fill:#FFFFFF;fill-opacity:0;stroke:#000000;stroke-width:2;"/>
<path d="M-4.480 130.725C-4.480 120.422 3.872 112.070 14.175 112.070C24.478 112.070 32.830 120.422 32.830 130.725C32.830 141.028 24.478 149.380 14.175 149.380C3.872 149.380 -4.480 141.028 -4.480 130.725Z" style="fill:#FFFFFF;fill-opacity:0;stroke:#000000;stroke-width:2;"/>
<path d="M28.105 130.725C28.105 121.601 35.501 114.205 44.625 114.205C53.749 114.205 61.145 121.601 61.145 130.725C61.145 139.849 53.749 147.245 44.625 147.245C35.501 147.245 28.105 139.849 28.105 130.725Z" style="fill:#FFFFFF;fill-opacity:0;stroke:#000000;stroke-width:2;"/>
<path d="M65.695 130.725C65.695 125.545 69.895 121.345 75.075 121.345C80.255 121.345 84.455 125.545 84.455 130.725C84.455 135.905 80.255 140.105 75.075 140.105C69.895 140.105 65.695 135.905 65.695 130.725Z" style="fill:#FFFFFF;fill-opacity:0;stroke:#000000;stroke-width:2;"/>
<path d="M94.465 130.725C94.465 124.617 99.417 119.665 105.525 119.665C111.633 119.665 116.585 124.617 116.585 130.725C116.585 136.833 111.633 141.785 105.525 141.785C99.417 141.785 94.465 136.833 94.465 130.725Z" style="fill:#FFFFFF;fill-opacity:0;stroke:#000000;stroke-width:2;"/>
<path d="M126.315 130.725C126.315 125.390 130.640 121.065 135.975 121.065C141.310 121.065 145.635 125.390 145.635 130.725C145.635 136.060 141.310 140.385 135.975 140.385C130.640 140.385 126.315 136.060 126.315 130.725Z" style="fill:#FFFFFF;fill-opacity:0;stroke:#000000;stroke-width:2;"/>
<path d="M157.045 130.725C157.045 125.545 161.245 121.345 166.425 121.345C171.605 121.345 175.805 125.545 175.805 130.725C175.805 135.905 171.605 140.105 166.425 140.105C161.245 140.105 157.045 135.905 157.045 130.725Z" style="fill:#FFFFFF;fill-opacity:0;stroke:#000000;stroke-width:2;"/>
<path d="M187.425 130.725C187.425 125.506 191.656 121.275 196.875 121.275C202.094 121.275 206.325 125.506 206.325 130.725C206.325 135.944 202.094 140.175 196.875 140.175C191.656 140.175 187.425 135.944 187.425 130.725Z" style="fill:#FFFFFF;fill-opacity:0;stroke:#000000;stroke-width:2;"/>
<path d="M216.265 130.725C216.265 124.617 221.217 119.665 227.325 119.665C233.433 119.665 238.385 124.617 238.385 130.725C238.385 136.833 233.433 141.785 227.325 141.785C221.217 141.785 216.265 136.833 216.265 130.725Z" style="fill:#FFFFFF;fill-opacity:0;stroke:#000000;stroke-width:2;"/>
<path d="M245.175 130.725C245.175 123.766 250.816 118.125 257.775 118.125C264.734 118.125 270.375 123.766 270.375 130.725C270.375 137.684 264.734 143.325 257.775 143.325C250.816 143.325 245.175 137.684 245.175 130.725Z" style="fill:#FFFFFF;fill-opacity:0;stroke:#000000;stroke-width:2;"/>
<path d="M273.700 130.725C273.700 122.703 280.203 116.200 288.225 116.200C296.247 116.200 302.750 122.703 302.750 130.725C302.750 138.747 296.247 145.250 288.225 145.250C280.203 145.250 273.700 138.747 273.700 130.725Z" style="fill:#FFFFFF;fill-opacity:0;stroke:#000000;stroke-width:2;"/>
<path d="M302.785 130.725C302.785 121.949 309.899 114.835 318.675 114.835C327.451 114.835 334.565 121.949 334.565 130.725C334.565 139.501 327.451 146.615 318.675 146.615C309.899 146.615 302.785 139.501 302.785 130.725Z" style="fill:#FFFFFF;fill-opacity:0;stroke:#000000;stroke-width:2;"/>
<path d="M330.820 130.725C330.820 120.615 339.015 112.420 349.125 112.420C359.235 112.420 367.430 120.615 367.430 130.725C367.430 140.835 359.235 149.030 349.125 149.030C339.015 149.030 330.820 140.835 330.820 130.725Z" style="fill:#FFFFFF;fill-opacity:0;stroke:#000000;stroke-width:2;"/>
<path d="M-337.855 161.175C-337.855 151.742 -330.208 144.095 -320.775 144.095C-311.342 144.095 -303.695 151.742 -303.695 161.175C-303.695 170.608 -311.342 178.255 -320.775 178.255C-330.208 178.255 -337.855 170.608 -337.855 161.175Z" style="fill:#FFFFFF;fill-opacity:0;stroke:#000000;stroke-width:2;"/>
<path d="M-306.600 161.175C-306.600 152.187 -299.313 144.900 -290.325 144.900C-281.337 144.900 -274.050 152.187 -274.050 161.175C-274.050 170.163 -281.337 177.450 -290.325 177.450C-299.313 177.450 -306.600 170.163 -306.600 161.175Z" style="fill:#FFFFFF;fill-opacity:0;stroke:#000000;stroke-width:2;"/>
<path d="M-274.015 161.175C-274.015 153.366 -267.684 147.035 -259.875 147.035C-252.066 147.035 -245.735 153.366 -245.735 161.175C-245.735 168.984 -252.066 175.315 -259.875 175.315C-267.684 175.315 -274.015 168.984 -274.015 161.175Z" style="fill:#FFFFFF;fill-opacity:0;stroke:#000000;stroke-width:2;"/>
<path d="M-239.470 161.175C-239.470 155.627 -234.973 151.130 -229.425 151.130C-223.877 151.130 -219.380 155.627 -219.380 161.175C-219.380 166.723 -223.877 171.220 -229.425 171.220C-234.973 171.220 -239.470 166.723 -239.470 161.175Z" style="fill:#FFFFFF;fill-opacity:0;stroke:#000000;stroke-width:2;"/>
<path d="M-208.985 161.175C-208.985 155.647 -204.503 151.165 -198.975 151.165C-193.447 151.165 -188.965 155.647 -188.965 161.175C-188.965 166.703 -193.447 171.185 -198.975 171.185C-204.503 171.185 -208.985 166.703 -208.985 161.175Z" style="fill:#FFFFFF;fill-opacity:0;stroke:#000000;stroke-width:2;"/>
<path d="M-179.200 161.175C-179.200 155.279 -174.421 150.500 -168.525 150.500C-162.629 150.500 -157.850 155.279 -157.850 161.175C-157.850 167.071 -162.629 171.850 -168.525 171.850C-174.421 171.850 -179.200 167.071 -179.200 161.175Z" style="fill:#FFFFFF;fill-opacity:0;stroke:#000000;stroke-width:2;"/>
<path d="M-151.025 161.175C-151.025 154.023 -145.227 148.225 -138.075 148.225C-130.923 148.225 -125.125 154.023 -125.125 161.175C-125.125 168.327 -130.923 174.125 -138.075 174.125C-145.227 174.125 -151.025 168.327 -151.025 161.175Z" style="fill:#FFFFFF;fill-opacity:0;stroke:#000000;stroke-width:2;"/>
<path d="M-121.485 161.175C-121.485 153.520 -115.280 147.315 -107.625 147.315C-99.970 147.315 -93.765 153.520 -93.765 161.175C-93.765 168.830 -99.970 175.035 -107.625 175.035C-115.280 175.035 -121.485 168.830 -121.485 161.175Z" style="fill:#FFFFFF;fill-opacity:0;stroke:#000000;stroke-width:2;"/>
<path d="M-91.280 161.175C-91.280 153.385 -84.965 147.070 -77.175 147.070C-69.385 147.070 -63.070 153.385 -63.070 161.175C-63.070 168.965 -69.385 175.280 -77.175 175.280C-84.965 175.280 -91.280 168.965 -91.280 161.175Z" style="fill:#FFFFFF;fill-opacity:0;stroke:#000000;stroke-width:2;"/>
<path d="M-61.985 161.175C-61.985 152.747 -55.153 145.915 -46.725 145.915C-38.297 145.915 -31.465 152.747 -31.465 161.175C-31.465 169.603 -38.297 176.435 -46.725 176.435C-55.153 176.435 -61.985 169.603 -61.985 161.175Z" style="fill:#FFFFFF;fill-opacity:0;stroke:#000000;stroke-width:2;"/>
<path d="M-32.375 161.175C-32.375 152.283 -25.167 145.075 -16.275 145.075C-7.383 145.075 -0.175 152.283 -0.175 161.175C-0.175 170.067 -7.383 177.275 -16.275 177.275C-25.167 177.275 -32.375 170.067 -32.375 161.175Z" style="fill:#FFFFFF;fill-opacity:0;stroke:#000000;stroke-width:2;"/>
<path d="M-3.115 161.175C-3.115 151.626 4.626 143.885 14.175 143.885C23.724 143.885 31.465 151.626 31.465 161.175C31.465 170.724 23.724 178.465 14.175 178.465C4.626 178.465 -3.115 170.724 -3.115 161.175Z" style="fill:#FFFFFF;fill-opacity:0;stroke:#000000;stroke-width:2;"/>
<path d="M30.485 161.175C30.485 153.366 36.816 147.035 44.625 147.035C52.434 147.035 58.765 153.366 58.765 161.175C58.765 168.984 52.434 175.315 44.625 175.315C36.816 175.315 30.485 168.984 30.485 161.175Z" style="fill:#FFFFFF;fill-opacity:0;stroke:#000000;stroke-width:2;"/>
<path d="M65.100 161.175C65.100 155.666 69.566 151.200 75.075 151.200C80.584 151.200 85.050 155.666 85.050 161.175C85.050 166.684 80.584 171.150 75.075 171.150C69.566 171.150 65.100 166.684 65.100 161.175Z" style="fill:#FFFFFF;fill-opacity:0;stroke:#000000;stroke-width:2;"/>
<path d="M95.830 161.175C95.830 155.821 100.171 151.480 105.525 151.480C110.879 151.480 115.220 155.821 115.220 161.175C115.220 166.529 110.879 170.870 105.525 170.870C100.171 170.870 95.830 166.529 95.830 161.175Z" style="fill:#FFFFFF;fill-opacity:0;stroke:#000000;stroke-width:2;"/>
<path d="M126.385 161.175C126.385 155.879 130.679 151.585 135.975 151.585C141.271 151.585 145.565 155.879 145.565 161.175C145.565 166.471 141.271 170.765 135.975 170.765C130.679 170.765 126.385 166.471 126.385 161.175Z" style="fill:#FFFFFF;fill-opacity:0;stroke:#000000;stroke-width:2;"/>
<path d="M156.730 161.175C156.730 155.821 161.071 151.480 166.425 151.480C171.779 151.480 176.120 155.821 176.120 161.175C176.120 166.529 171.779 170.870 166.425 170.870C161.071 170.870 156.730 166.529 156.730 161.175Z" style="fill:#FFFFFF;fill-opacity:0;stroke:#000000;stroke-width:2;"/>
<path d="M186.585 161.175C186.585 155.492 191.192 150.885 196.875 150.885C202.558 150.885 207.165 155.492 207.165 161.175C207.165 166.858 202.558 171.465 196.875 171.465C191.192 171.465 186.585 166.858 186.585 161.175Z" style="fill:#FFFFFF;fill-opacity:0;stroke:#000000;stroke-width:2;"/>
<path d="M215.215 161.175C215.215 154.487 220.637 149.065 227.325 149.065C234.013 149.065 239.435 154.487 239.435 161.175C239.435 167.863 234.013 173.285 227.325 173.285C220.637 173.285 215.215 167.863 215.215 161.175Z" style="fill:#FFFFFF;fill-opacity:0;stroke:#000000;stroke-width:2;"/>
<path d="M243.880 161.175C243.880 153.501 250.101 147.280 257.775 147.280C265.449 147.280 271.670 153.501 271.670 161.175C271.670 168.849 265.449 175.070 257.775 175.070C250.101 175.070 243.880 168.849 243.880 161.175Z" style="fill:#FFFFFF;fill-opacity:0;stroke:#000000;stroke-width:2;"/>
<path d="M271.880 161.175C271.880 152.148 279.198 144.830 288.225 144.830C297.252 144.830 304.570 152.148 304.570 161.175C304.570 170.202 297.252 177.520 288.225 177.520C279.198 177.520 271.880 170.202 271.880 161.175Z" style="fill:#FFFFFF;fill-opacity:0;stroke:#000000;stroke-width:2;"/>
<path d="M302.820 161.175C302.820 152.419 309.919 145.320 318.675 145.320C327.431 145.320 334.530 152.419 334.530 161.175C334.530 169.931 327.431 177.030 318.675 177.030C309.919 177.030 302.820 169.931 302.820 161.175Z" style="fill:#FFFFFF;fill-opacity:0;stroke:#000000;stroke-width:2;"/>
<path d="M331.170 161.175C331.170 151.259 339.209 143.220 349.125 143.220C359.041 143.220 367.080 151.259 367.080 161.175C367.080 171.091 359.041 179.130 349.125 179.130C339.209 179.130 331.170 171.091 331.170 161.175Z" style="fill:#FFFFFF;fill-opacity:0;stroke:#000000;stroke-width:2;"/>
<path d="M-337.575 191.625C-337.575 182.347 -330.053 174.825 -320.775 174.825C-311.497 174.825 -303.975 182.347 -303.975 191.625C-303.975 200.903 -311.497 208.425 -320.775 208.425C-330.053 208.425 -337.575 200.903 -337.575 191.625Z" style="fill:#FFFFFF;fill-opacity:0;stroke:#000000;stroke-width:2;"/>
<path d="M-307.580 191.625C-307.580 182.095 -299.855 174.370 -290.325 174.370C-280.795 174.370 -273.070 182.095 -273.070 191.625C-273.070 201.155 -280.795 208.880 -290.325 208.880C-299.855 208.880 -307.580 201.155 -307.580 191.625Z" style="fill:#FFFFFF;fill-opacity:0;stroke:#000000;stroke-width:2;"/>
<path d="M-271.810 191.625C-271.810 185.033 -266.467 179.690 -259.875 179.690C-253.283 179.690 -247.940 185.033 -247.940 191.625C-247.940 198.217 -253.283 203.560 -259.875 203.560C-266.467 203.560 -271.810 198.217 -271.810 191.625Z" style="fill:#FFFFFF;fill-opacity:0;stroke:#000000;stroke-width:2;"/>
<path d="M-239.400 191.625C-239.400 186.116 -234.934 181.650 -229.425 181.650C-223.916 181.650 -219.450 186.116 -219.450 191.625C-219.450 197.134 -223.916 201.600 -229.425 201.600C-234.934 201.600 -239.400 197.134 -239.400 191.625Z" style="fill:#FFFFFF;fill-opacity:0;stroke:#000000;stroke-width:2;"/>
<path d="M-209.055 191.625C-209.055 186.058 -204.542 181.545 -198.975 181.545C-193.408 181.545 -188.895 186.058 -188.895 191.625C-188.895 197.192 -193.408 201.705 -198.975 201.705C-204.542 201.705 -209.055 197.192 -209.055 191.625Z" style="fill:#FFFFFF;fill-opacity:0;stroke:#000000;stroke-width:2;"/>
<path d="M-178.920 191.625C-178.920 185.884 -174.266 181.230 -168.525 181.230C-162.784 181.230 -158.130 185.884 -158.130 191.625C-158.130 197.366 -162.784 202.020 -168.525 202.020C-174.266 202.020 -178.920 197.366 -178.920 191.625Z" style="fill:#FFFFFF;fill-opacity:0;stroke:#000000;stroke-width:2;"/>
<path d="M-150.325 191.625C-150.325 184.860 -144.840 179.375 -138.075 179.375C-131.310 179.375 -125.825 184.860 -125.825 191.625C-125.825 198.390 -131.310 203.875 -138.075 203.875C-144.840 203.875 -150.325 198.390 -150.325 191.625Z" style="fill:#FFFFFF;fill-opacity:0;stroke:#000000;stroke-width:2;"/>
<path d="M-121.380 191.625C-121.380 184.028 -115.222 177.870 -107.625 177.870C-100.028 177.870 -93.870 184.028 -93.870 191.625C-93.870 199.222 -100.028 205.380 -107.625 205.380C-115.222 205.380 -121.380 199.222 -121.380 191.625Z" style="fill:#FFFFFF;fill-opacity:0;stroke:#000000;stroke-width:2;"/>
<path d="M-91.175 191.625C-91.175 183.893 -84.907 177.625 -77.175 177.625C-69.443 177.625 -63.175 183.893 -63.175 191.625C-63.175 199.357 -69.443 205.625 -77.175 205.625C-84.907 205.625 -91.175 199.357 -91.175 191.625Z" style="fill:#FFFFFF;fill-opacity:0;stroke:#000000;stroke-width:2;"/>
<path d="M-61.810 191.625C-61.810 183.294 -55.056 176.540 -46.725 176.540C-38.394 176.540 -31.640 183.294 -31.640 191.625C-31.640 199.956 -38.394 206.710 -46.725 206.710C-55.056 206.710 -61.810 199.956 -61.810 191.625Z" style="fill:#FFFFFF;fill-opacity:0;stroke:#000000;stroke-width:2;"/>
<path d="M-32.165 191.625C-32.165 182.849 -25.051 175.735 -16.275 175.735C-7.499 175.735 -0.385 182.849 -0.385 191.625C-0.385 200.401 -7.499 207.515 -16.275 207.515C-25.051 207.515 -32.165 200.401 -32.165 191.625Z" style="fill:#FFFFFF;fill-opacity:0;stroke:#000000;stroke-width:2;"/>
<path d="M-2.345 191.625C-2.345 182.501 5.051 175.105 14.175 175.105C23.299 175.105 30.695 182.501 30.695 191.625C30.695 200.749 23.299 208.145 14.175 208.145C5.051 208.145 -2.345 200.749 -2.345 191.625Z" style="fill:#FFFFFF;fill-opacity:0;stroke:#000000;stroke-width:2;"/>
<path d="M29.960 191.625C29.960 183.526 36.526 176.960 44.625 176.960C52.724 176.960 59.290 183.526 59.290 191.625C59.290 199.724 52.724 206.290 44.625 206.290C36.526 206.290 29.960 199.724 29.960 191.625Z" style="fill:#FFFFFF;fill-opacity:0;stroke:#000000;stroke-width:2;"/>
<path d="M65.240 191.625C65.240 186.193 69.643 181.790 75.075 181.790C80.507 181.790 84.910 186.193 84.910 191.625C84.910 197.057 80.507 201.460 75.075 201.460C69.643 201.460 65.240 197.057 65.240 191.625Z" style="fill:#FFFFFF;fill-opacity:0;stroke:#000000;stroke-width:2;"/>
<path d="M95.305 191.625C95.305 185.981 99.881 181.405 105.525 181.405C111.169 181.405 115.745 185.981 115.745 191.625C115.745 197.269 111.169 201.845 105.525 201.845C99.881 201.845 95.305 197.269 95.305 191.625Z" style="fill:#FFFFFF;fill-opacity:0;stroke:#000000;stroke-width:2;"/>
<path d="M122.150 191.625C122.150 183.990 128.340 177.800 135.975 177.800C143.610 177.800 149.800 183.990 149.800 191.625C149.800 199.260 143.610 205.450 135.975 205.450C128.340 205.450 122.150 199.260 122.150 191.625Z" style="fill:#FFFFFF;fill-opacity:0;stroke:#000000;stroke-width:2;"/>
<path d="M156.205 191.625C156.205 185.981 160.781 181.405 166.425 181.405C172.069 181.405 176.645 185.981 176.645 191.625C176.645 197.269 172.069 201.845 166.425 201.845C160.781 201.845 156.205 197.269 156.205 191.625Z" style="fill:#FFFFFF;fill-opacity:0;stroke:#000000;stroke-width:2;"/>
<path d="M186.270 191.625C186.270 185.768 191.018 181.020 196.875 181.020C202.732 181.020 207.480 185.768 207.480 191.625C207.480 197.482 202.732 202.230 196.875 202.230C191.018 202.230 186.270 197.482 186.270 191.625Z" style="fill:#FFFFFF;fill-opacity:0;stroke:#000000;stroke-width:2;"/>
<path d="M215.250 191.625C215.250 184.956 220.656 179.550 227.325 179.550C233.994 179.550 239.400 184.956 239.400 191.625C239.400 198.294 233.994 203.700 227.325 203.700C220.656 203.700 215.250 198.294 215.250 191.625Z" style="fill:#FFFFFF;fill-opacity:0;stroke:#000000;stroke-width:2;"/>
<path d="M242.340 191.625C242.340 183.100 249.250 176.190 257.775 176.190C266.300 176.190 273.210 183.100 273.210 191.625C273.210 200.150 266.300 207.060 257.775 207.060C249.250 207.060 242.340 200.150 242.340 191.625Z" style="fill:#FFFFFF;fill-opacity:0;stroke:#000000;stroke-width:2;"/>
<path d="M272.965 191.625C272.965 183.197 279.797 176.365 288.225 176.365C296.653 176.365 303.485 183.197 303.485 191.625C303.485 200.053 296.653 206.885 288.225 206.885C279.797 206.885 272.965 200.053 272.965 191.625Z" style="fill:#FFFFFF;fill-opacity:0;stroke:#000000;stroke-width:2;"/>
<path d="M303.240 191.625C303.240 183.100 310.150 176.190 318.675 176.190C327.200 176.190 334.110 183.100 334.110 191.625C334.110 200.150 327.200 207.060 318.675 207.060C310.150 207.060 303.240 200.150 303.240 191.625Z" style="fill:#FFFFFF;fill-opacity:0;stroke:#000000;stroke-width:2;"/>
<path d="M331.940 191.625C331.940 182.134 339.634 174.440 349.125 174.440C358.616 174.440 366.310 182.134 366.310 191.625C366.310 201.116 358.616 208.810 349.125 208.810C339.634 208.810 331.940 201.116 331.940 191.625Z" style="fill:#FFFFFF;fill-opacity:0;stroke:#000000;stroke-width:2;"/>
</g>
</svg>
