<?xml version="1.0" encoding="utf-8"?><svg xmlns="http://www.w3.org/2000/svg" xmlns:xlink="http://www.w3.org/1999/xlink" x="-266.6666666666667" y="-198.33333333333334" width="533.3333333333334px" height="396.6666666666667px" viewBox="-266.6666666666667 -198.33333333333334 533.3333333333334 396.6666666666667"><g transform="scale(0.7)">
<g>
<path d="M-498.560 -364.800C-498.560 -371.516 -493.116 -376.960 -486.400 -376.960C-479.684 -376.960 -474.240 -371.516 -474.240 -364.800C-474.240 -358.084 -479.684 -352.640 -486.400 -352.640C-493.116 -352.640 -498.560 -358.084 -498.560 -364.800Z" style="fill:#FFFFFF;fill-opacity:0;stroke:#FF00FF;stroke-width:2;"/>
<path d="M-399.950 -364.800C-399.950 -401.002 -370.602 -430.350 -334.400 -430.350C-298.198 -430.350 -268.850 -401.002 -268.850 -364.800C-268.850 -328.598 -298.198 -299.250 -334.400 -299.250C-370.602 -299.250 -399.950 -328.598 -399.950 -364.800Z" style="fill:#FFFFFF;fill-opacity:0;stroke:#FF00FF;stroke-width:2;"/>
<path d="M-226.670 -364.800C-226.670 -389.250 -206.850 -409.070 -182.400 -409.070C-157.950 -409.070 -138.130 -389.250 -138.130 -364.800C-138.130 -340.350 -157.950 -320.530 -182.400 -320.530C-206.850 -320.530 -226.670 -340.350 -226.670 -364.800Z" style="fill:#FFFFFF;fill-opacity:0;stroke:#FF00FF;stroke-width:2;"/>
<path d="M-87.020 -364.800C-87.020 -396.070 -61.670 -421.420 -30.400 -421.420C0.870 -421.420 26.220 -396.070 26.220 -364.800C26.220 -333.530 0.870 -308.180 -30.400 -308.180C-61.670 -308.180 -87.020 -333.530 -87.020 -364.800Z" style="fill:#FFFFFF;fill-opacity:0;stroke:#FF00FF;stroke-width:2;"/>
<path d="M46.360 -364.800C46.360 -406.354 80.046 -440.040 121.600 -440.040C163.154 -440.040 196.840 -406.354 196.840 -364.800C196.840 -323.246 163.154 -289.560 121.600 -289.560C80.046 -289.560 46.360 -323.246 46.360 -364.800Z" style="fill:#FFFFFF;fill-opacity:0;stroke:#FF00FF;stroke-width:2;"/>
<path d="M198.360 -364.800C198.360 -406.354 232.046 -440.040 273.600 -440.040C315.154 -440.040 348.840 -406.354 348.840 -364.800C348.840 -323.246 315.154 -289.560 273.600 -289.560C232.046 -289.560 198.360 -323.246 198.360 -364.800Z" style="fill:#FFFFFF;fill-opacity:0;stroke:#FF00FF;stroke-width:2;"/>
<path d="M350.360 -364.800C350.360 -406.354 384.046 -440.040 425.600 -440.040C467.154 -440.040 500.840 -406.354 500.840 -364.800C500.840 -323.246 467.154 -289.560 425.600 -289.560C384.046 -289.560 350.360 -323.246 350.360 -364.800Z" style="fill:#FFFFFF;fill-opacity:0;stroke:#FF00FF;stroke-width:2;"/>
<path d="M-548.530 -212.800C-548.530 -247.113 -520.713 -274.930 -486.400 -274.930C-452.087 -274.930 -424.270 -247.113 -424.270 -212.800C-424.270 -178.487 -452.087 -150.670 -486.400 -150.670C-520.713 -150.670 -548.530 -178.487 -548.530 -212.800Z" style="fill:#FFFFFF;fill-opacity:0;stroke:#FF00FF;stroke-width:2;"/>
<path d="M-457.140 -212.800C-457.140 -280.587 -402.187 -335.540 -334.400 -335.540C-266.613 -335.540 -211.660 -280.587 -211.660 -212.800C-211.660 -145.013 -266.613 -90.060 -334.400 -90.060C-402.187 -90.060 -457.140 -145.013 -457.140 -212.800Z" style="fill:#FFFFFF;fill-opacity:0;stroke:#FF00FF;stroke-width:2;"/>
<path d="M-272.460 -212.800C-272.460 -262.539 -232.139 -302.860 -182.400 -302.860C-132.661 -302.860 -92.340 -262.539 -92.340 -212.800C-92.340 -163.061 -132.661 -122.740 -182.400 -122.740C-232.139 -122.740 -272.460 -163.061 -272.460 -212.800Z" style="fill:#FFFFFF;fill-opacity:0;stroke:#FF00FF;stroke-width:2;"/>
<path d="M-62.700 -212.800C-62.700 -230.639 -48.239 -245.100 -30.400 -245.100C-12.561 -245.100 1.900 -230.639 1.900 -212.800C1.900 -194.961 -12.561 -180.500 -30.400 -180.500C-48.239 -180.500 -62.700 -194.961 -62.700 -212.800Z" style="fill:#FFFFFF;fill-opacity:0;stroke:#FF00FF;stroke-width:2;"/>
<path d="M35.340 -212.800C35.340 -260.440 73.960 -299.060 121.600 -299.060C169.240 -299.060 207.860 -260.440 207.860 -212.800C207.860 -165.160 169.240 -126.540 121.600 -126.540C73.960 -126.540 35.340 -165.160 35.340 -212.800Z" style="fill:#FFFFFF;fill-opacity:0;stroke:#FF00FF;stroke-width:2;"/>
<path d="M135.660 -212.800C135.660 -288.982 197.418 -350.740 273.600 -350.740C349.782 -350.740 411.540 -288.982 411.540 -212.800C411.540 -136.618 349.782 -74.860 273.600 -74.860C197.418 -74.860 135.660 -136.618 135.660 -212.800Z" style="fill:#FFFFFF;fill-opacity:0;stroke:#FF00FF;stroke-width:2;"/>
<path d="M281.390 -212.800C281.390 -292.445 345.955 -357.010 425.600 -357.010C505.245 -357.010 569.810 -292.445 569.810 -212.800C569.810 -133.155 505.245 -68.590 425.600 -68.590C345.955 -68.590 281.390 -133.155 281.390 -212.800Z" style="fill:#FFFFFF;fill-opacity:0;stroke:#FF00FF;stroke-width:2;"/>
<path d="M-536.370 -60.800C-536.370 -88.398 -513.998 -110.770 -486.400 -110.770C-458.802 -110.770 -436.430 -88.398 -436.430 -60.800C-436.430 -33.202 -458.802 -10.830 -486.400 -10.830C-513.998 -10.830 -536.370 -33.202 -536.370 -60.800Z" style="fill:#FFFFFF;fill-opacity:0;stroke:#FF00FF;stroke-width:2;"/>
<path d="M-459.230 -60.800C-459.230 -129.742 -403.342 -185.630 -334.400 -185.630C-265.458 -185.630 -209.570 -129.742 -209.570 -60.800C-209.570 8.142 -265.458 64.030 -334.400 64.030C-403.342 64.030 -459.230 8.142 -459.230 -60.800Z" style="fill:#FFFFFF;fill-opacity:0;stroke:#FF00FF;stroke-width:2;"/>
<path d="M-259.730 -60.800C-259.730 -103.508 -225.108 -138.130 -182.400 -138.130C-139.692 -138.130 -105.070 -103.508 -105.070 -60.800C-105.070 -18.092 -139.692 16.530 -182.400 16.530C-225.108 16.530 -259.730 -18.092 -259.730 -60.800Z" style="fill:#FFFFFF;fill-opacity:0;stroke:#FF00FF;stroke-width:2;"/>
<path d="M-79.230 -60.800C-79.230 -87.768 -57.368 -109.630 -30.400 -109.630C-3.432 -109.630 18.430 -87.768 18.430 -60.800C18.430 -33.832 -3.432 -11.970 -30.400 -11.970C-57.368 -11.970 -79.230 -33.832 -79.230 -60.800Z" style="fill:#FFFFFF;fill-opacity:0;stroke:#FF00FF;stroke-width:2;"/>
<path d="M6.080 -60.800C6.080 -124.600 57.800 -176.320 121.600 -176.320C185.400 -176.320 237.120 -124.600 237.120 -60.800C237.120 3.000 185.400 54.720 121.600 54.720C57.800 54.720 6.080 3.000 6.080 -60.800Z" style="fill:#FFFFFF;fill-opacity:0;stroke:#FF00FF;stroke-width:2;"/>
<path d="M142.120 -60.800C142.120 -133.414 200.986 -192.280 273.600 -192.280C346.214 -192.280 405.080 -133.414 405.080 -60.800C405.080 11.814 346.214 70.680 273.600 70.680C200.986 70.680 142.120 11.814 142.120 -60.800Z" style="fill:#FFFFFF;fill-opacity:0;stroke:#FF00FF;stroke-width:2;"/>
<path d="M314.260 -60.800C314.260 -122.291 364.109 -172.140 425.600 -172.140C487.091 -172.140 536.940 -122.291 536.940 -60.800C536.940 0.691 487.091 50.540 425.600 50.540C364.109 50.540 314.260 0.691 314.260 -60.800Z" style="fill:#FFFFFF;fill-opacity:0;stroke:#FF00FF;stroke-width:2;"/>
<path d="M-524.590 91.200C-524.590 70.108 -507.492 53.010 -486.400 53.010C-465.308 53.010 -448.210 70.108 -448.210 91.200C-448.210 112.292 -465.308 129.390 -486.400 129.390C-507.492 129.390 -524.590 112.292 -524.590 91.200Z" style="fill:#FFFFFF;fill-opacity:0;stroke:#FF00FF;stroke-width:2;"/>
<path d="M-445.170 91.200C-445.170 30.023 -395.577 -19.570 -334.400 -19.570C-273.223 -19.570 -223.630 30.023 -223.630 91.200C-223.630 152.377 -273.223 201.970 -334.400 201.970C-395.577 201.970 -445.170 152.377 -445.170 91.200Z" style="fill:#FFFFFF;fill-opacity:0;stroke:#FF00FF;stroke-width:2;"/>
<path d="M-252.130 91.200C-252.130 52.689 -220.911 21.470 -182.400 21.470C-143.889 21.470 -112.670 52.689 -112.670 91.200C-112.670 129.711 -143.889 160.930 -182.400 160.930C-220.911 160.930 -252.130 129.711 -252.130 91.200Z" style="fill:#FFFFFF;fill-opacity:0;stroke:#FF00FF;stroke-width:2;"/>
<path d="M-114.190 91.200C-114.190 44.924 -76.676 7.410 -30.400 7.410C15.876 7.410 53.390 44.924 53.390 91.200C53.390 137.476 15.876 174.990 -30.400 174.990C-76.676 174.990 -114.190 137.476 -114.190 91.200Z" style="fill:#FFFFFF;fill-opacity:0;stroke:#FF00FF;stroke-width:2;"/>
<path d="M-19.760 91.200C-19.760 13.129 43.529 -50.160 121.600 -50.160C199.671 -50.160 262.960 13.129 262.960 91.200C262.960 169.271 199.671 232.560 121.600 232.560C43.529 232.560 -19.760 169.271 -19.760 91.200Z" style="fill:#FFFFFF;fill-opacity:0;stroke:#FF00FF;stroke-width:2;"/>
<path d="M153.330 91.200C153.330 24.777 207.177 -29.070 273.600 -29.070C340.023 -29.070 393.870 24.777 393.870 91.200C393.870 157.623 340.023 211.470 273.600 211.470C207.177 211.470 153.330 157.623 153.330 91.200Z" style="fill:#FFFFFF;fill-opacity:0;stroke:#FF00FF;stroke-width:2;"/>
<path d="M296.210 91.200C296.210 19.740 354.140 -38.190 425.600 -38.190C497.060 -38.190 554.990 19.740 554.990 91.200C554.990 162.660 497.060 220.590 425.600 220.590C354.140 220.590 296.210 162.660 296.210 91.200Z" style="fill:#FFFFFF;fill-opacity:0;stroke:#FF00FF;stroke-width:2;"/>
<path d="M-501.220 243.200C-501.220 235.015 -494.585 228.380 -486.400 228.380C-478.215 228.380 -471.580 235.015 -471.580 243.200C-471.580 251.385 -478.215 258.020 -486.400 258.020C-494.585 258.020 -501.220 251.385 -501.220 243.200Z" style="fill:#FFFFFF;fill-opacity:0;stroke:#FF00FF;stroke-width:2;"/>
<path d="M-404.510 243.200C-404.510 204.479 -373.121 173.090 -334.400 173.090C-295.679 173.090 -264.290 204.479 -264.290 243.200C-264.290 281.921 -295.679 313.310 -334.400 313.310C-373.121 313.310 -404.510 281.921 -404.510 243.200Z" style="fill:#FFFFFF;fill-opacity:0;stroke:#FF00FF;stroke-width:2;"/>
<path d="M-241.490 243.200C-241.490 210.565 -215.035 184.110 -182.400 184.110C-149.765 184.110 -123.310 210.565 -123.310 243.200C-123.310 275.835 -149.765 302.290 -182.400 302.290C-215.035 302.290 -241.490 275.835 -241.490 243.200Z" style="fill:#FFFFFF;fill-opacity:0;stroke:#FF00FF;stroke-width:2;"/>
<path d="M-125.780 243.200C-125.780 190.523 -83.077 147.820 -30.400 147.820C22.277 147.820 64.980 190.523 64.980 243.200C64.980 295.877 22.277 338.580 -30.400 338.580C-83.077 338.580 -125.780 295.877 -125.780 243.200Z" style="fill:#FFFFFF;fill-opacity:0;stroke:#FF00FF;stroke-width:2;"/>
<path d="M-3.990 243.200C-3.990 173.839 52.239 117.610 121.600 117.610C190.961 117.610 247.190 173.839 247.190 243.200C247.190 312.561 190.961 368.790 121.600 368.790C52.239 368.790 -3.990 312.561 -3.990 243.200Z" style="fill:#FFFFFF;fill-opacity:0;stroke:#FF00FF;stroke-width:2;"/>
<path d="M206.720 243.200C206.720 206.263 236.663 176.320 273.600 176.320C310.537 176.320 340.480 206.263 340.480 243.200C340.480 280.137 310.537 310.080 273.600 310.080C236.663 310.080 206.720 280.137 206.720 243.200Z" style="fill:#FFFFFF;fill-opacity:0;stroke:#FF00FF;stroke-width:2;"/>
<path d="M351.880 243.200C351.880 202.486 384.886 169.480 425.600 169.480C466.314 169.480 499.320 202.486 499.320 243.200C499.320 283.914 466.314 316.920 425.600 316.920C384.886 316.920 351.880 283.914 351.880 243.200Z" style="fill:#FFFFFF;fill-opacity:0;stroke:#FF00FF;stroke-width:2;"/>
<path d="M-484.120 -288.800C-484.120 -329.514 -451.114 -362.520 -410.400 -362.520C-369.686 -362.520 -336.680 -329.514 -336.680 -288.800C-336.680 -248.086 -369.686 -215.080 -410.400 -215.080C-451.114 -215.080 -484.120 -248.086 -484.120 -288.800Z" style="fill-opacity:0;stroke:#0000FF;stroke-width:2;"/>
<path d="M-325.280 -288.800C-325.280 -325.737 -295.337 -355.680 -258.400 -355.680C-221.463 -355.680 -191.520 -325.737 -191.520 -288.800C-191.520 -251.863 -221.463 -221.920 -258.400 -221.920C-295.337 -221.920 -325.280 -251.863 -325.280 -288.800Z" style="fill-opacity:0;stroke:#0000FF;stroke-width:2;"/>
<path d="M-231.990 -288.800C-231.990 -358.161 -175.761 -414.390 -106.400 -414.390C-37.039 -414.390 19.190 -358.161 19.190 -288.800C19.190 -219.439 -37.039 -163.210 -106.400 -163.210C-175.761 -163.210 -231.990 -219.439 -231.990 -288.800Z" style="fill-opacity:0;stroke:#0000FF;stroke-width:2;"/>
<path d="M-49.780 -288.800C-49.780 -341.477 -7.077 -384.180 45.600 -384.180C98.277 -384.180 140.980 -341.477 140.980 -288.800C140.980 -236.123 98.277 -193.420 45.600 -193.420C-7.077 -193.420 -49.780 -236.123 -49.780 -288.800Z" style="fill-opacity:0;stroke:#0000FF;stroke-width:2;"/>
<path d="M138.510 -288.800C138.510 -321.435 164.965 -347.890 197.600 -347.890C230.235 -347.890 256.690 -321.435 256.690 -288.800C256.690 -256.165 230.235 -229.710 197.600 -229.710C164.965 -229.710 138.510 -256.165 138.510 -288.800Z" style="fill-opacity:0;stroke:#0000FF;stroke-width:2;"/>
<path d="M279.490 -288.800C279.490 -327.521 310.879 -358.910 349.600 -358.910C388.321 -358.910 419.710 -327.521 419.710 -288.800C419.710 -250.079 388.321 -218.690 349.600 -218.690C310.879 -218.690 279.490 -250.079 279.490 -288.800Z" style="fill-opacity:0;stroke:#0000FF;stroke-width:2;"/>
<path d="M486.780 -288.800C486.780 -296.985 493.415 -303.620 501.600 -303.620C509.785 -303.620 516.420 -296.985 516.420 -288.800C516.420 -280.615 509.785 -273.980 501.600 -273.980C493.415 -273.980 486.780 -280.615 486.780 -288.800Z" style="fill-opacity:0;stroke:#0000FF;stroke-width:2;"/>
<path d="M-539.790 -136.800C-539.790 -208.260 -481.860 -266.190 -410.400 -266.190C-338.940 -266.190 -281.010 -208.260 -281.010 -136.800C-281.010 -65.340 -338.940 -7.410 -410.400 -7.410C-481.860 -7.410 -539.790 -65.340 -539.790 -136.800Z" style="fill-opacity:0;stroke:#0000FF;stroke-width:2;"/>
<path d="M-378.670 -136.800C-378.670 -203.223 -324.823 -257.070 -258.400 -257.070C-191.977 -257.070 -138.130 -203.223 -138.130 -136.800C-138.130 -70.377 -191.977 -16.530 -258.400 -16.530C-324.823 -16.530 -378.670 -70.377 -378.670 -136.800Z" style="fill-opacity:0;stroke:#0000FF;stroke-width:2;"/>
<path d="M-247.760 -136.800C-247.760 -214.871 -184.471 -278.160 -106.400 -278.160C-28.329 -278.160 34.960 -214.871 34.960 -136.800C34.960 -58.729 -28.329 4.560 -106.400 4.560C-184.471 4.560 -247.760 -58.729 -247.760 -136.800Z" style="fill-opacity:0;stroke:#0000FF;stroke-width:2;"/>
<path d="M-38.190 -136.800C-38.190 -183.076 -0.676 -220.590 45.600 -220.590C91.876 -220.590 129.390 -183.076 129.390 -136.800C129.390 -90.524 91.876 -53.010 45.600 -53.010C-0.676 -53.010 -38.190 -90.524 -38.190 -136.800Z" style="fill-opacity:0;stroke:#0000FF;stroke-width:2;"/>
<path d="M127.870 -136.800C127.870 -175.311 159.089 -206.530 197.600 -206.530C236.111 -206.530 267.330 -175.311 267.330 -136.800C267.330 -98.289 236.111 -67.070 197.600 -67.070C159.089 -67.070 127.870 -98.289 127.870 -136.800Z" style="fill-opacity:0;stroke:#0000FF;stroke-width:2;"/>
<path d="M238.830 -136.800C238.830 -197.977 288.423 -247.570 349.600 -247.570C410.777 -247.570 460.370 -197.977 460.370 -136.800C460.370 -75.623 410.777 -26.030 349.600 -26.030C288.423 -26.030 238.830 -75.623 238.830 -136.800Z" style="fill-opacity:0;stroke:#0000FF;stroke-width:2;"/>
<path d="M463.410 -136.800C463.410 -157.892 480.508 -174.990 501.600 -174.990C522.692 -174.990 539.790 -157.892 539.790 -136.800C539.790 -115.708 522.692 -98.610 501.600 -98.610C480.508 -98.610 463.410 -115.708 463.410 -136.800Z" style="fill-opacity:0;stroke:#0000FF;stroke-width:2;"/>
<path d="M-521.740 15.200C-521.740 -46.291 -471.891 -96.140 -410.400 -96.140C-348.909 -96.140 -299.060 -46.291 -299.060 15.200C-299.060 76.691 -348.909 126.540 -410.400 126.540C-471.891 126.540 -521.740 76.691 -521.740 15.200Z" style="fill-opacity:0;stroke:#0000FF;stroke-width:2;"/>
<path d="M-389.880 15.200C-389.880 -57.414 -331.014 -116.280 -258.400 -116.280C-185.786 -116.280 -126.920 -57.414 -126.920 15.200C-126.920 87.814 -185.786 146.680 -258.400 146.680C-331.014 146.680 -389.880 87.814 -389.880 15.200Z" style="fill-opacity:0;stroke:#0000FF;stroke-width:2;"/>
<path d="M-221.920 15.200C-221.920 -48.600 -170.200 -100.320 -106.400 -100.320C-42.600 -100.320 9.120 -48.600 9.120 15.200C9.120 79.000 -42.600 130.720 -106.400 130.720C-170.200 130.720 -221.920 79.000 -221.920 15.200Z" style="fill-opacity:0;stroke:#0000FF;stroke-width:2;"/>
<path d="M-3.230 15.200C-3.230 -11.768 18.632 -33.630 45.600 -33.630C72.568 -33.630 94.430 -11.768 94.430 15.200C94.430 42.168 72.568 64.030 45.600 64.030C18.632 64.030 -3.230 42.168 -3.230 15.200Z" style="fill-opacity:0;stroke:#0000FF;stroke-width:2;"/>
<path d="M120.270 15.200C120.270 -27.508 154.892 -62.130 197.600 -62.130C240.308 -62.130 274.930 -27.508 274.930 15.200C274.930 57.908 240.308 92.530 197.600 92.530C154.892 92.530 120.270 57.908 120.270 15.200Z" style="fill-opacity:0;stroke:#0000FF;stroke-width:2;"/>
<path d="M224.770 15.200C224.770 -53.742 280.658 -109.630 349.600 -109.630C418.542 -109.630 474.430 -53.742 474.430 15.200C474.430 84.142 418.542 140.030 349.600 140.030C280.658 140.030 224.770 84.142 224.770 15.200Z" style="fill-opacity:0;stroke:#0000FF;stroke-width:2;"/>
<path d="M451.630 15.200C451.630 -12.398 474.002 -34.770 501.600 -34.770C529.198 -34.770 551.570 -12.398 551.570 15.200C551.570 42.798 529.198 65.170 501.600 65.170C474.002 65.170 451.630 42.798 451.630 15.200Z" style="fill-opacity:0;stroke:#0000FF;stroke-width:2;"/>
<path d="M-554.610 167.200C-554.610 87.555 -490.045 22.990 -410.400 22.990C-330.755 22.990 -266.190 87.555 -266.190 167.200C-266.190 246.845 -330.755 311.410 -410.400 311.410C-490.045 311.410 -554.610 246.845 -554.610 167.200Z" style="fill-opacity:0;stroke:#0000FF;stroke-width:2;"/>
<path d="M-396.340 167.200C-396.340 91.018 -334.582 29.260 -258.400 29.260C-182.218 29.260 -120.460 91.018 -120.460 167.200C-120.460 243.382 -182.218 305.140 -258.400 305.140C-334.582 305.140 -396.340 243.382 -396.340 167.200Z" style="fill-opacity:0;stroke:#0000FF;stroke-width:2;"/>
<path d="M-192.660 167.200C-192.660 119.560 -154.040 80.940 -106.400 80.940C-58.760 80.940 -20.140 119.560 -20.140 167.200C-20.140 214.840 -58.760 253.460 -106.400 253.460C-154.040 253.460 -192.660 214.840 -192.660 167.200Z" style="fill-opacity:0;stroke:#0000FF;stroke-width:2;"/>
<path d="M13.300 167.200C13.300 149.361 27.761 134.900 45.600 134.900C63.439 134.900 77.900 149.361 77.900 167.200C77.900 185.039 63.439 199.500 45.600 199.500C27.761 199.500 13.300 185.039 13.300 167.200Z" style="fill-opacity:0;stroke:#0000FF;stroke-width:2;"/>
<path d="M107.540 167.200C107.540 117.461 147.861 77.140 197.600 77.140C247.339 77.140 287.660 117.461 287.660 167.200C287.660 216.939 247.339 257.260 197.600 257.260C147.861 257.260 107.540 216.939 107.540 167.200Z" style="fill-opacity:0;stroke:#0000FF;stroke-width:2;"/>
<path d="M226.860 167.200C226.860 99.413 281.813 44.460 349.600 44.460C417.387 44.460 472.340 99.413 472.340 167.200C472.340 234.987 417.387 289.940 349.600 289.940C281.813 289.940 226.860 234.987 226.860 167.200Z" style="fill-opacity:0;stroke:#0000FF;stroke-width:2;"/>
<path d="M439.470 167.200C439.470 132.887 467.287 105.070 501.600 105.070C535.913 105.070 563.730 132.887 563.730 167.200C563.730 201.513 535.913 229.330 501.600 229.330C467.287 229.330 439.470 201.513 439.470 167.200Z" style="fill-opacity:0;stroke:#0000FF;stroke-width:2;"/>
<path d="M-485.640 319.200C-485.640 277.646 -451.954 243.960 -410.400 243.960C-368.846 243.960 -335.160 277.646 -335.160 319.200C-335.160 360.754 -368.846 394.440 -410.400 394.440C-451.954 394.440 -485.640 360.754 -485.640 319.200Z" style="fill-opacity:0;stroke:#0000FF;stroke-width:2;"/>
<path d="M-333.640 319.200C-333.640 277.646 -299.954 243.960 -258.400 243.960C-216.846 243.960 -183.160 277.646 -183.160 319.200C-183.160 360.754 -216.846 394.440 -258.400 394.440C-299.954 394.440 -333.640 360.754 -333.640 319.200Z" style="fill-opacity:0;stroke:#0000FF;stroke-width:2;"/>
<path d="M-181.640 319.200C-181.640 277.646 -147.954 243.960 -106.400 243.960C-64.846 243.960 -31.160 277.646 -31.160 319.200C-31.160 360.754 -64.846 394.440 -106.400 394.440C-147.954 394.440 -181.640 360.754 -181.640 319.200Z" style="fill-opacity:0;stroke:#0000FF;stroke-width:2;"/>
<path d="M-11.020 319.200C-11.020 287.930 14.330 262.580 45.600 262.580C76.870 262.580 102.220 287.930 102.220 319.200C102.220 350.470 76.870 375.820 45.600 375.820C14.330 375.820 -11.020 350.470 -11.020 319.200Z" style="fill-opacity:0;stroke:#0000FF;stroke-width:2;"/>
<path d="M153.330 319.200C153.330 294.750 173.150 274.930 197.600 274.930C222.050 274.930 241.870 294.750 241.870 319.200C241.870 343.650 222.050 363.470 197.600 363.470C173.150 363.470 153.330 343.650 153.330 319.200Z" style="fill-opacity:0;stroke:#0000FF;stroke-width:2;"/>
<path d="M284.050 319.200C284.050 282.998 313.398 253.650 349.600 253.650C385.802 253.650 415.150 282.998 415.150 319.200C415.150 355.402 385.802 384.750 349.600 384.750C313.398 384.750 284.050 355.402 284.050 319.200Z" style="fill-opacity:0;stroke:#0000FF;stroke-width:2;"/>
<path d="M489.440 319.200C489.440 312.484 494.884 307.040 501.600 307.040C508.316 307.040 513.760 312.484 513.760 319.200C513.760 325.916 508.316 331.360 501.600 331.360C494.884 331.360 489.440 325.916 489.440 319.200Z" style="fill-opacity:0;stroke:#0000FF;stroke-width:2;"/>
</g>
</g></svg>